<?xml version="1.0" standalone="no"?>
<!DOCTYPE svg PUBLIC "-//W3C//DTD SVG 1.1//EN" "http://www.w3.org/Graphics/SVG/1.1/DTD/svg11.dtd" >
<svg xmlns="http://www.w3.org/2000/svg" xmlns:xlink="http://www.w3.org/1999/xlink" version="1.1">
<metadata>
Created by FontForge 20170731 at Fri Feb  4 02:08:48 2022
 By Aleksey,,,
Copyright (c) 2011 by typedepot. All rights reserved.
</metadata>
<defs>
<font id="CentraleSansRegular" horiz-adv-x="1390" >
  <font-face 
    font-family="Centrale Sans Regular"
    font-weight="400"
    font-stretch="normal"
    units-per-em="2048"
    panose-1="2 0 0 0 0 0 0 0 0 0"
    ascent="1536"
    descent="-512"
    x-height="1065"
    cap-height="1434"
    bbox="-94 -422 2433 1876"
    underline-thickness="102"
    underline-position="-307"
    unicode-range="U+0020-FB04"
  />
<missing-glyph 
d="M973 -141l-350 635l-353 -635h703zM143 1499h973v-1743h-973v1743zM266 1395l355 -652l350 652h-705zM1014 1239l-334 -621l334 -606v1227zM244 1219v-1190l321 589z" />
    <glyph glyph-name="f_f" unicode="ff" horiz-adv-x="1273" 
d="M1239 1520l-16 -121q-58 10 -103 10q-46 0 -77 -15t-46 -43t-20.5 -57.5t-5.5 -70.5v-158h252v-129h-252v-936h-168v936h-416v-936h-168v936h-151v104l151 25v131q0 161 67.5 240.5t227.5 79.5q71 0 141 -17l-16 -121q-64 11 -102 11q-46 0 -77.5 -15.5t-46.5 -44
t-20.5 -59t-5.5 -70.5v-135h416v152q0 161 67.5 240t227.5 79q75 0 141 -16z" />
    <glyph glyph-name="f_i" unicode="fi" horiz-adv-x="1144" 
d="M932 1444l-60 -109q-57 27 -138 45.5t-138 18.5q-108 0 -158.5 -69.5t-50.5 -180.5v-84h598v-1065h-166v936h-432v-936h-166v936h-151v104l151 25v104q0 165 102 266t265 101q76 0 168.5 -22t175.5 -70z" />
    <glyph glyph-name="f_l" unicode="fl" horiz-adv-x="1179" 
d="M961 0q-72 0 -110 47t-38 113v1011q0 106 -60 167t-155 61q-92 0 -150.5 -60.5t-58.5 -173.5v-100h221v-129h-221v-936h-168v936h-151v104l151 25v74q0 170 104.5 283.5t266.5 113.5q163 0 273 -104t110 -281v-950q0 -49 51 -49q11 0 80 6v-135q-14 -6 -61 -14.5
t-84 -8.5z" />
    <glyph glyph-name="f_f_i" unicode="ffi" horiz-adv-x="1681" 
d="M1493 1444l-59 -109q-57 27 -138.5 45.5t-138.5 18.5q-108 0 -158.5 -69.5t-50.5 -180.5v-84h598v-1065h-166v936h-432v-936h-166v936h-395v-936h-168v936h-151v104l151 25v121q0 162 68.5 246t228.5 84q69 0 139 -17l-16 -121q-64 11 -102 11q-46 0 -77.5 -15.5
t-46.5 -44t-20.5 -59t-5.5 -70.5v-135h395v104q0 165 102 266t265 101q76 0 168.5 -22t175.5 -70z" />
    <glyph glyph-name="f_f_l" unicode="ffl" horiz-adv-x="1757" 
d="M657 1499l-16 -121q-64 11 -106 11q-36 0 -63 -11t-42.5 -28t-25 -43t-12.5 -51t-3 -56v-135h395v74q0 170 106.5 283.5t270.5 113.5q103 0 188 -44.5t138 -133.5t53 -207v-952q0 -49 55 -49q3 0 78 6v-133q-73 -23 -141 -23q-78 0 -116 47.5t-38 110.5v1011
q0 105 -60.5 166.5t-154.5 61.5q-90 0 -151.5 -63t-61.5 -171v-98h228v-129h-228v-936h-166v936h-395v-936h-168v936h-151v104l151 25v121q0 165 69 247.5t234 82.5q63 0 133 -17z" />
    <glyph glyph-name=".notdef" 
d="M973 -141l-350 635l-353 -635h703zM143 1499h973v-1743h-973v1743zM266 1395l355 -652l350 652h-705zM1014 1239l-334 -621l334 -606v1227zM244 1219v-1190l321 589z" />
    <glyph glyph-name=".null" horiz-adv-x="0" 
 />
    <glyph glyph-name="nonmarkingreturn" horiz-adv-x="682" 
 />
    <glyph glyph-name="space" unicode=" " horiz-adv-x="532" 
 />
    <glyph glyph-name="exclam" unicode="!" horiz-adv-x="528" 
d="M164 1434h205l-37 -1018h-133zM268 201q47 0 78 -32t31 -79t-30 -77.5t-79 -30.5t-80.5 31t-31.5 77q0 48 31.5 79.5t80.5 31.5z" />
    <glyph glyph-name="quotedbl" unicode="&#x22;" horiz-adv-x="821" 
d="M158 1434h192l-102 -543q-18 0 -52.5 1t-50.5 1zM528 1434h191l-101 -543q-18 0 -52 1t-52 1z" />
    <glyph glyph-name="numbersign" unicode="#" horiz-adv-x="1611" 
d="M588 1434h143l-65 -353h417l68 353h145l-69 -353h274l-26 -141h-271l-82 -465h275l-25 -141h-276l-66 -334h-141l65 334h-424l-65 -334h-143l67 334h-280l28 141h275l84 465h-275l25 141h272zM639 940l-82 -465h420l84 465h-422z" />
    <glyph glyph-name="dollar" unicode="$" horiz-adv-x="1173" 
d="M651 -188h-112v168q-139 8 -254 45t-179 73l64 144q41 -21 89.5 -40.5t144 -42t184.5 -22.5q152 0 236.5 60.5t84.5 169.5q0 56 -27 99.5t-72.5 72t-104.5 51t-124.5 43.5t-131 43.5t-124.5 56t-104.5 76t-72.5 108.5t-27 150q0 170 110 271.5t308 115.5v176h112v-176
q193 -12 371 -96l-59 -141q-20 9 -55 22t-130.5 35t-177.5 22q-139 0 -225 -57t-86 -166q0 -57 27 -101t72.5 -73t105 -52.5t125 -44.5t131 -44.5t125 -56t105 -75t72.5 -106.5t27 -145q0 -176 -113.5 -277t-314.5 -116v-170z" />
    <glyph glyph-name="percent" unicode="%" horiz-adv-x="1683" 
d="M430 760q-143 0 -232 97t-89 247q0 152 90 251t235 99t234.5 -98t89.5 -250q0 -150 -91 -248t-237 -98zM352 0l826 1434h145l-823 -1434h-148zM1251 -20q-146 0 -235.5 97t-89.5 247q0 152 91 251t236 99q143 0 233.5 -98.5t90.5 -249.5q0 -150 -90.5 -248t-235.5 -98z
M434 879q87 0 138 62t51 163q0 103 -53.5 167t-139.5 64q-85 0 -135.5 -63t-50.5 -164t52.5 -165t137.5 -64zM1253 98q87 0 138 62t51 162q0 103 -53.5 168t-139.5 65t-136 -63t-50 -166q0 -101 52.5 -164.5t137.5 -63.5z" />
    <glyph glyph-name="ampersand" unicode="&#x26;" horiz-adv-x="1314" 
d="M565 1434q59 0 117.5 -21t106.5 -58.5t78 -97t30 -129.5q0 -102 -76 -190.5t-200 -157.5l348 -395q7 11 16.5 31.5t26.5 80.5t18 117h133q-1 -87 -24.5 -173t-46.5 -129l-23 -42l231 -270h-186l-139 166q-163 -166 -410 -166q-83 0 -165 28t-150 78.5t-110 130.5t-42 175
q0 70 22.5 130.5t66.5 110.5t92 87.5t116 78.5q-9 11 -33.5 40t-34 41.5t-28 37.5t-26.5 42.5t-18.5 42t-14.5 49.5t-4 52q0 94 50 166.5t124 108t155 35.5zM485 715q-113 -63 -173 -133.5t-60 -165.5q0 -79 48 -140.5t119 -91.5t148 -30q181 0 303 125zM565 1288
q-75 0 -126.5 -49t-51.5 -121q0 -42 19 -82.5t43 -69t65 -71.5q2 -1 3 -2t2 -2.5t2 -2.5l2.5 -2.5l2.5 -2.5q222 112 222 241q0 75 -54 119.5t-129 44.5z" />
    <glyph glyph-name="quotesingle" unicode="'" horiz-adv-x="450" 
d="M160 1434h192l-104 -543q-18 0 -53 1t-52 1z" />
    <glyph glyph-name="parenleft" unicode="(" horiz-adv-x="696" 
d="M565 1434l78 -99q-42 -36 -70.5 -62t-71 -71t-71 -86t-61 -101t-52 -122t-32.5 -142.5t-13 -168.5q0 -89 12.5 -170.5t32 -143.5t52.5 -122.5t61.5 -102t71.5 -87.5t71.5 -71.5t71.5 -62.5l-80 -103q-63 43 -123.5 99t-124.5 138t-111 173.5t-77.5 210.5t-30.5 244
q0 121 30 237.5t77.5 206.5t111 171.5t124.5 137t124 97.5z" />
    <glyph glyph-name="parenright" unicode=")" horiz-adv-x="698" 
d="M131 1434q63 -42 124 -97.5t124.5 -137t111 -171.5t77.5 -206.5t30 -237.5q0 -125 -30.5 -244t-77.5 -210.5t-111 -173.5t-124.5 -138t-123.5 -99l-78 103q43 37 70.5 62.5t71 72t71.5 87t61 101.5t52.5 123t32 143.5t12.5 170.5q0 88 -13 168.5t-32.5 142.5t-52 122
t-61 100.5t-71 86.5t-70 71.5t-69.5 61.5z" />
    <glyph glyph-name="asterisk" unicode="*" horiz-adv-x="886" 
d="M389 897l23 264l-219 -153l-58 98l244 113l-244 112l58 99l219 -154l-23 264h111l-25 -264l219 154l58 -99l-244 -112l244 -113l-58 -98l-219 153l25 -264h-111z" />
    <glyph glyph-name="plus" unicode="+" horiz-adv-x="1032" 
d="M457 1065h118v-338h338v-119h-338v-336h-118v336h-338v119h338v338z" />
    <glyph glyph-name="comma" unicode="," horiz-adv-x="518" 
d="M246 203q68 0 108.5 -55t40.5 -125q0 -98 -63 -171t-158 -118l-43 67q14 8 36.5 26.5t49.5 47t43.5 65.5t11.5 70q-16 -20 -47 -20q-47 0 -71.5 28t-24.5 72q0 48 35.5 80.5t81.5 32.5z" />
    <glyph glyph-name="hyphen" unicode="-" horiz-adv-x="1026" 
d="M145 731h736v-119h-736v119z" />
    <glyph glyph-name="period" unicode="." horiz-adv-x="489" 
d="M244 213q47 0 80.5 -33t33.5 -80q0 -46 -33.5 -78t-80.5 -32q-46 0 -79.5 32.5t-33.5 77.5q0 47 33.5 80t79.5 33z" />
    <glyph glyph-name="slash" unicode="/" horiz-adv-x="1011" 
d="M784 1499h144l-703 -1569h-143z" />
    <glyph glyph-name="zero" unicode="0" horiz-adv-x="1423" 
d="M711 -20q-176 0 -311 101t-205 267t-70 367q0 150 41.5 284t116 235t187 160.5t245.5 59.5q174 0 308.5 -101t204.5 -266.5t70 -365.5q0 -150 -41.5 -285t-116 -236t-186 -160.5t-243.5 -59.5zM715 133q125 0 219.5 80.5t142 211t47.5 288.5q0 157 -48.5 289.5t-144 215
t-220.5 82.5q-124 0 -219.5 -80.5t-144 -212t-48.5 -290.5q0 -157 49 -289t145 -213.5t222 -81.5z" />
    <glyph glyph-name="one" unicode="1" horiz-adv-x="679" 
d="M51 1260l307 174h121v-1434h-160v1227l-4 4l-202 -94z" />
    <glyph glyph-name="two" unicode="2" horiz-adv-x="1134" 
d="M121 1341q206 113 399 113q199 0 329 -119.5t130 -310.5q0 -260 -313 -543l-361 -338h719v-143h-932v137l471 463q48 47 84 88t77.5 98t64 118.5t22.5 121.5q0 123 -86.5 197.5t-214.5 76.5q-150 2 -332 -77z" />
    <glyph glyph-name="three" unicode="3" horiz-adv-x="1126" 
d="M174 1249l-51 127q215 82 375 78q192 -5 317 -106t125 -261q0 -119 -69 -200t-171 -109q136 -39 217.5 -134t81.5 -241q0 -101 -42.5 -183t-115 -133.5t-165 -79t-195.5 -27.5q-119 0 -223.5 32t-175.5 74l61 117q61 -29 155 -49.5t169 -22.5q154 -3 259 75.5t105 209.5
q0 75 -36 134.5t-94 94.5t-124.5 53t-134.5 19l-110 2l2 121h119q43 0 85 6t86.5 22.5t77.5 41.5t54.5 66.5t21.5 94.5q0 109 -83.5 168t-235.5 59q-127 0 -285 -49z" />
    <glyph glyph-name="four" unicode="4" horiz-adv-x="1202" 
d="M801 1434h129v-930h178v-146h-178v-358h-154v358h-715v123zM776 1163l-526 -659h526v659z" />
    <glyph glyph-name="five" unicode="5" horiz-adv-x="1165" 
d="M985 1434v-142h-596l-53 -430q129 68 244 68q129 0 237.5 -57.5t174 -164t65.5 -239.5q0 -139 -71.5 -252t-193 -175t-266.5 -62q-226 0 -424 110l56 123q70 -34 167.5 -57t192.5 -23q153 0 263 98t110 238q0 134 -99 223.5t-243 89.5q-134 0 -252 -92l-135 68l90 676
h733z" />
    <glyph glyph-name="six" unicode="6" horiz-adv-x="1251" 
d="M1065 1372l-49 -127q-168 60 -295 60q-436 0 -436 -594h6q47 95 148.5 156t236.5 61q195 0 329 -127t134 -336q0 -216 -142.5 -350.5t-355.5 -134.5q-132 0 -232.5 56t-160 154.5t-88.5 222t-29 269.5q0 73 7 143.5t25 148.5t46 146t73.5 130.5t103.5 106.5t140 70.5
t179 26.5q173 0 360 -82zM651 776q-149 0 -245.5 -92.5t-96.5 -230.5q0 -136 94 -229t242 -93q151 0 245.5 97t94.5 233q0 134 -93.5 224.5t-240.5 90.5z" />
    <glyph glyph-name="seven" unicode="7" horiz-adv-x="1040" 
d="M66 1434h927v-146l-583 -1288h-179l584 1282h-749v152z" />
    <glyph glyph-name="eight" unicode="8" horiz-adv-x="1224" 
d="M610 1454q108 0 201.5 -45.5t152 -133t58.5 -198.5q0 -104 -57 -184.5t-144 -114.5q123 -40 201 -136.5t78 -229.5q0 -81 -27 -151t-73.5 -121t-109 -87.5t-134 -54.5t-146.5 -18q-127 0 -236.5 49.5t-180 149.5t-70.5 231q0 126 79.5 226.5t198.5 141.5q-88 35 -145 115
t-57 184q0 165 122 271t289 106zM612 684q-142 0 -235.5 -77.5t-93.5 -198.5q0 -127 94.5 -202t232.5 -75t234 73.5t96 203.5q0 125 -94 200.5t-234 75.5zM610 1303q-103 0 -179.5 -62.5t-76.5 -169.5q0 -102 69 -167.5t187 -65.5t189 65.5t71 167.5q0 105 -78.5 168.5
t-181.5 63.5z" />
    <glyph glyph-name="nine" unicode="9" horiz-adv-x="1251" 
d="M188 61l50 127q161 -59 323 -59q109 0 189.5 46t127 129t68 187.5t21.5 233.5h-4q-40 -97 -146.5 -161t-243.5 -64q-125 0 -229.5 57t-167.5 164t-63 244q0 211 139 350t360 139q127 0 226.5 -54t160.5 -148t92 -214.5t31 -261.5q0 -81 -7.5 -158t-26 -157t-46.5 -149.5
t-72 -131.5t-99.5 -105.5t-132.5 -69t-167 -25.5q-184 0 -383 81zM600 653q147 0 244.5 93t97.5 227t-91.5 232t-236.5 98q-160 0 -253 -96t-93 -234q0 -137 92.5 -228.5t239.5 -91.5z" />
    <glyph glyph-name="colon" unicode=":" horiz-adv-x="516" 
d="M258 213q47 0 81 -33t34 -80q0 -46 -34 -78t-81 -32t-80 32t-33 78q0 47 33 80t80 33zM258 956q48 0 81.5 -32.5t33.5 -79.5q0 -46 -34 -78.5t-81 -32.5t-80 32.5t-33 78.5q0 47 33 79.5t80 32.5z" />
    <glyph glyph-name="semicolon" unicode=";" horiz-adv-x="557" 
d="M268 197q63 0 103.5 -54.5t40.5 -124.5q0 -93 -62.5 -166t-154.5 -116l-41 63q43 23 96 87t43 126q-14 -22 -51 -22q-41 0 -64.5 28t-23.5 68q0 48 33.5 79.5t80.5 31.5zM272 956q48 0 81.5 -32.5t33.5 -79.5q0 -46 -34 -78.5t-81 -32.5q-46 0 -79 32.5t-33 78.5
q0 47 33 79.5t79 32.5z" />
    <glyph glyph-name="less" unicode="&#x3c;" horiz-adv-x="894" 
d="M719 1042v-135l-449 -219l451 -219v-139l-602 307v102z" />
    <glyph glyph-name="equal" unicode="=" horiz-adv-x="1032" 
d="M164 895h706v-119h-706v119zM164 573h706v-120h-706v120z" />
    <glyph glyph-name="greater" unicode="&#x3e;" horiz-adv-x="894" 
d="M176 907v135l600 -303v-102l-602 -307v139l451 219z" />
    <glyph glyph-name="question" unicode="?" horiz-adv-x="1017" 
d="M465 1481q116 0 212.5 -40t158 -123.5t61.5 -197.5q0 -63 -21.5 -116t-55.5 -89.5t-75.5 -69t-82.5 -62.5t-75 -61.5t-55.5 -73.5t-21.5 -91v-141h-139v151q0 60 20 110.5t52 86t70.5 67.5t77 61.5t70.5 60.5t52 72.5t20 90.5q0 100 -80 159.5t-192 59.5
q-68 0 -149.5 -22.5t-133.5 -55.5l-74 117q67 49 165.5 78t195.5 29zM444 199q47 0 79 -32t32 -79q0 -46 -31 -77t-80 -31q-47 0 -79.5 31t-32.5 77q0 47 32.5 79t79.5 32z" />
    <glyph glyph-name="at" unicode="@" horiz-adv-x="1916" 
d="M1450 166q-104 0 -163 43t-70 117q-38 -76 -116 -118t-177 -42q-134 0 -225 71.5t-91 196.5q0 59 23 104.5t57.5 72t81.5 43t88.5 22.5t83.5 6q106 0 236 -37v86q0 111 -57.5 153t-164.5 42q-100 0 -249 -39l-27 92q151 47 299 47q161 0 242.5 -74t81.5 -215v-331
q0 -64 37 -100t108 -36q55 0 97 22t66.5 57t40.5 83.5t21.5 95.5t5.5 99q0 138 -41 254t-110 195t-160.5 134t-190.5 80t-202 25q-153 0 -289 -57.5t-231.5 -154.5t-151 -229t-55.5 -278q0 -144 54.5 -275t147.5 -227t225 -152.5t279 -56.5q136 0 283 58l41 -109
q-171 -70 -330 -70q-170 0 -323 66t-262.5 178t-173.5 265.5t-64 322.5q0 136 41.5 263.5t118.5 231t180.5 181t234.5 120t273 42.5q127 0 247 -33t225.5 -100.5t185 -162t125.5 -227t46 -286.5q0 -81 -12.5 -149.5t-39.5 -126t-68 -98t-100 -63t-132 -22.5zM924 270
q100 0 175.5 60.5t78.5 148.5v74q-20 9 -89 23t-135 14q-43 0 -81 -7.5t-72.5 -24t-55 -48.5t-20.5 -76q0 -78 60 -121t139 -43z" />
    <glyph glyph-name="A" unicode="A" horiz-adv-x="1331" 
d="M575 1454h181l549 -1454h-183l-141 391h-629l-141 -391h-182zM666 1276l-271 -746h541z" />
    <glyph glyph-name="B" unicode="B" horiz-adv-x="1361" 
d="M195 1434h563q171 0 291 -108.5t120 -278.5q0 -116 -61 -198t-141 -112q118 -34 198 -123.5t80 -228.5q0 -170 -119 -277.5t-292 -107.5h-639v1434zM367 160h469q92 0 164.5 74.5t72.5 177.5q0 97 -68.5 167t-183.5 70h-454v-489zM367 1274v-475h411q100 0 159.5 66
t59.5 167q0 108 -68 175t-169 67h-393z" />
    <glyph glyph-name="C" unicode="C" horiz-adv-x="1378" 
d="M858 -20q-154 0 -293 58.5t-239 157.5t-158.5 235t-58.5 286t58.5 286t158.5 235t239 157.5t293 58.5q114 -1 231 -32t199 -76l-61 -129q-19 9 -52 22.5t-129 36t-184 22.5q-120 0 -226.5 -44.5t-182.5 -121.5t-120 -185t-44 -230t44 -230t120 -185t182.5 -122t226.5 -45
q88 0 179.5 20.5t138.5 40.5l47 21l61 -129q-82 -45 -199 -76t-231 -32z" />
    <glyph glyph-name="D" unicode="D" horiz-adv-x="1447" 
d="M686 0h-491v1434h491q171 0 328 -91q83 -49 145 -119t99 -152.5t54.5 -170.5t18.5 -184q0 -96 -18 -185t-55 -171.5t-99 -152.5t-145 -118q-83 -47 -171.5 -68.5t-156.5 -21.5zM367 1272v-1110h290q145 0 281 76q221 127 221 481q0 347 -221 477q-129 76 -281 76h-290z
" />
    <glyph glyph-name="E" unicode="E" horiz-adv-x="1310" 
d="M195 1434h985v-160h-813v-498h698v-155h-698v-461h839v-160h-1011v1434z" />
    <glyph glyph-name="F" unicode="F" horiz-adv-x="1241" 
d="M195 1434h987v-160h-815v-510h698v-156h-698v-608h-172v1434z" />
    <glyph glyph-name="G" unicode="G" horiz-adv-x="1523" 
d="M860 1454q109 0 239.5 -32t223.5 -83l-68 -129q-30 13 -68.5 28t-137.5 37.5t-185 22.5q-120 0 -226.5 -44.5t-182.5 -121.5t-120 -185t-44 -230q0 -121 44 -229t120 -185.5t182.5 -122.5t226.5 -45q222 0 379 137v318h-389v143h549v-526q-131 -123 -262.5 -175
t-280.5 -52q-154 0 -293 58.5t-239 157.5t-158.5 235t-58.5 286t58.5 286t158.5 235t239 157.5t293 58.5z" />
    <glyph glyph-name="H" unicode="H" horiz-adv-x="1509" 
d="M195 1434h172v-639h776v639h172v-1434h-172v637h-776v-637h-172v1434z" />
    <glyph glyph-name="I" unicode="I" horiz-adv-x="561" 
d="M195 1434h172v-1434h-172v1434z" />
    <glyph glyph-name="J" unicode="J" horiz-adv-x="604" 
d="M51 -287l-55 115q13 7 33 19.5t60 45t71 66.5t55.5 82.5t24.5 95.5v1133l-140 35v129h312v-1229q0 -79 -25 -166q-15 -58 -53 -111t-77 -87.5t-87.5 -65t-73 -42t-45.5 -20.5z" />
    <glyph glyph-name="K" unicode="K" horiz-adv-x="1286" 
d="M195 0v1434h172v-572l-5 -200l138 174l506 598h208l-526 -617l590 -817h-201l-493 700l-217 -247v-453h-172z" />
    <glyph glyph-name="L" unicode="L" horiz-adv-x="1191" 
d="M195 1434h172v-1274h778v-160h-950v1434z" />
    <glyph glyph-name="M" unicode="M" horiz-adv-x="1871" 
d="M195 1434h235l504 -1145h4l502 1145h235v-1434h-170v1178h-6l-487 -1094h-154l-487 1096h-4v-1180h-172v1434z" />
    <glyph glyph-name="N" unicode="N" horiz-adv-x="1499" 
d="M195 1434h178l452 -682l312 -484h4l-8 574v592h170v-1434h-179l-456 705l-306 471h-4l9 -469v-707h-172v1434z" />
    <glyph glyph-name="O" unicode="O" horiz-adv-x="1685" 
d="M109 719q0 154 60 291.5t160 234t234.5 153t280.5 56.5q201 0 370 -98.5t266 -267.5t97 -369q0 -153 -59.5 -291t-158.5 -235.5t-234 -155t-281 -57.5q-150 0 -286 58t-234.5 156.5t-156.5 235.5t-58 289zM289 717q0 -122 42.5 -230t116 -185t176.5 -122t220 -45t220 45
t176 122t115 185t42 230q0 161 -72 294t-200 210t-285 77q-154 0 -280.5 -76t-198.5 -209t-72 -296z" />
    <glyph glyph-name="P" unicode="P" horiz-adv-x="1292" 
d="M195 1434h608q112 0 208.5 -61.5t152 -162t55.5 -211.5q0 -110 -55 -210.5t-150.5 -163t-204.5 -62.5h-442v-563h-172v1434zM367 1272v-549h436q99 0 171.5 85.5t72.5 190.5q0 122 -85 197.5t-206 75.5h-389z" />
    <glyph glyph-name="Q" unicode="Q" horiz-adv-x="1681" 
d="M109 719q0 203 101 373t269 266t363 96q200 0 368 -98.5t264.5 -267t96.5 -367.5q0 -152 -59 -290t-168.5 -240.5t-251.5 -147.5v-6q167 -85 450 -156l-63 -147q-97 21 -260.5 92.5t-255.5 128.5q-29 18 -48.5 21.5t-76.5 3.5q-149 0 -284.5 59t-232.5 159t-154.5 236
t-57.5 285zM289 717q0 -162 73.5 -296.5t200.5 -211t279 -76.5t278 76.5t198.5 211t72.5 296.5t-72.5 296t-198.5 210.5t-278 76.5t-279 -76.5t-200.5 -210.5t-73.5 -296z" />
    <glyph glyph-name="R" unicode="R" horiz-adv-x="1370" 
d="M195 1434h626q170 0 292 -122t122 -292q0 -138 -83.5 -249t-215.5 -146l354 -625h-198l-332 604h-393v-604h-172v1434zM367 1274v-512h454q99 0 171.5 78.5t72.5 179.5q0 120 -85.5 187t-207.5 67h-405z" />
    <glyph glyph-name="S" unicode="S" horiz-adv-x="1224" 
d="M612 -20q-112 0 -227 25t-173 47.5t-103 45.5l63 138q39 -20 92 -40.5t154 -42.5t196 -22q164 0 255.5 61.5t91.5 174.5q0 58 -28.5 102.5t-77 73t-111.5 51t-132.5 42.5t-139 41.5t-132.5 53.5t-111.5 74t-77 107.5t-28.5 148.5q0 183 131 288t362 105q129 0 250 -30
t201 -66l-61 -135q-21 9 -57 22.5t-136.5 35.5t-187.5 22q-151 0 -242.5 -58t-91.5 -170q0 -59 28.5 -104.5t77 -75t111.5 -53t132.5 -44t138.5 -43t132 -54t111.5 -73t77 -105t28.5 -144.5q0 -189 -138 -294t-378 -105z" />
    <glyph glyph-name="T" unicode="T" horiz-adv-x="1236" 
d="M43 1434h1153v-160h-491v-1274h-173v1274h-489v160z" />
    <glyph glyph-name="U" unicode="U" horiz-adv-x="1470" 
d="M1114 1434h172v-881q0 -253 -146 -403t-405 -150t-405 150t-146 403v881h172v-881q0 -182 102.5 -286.5t276.5 -104.5t276.5 104.5t102.5 286.5v881z" />
    <glyph glyph-name="V" unicode="V" horiz-adv-x="1277" 
d="M27 1434h180l430 -1217h4l430 1217h180l-528 -1434h-168z" />
    <glyph glyph-name="W" unicode="W" horiz-adv-x="1976" 
d="M1749 1434h186l-440 -1434h-172l-334 1149l-334 -1149h-172l-440 1434h186l334 -1172h4l336 1172h172l336 -1172h4z" />
    <glyph glyph-name="X" unicode="X" horiz-adv-x="1357" 
d="M41 1434h203l432 -590h2l434 590h201l-535 -719l537 -715h-203l-434 584h-2l-430 -584h-203l537 715z" />
    <glyph glyph-name="Y" unicode="Y" horiz-adv-x="1210" 
d="M10 1434h191l401 -689h2l406 689h186l-504 -850v-584h-172v584z" />
    <glyph glyph-name="Z" unicode="Z" horiz-adv-x="1263" 
d="M106 1434h1063v-129l-872 -1153l2 -2l250 6h620v-156h-1091v119l878 1161q0 1 -1 2t-1 2l-301 -2h-547v152z" />
    <glyph glyph-name="bracketleft" unicode="[" horiz-adv-x="587" 
d="M510 1462v-131h-203v-1554h203v-129h-340v1814h340z" />
    <glyph glyph-name="backslash" unicode="\" horiz-adv-x="1011" 
d="M784 -70l-702 1569h143l705 -1569h-146z" />
    <glyph glyph-name="bracketright" unicode="]" horiz-adv-x="587" 
d="M78 1331v131h342v-1816h-342v131h203v1554h-203z" />
    <glyph glyph-name="underscore" unicode="_" horiz-adv-x="1425" 
d="M283 -156h860v-120h-860v120z" />
    <glyph glyph-name="grave" unicode="`" horiz-adv-x="552" 
d="M127 1462l141 78l135 -334h-94z" />
    <glyph glyph-name="a" unicode="a" horiz-adv-x="1155" 
d="M174 1022q183 63 381 63q410 0 410 -346v-546q0 -46 57 -46q9 0 23 1t32 3t25 3v-131q-9 -5 -62 -14t-88 -9q-59 0 -96 31t-37 102v33q-50 -96 -143.5 -141t-210.5 -45q-172 0 -282.5 89.5t-110.5 256.5q1 82 36.5 145.5t98 102t142 58t173.5 19.5q120 0 283 -28v94
q0 66 -20 112t-59 70.5t-86.5 34.5t-111.5 10q-71 0 -163 -12t-156 -31zM805 487q-31 9 -107.5 20t-158.5 11q-312 0 -312 -192q0 -99 75.5 -154t178.5 -55q129 0 226.5 81.5t97.5 188.5v100z" />
    <glyph glyph-name="b" unicode="b" horiz-adv-x="1314" 
d="M160 1499h170v-608q68 97 168 145.5t211 48.5q150 0 268 -79t179 -204t61 -270q0 -153 -62 -278.5t-179 -199.5t-267 -74q-124 0 -230 57.5t-166 157.5l-22 -195h-131v1499zM680 936q-157 0 -262 -116.5t-105 -287.5t104 -287t263 -116q156 0 260 114.5t104 288.5
t-103 289t-261 115z" />
    <glyph glyph-name="c" unicode="c" horiz-adv-x="1054" 
d="M657 -20q-155 0 -285 75.5t-204 202t-74 274.5t74 275t204 202.5t285 75.5q169 0 322 -75l-59 -127l-16 6q-15 6 -37.5 13.5t-52.5 15.5t-69 13t-77 5q-94 0 -172 -36.5t-127 -96t-76 -130t-27 -141.5t27 -141.5t76 -129.5t127 -95.5t172 -36.5q38 0 77 5t69 13
t52.5 15.5t37.5 13.5l16 6l59 -127q-153 -75 -322 -75z" />
    <glyph glyph-name="d" unicode="d" horiz-adv-x="1314" 
d="M985 1499h170v-1499h-131l-23 195q-60 -100 -165.5 -157.5t-229.5 -57.5q-150 0 -267 74t-179 199.5t-62 278.5q0 145 61 270t179 204t268 79q111 0 211 -48.5t168 -145.5v608zM635 936q-158 0 -261.5 -115t-103.5 -289t104.5 -288.5t260.5 -114.5q159 0 262.5 115.5
t103.5 287.5q0 171 -104.5 287.5t-261.5 116.5z" />
    <glyph glyph-name="e" unicode="e" horiz-adv-x="1189" 
d="M96 528q0 153 67 280.5t188 202t270 74.5q114 0 208 -45.5t154 -121t92.5 -171t32.5 -198.5q0 -23 -1.5 -44.5t-2.5 -31.5l-2 -10h-830q10 -151 117 -242.5t264 -91.5t322 72l57 -129q-75 -39 -176.5 -65.5t-206.5 -26.5q-159 0 -286 73t-197 198.5t-70 276.5zM272 594
h676q-2 66 -22 125.5t-57.5 109t-99 78.5t-138.5 29q-145 0 -245 -96.5t-114 -245.5z" />
    <glyph glyph-name="f" unicode="f" horiz-adv-x="692" 
d="M655 1520l-16 -131q-58 10 -107 10q-45 0 -75 -15.5t-44.5 -44.5t-20 -59t-5.5 -70v-145h252v-129h-252v-936h-168v936h-151v104l151 25v141q0 165 69 247.5t234 82.5q67 0 133 -16z" />
    <glyph glyph-name="g" unicode="g" horiz-adv-x="1103" 
d="M1036 1065v-119l-159 -26q88 -75 88 -203q0 -149 -106.5 -244.5t-299.5 -95.5q-152 0 -235 45q-21 -11 -41.5 -35.5t-20.5 -58.5q0 -28 15 -48.5t45.5 -32.5t58.5 -19.5t74 -10.5t71.5 -3.5t69.5 -0.5q216 0 319 -57.5t103 -200.5q0 -74 -30 -130t-75.5 -88t-109.5 -52
t-120.5 -26.5t-119.5 -6.5q-83 0 -159 14t-146.5 45t-113 90.5t-42.5 141.5q0 69 31 119t96 92q-98 64 -98 163q0 98 98 172q-48 41 -70 106.5t-22 135.5q0 162 113 258t299 96q66 0 131 -20h356zM553 954q-117 0 -185.5 -62t-68.5 -165q0 -101 67 -162t187 -61
q119 0 184.5 59.5t65.5 161.5q0 105 -67 167t-183 62zM641 84q-111 0 -163 3t-120 15q-40 -23 -68 -62t-28 -89q0 -47 27 -81.5t72.5 -53t94.5 -27t103 -8.5t103 8.5t95 26.5t73.5 53.5t27.5 83.5q0 66 -53 97.5t-164 33.5z" />
    <glyph glyph-name="h" unicode="h" horiz-adv-x="1236" 
d="M162 1499h170v-596q16 28 43 56t69 58t105 49t135 19q185 0 294 -115.5t109 -338.5v-631h-169v627q0 138 -72 217.5t-199 79.5q-62 0 -115 -20t-89 -53t-61.5 -76.5t-37.5 -89.5t-12 -93v-592h-170v1499z" />
    <glyph glyph-name="i" unicode="i" horiz-adv-x="516" 
d="M78 1065h280v-1065h-170v913l-110 33v119zM252 1462q46 0 80.5 -33t34.5 -77q0 -47 -34.5 -81t-80.5 -34q-47 0 -79 33.5t-32 79.5t32 79t79 33z" />
    <glyph glyph-name="j" unicode="j" horiz-adv-x="524" 
d="M96 -348l-57 112q17 7 39 22.5t50.5 41.5t47.5 65.5t19 83.5v936l-119 33v119h289v-1004q0 -81 -21 -149.5t-50.5 -111t-69.5 -75.5t-69.5 -48.5t-58.5 -24.5zM248 1462q46 0 80 -33t34 -77q0 -47 -34 -81t-80 -34q-47 0 -79 33.5t-32 79.5t32 79t79 33z" />
    <glyph glyph-name="k" unicode="k" horiz-adv-x="1036" 
d="M160 1499h170v-682l-6 -315l235 301l221 262h215l-432 -496l426 -569h-194l-330 446l-135 -149v-297h-170v1499z" />
    <glyph glyph-name="l" unicode="l" horiz-adv-x="540" 
d="M164 1499h170v-1298q0 -49 51 -49q7 0 82 6v-135q-14 -6 -62 -14.5t-86 -8.5q-44 0 -76 15.5t-48 42t-23.5 53.5t-7.5 57v1331z" />
    <glyph glyph-name="m" unicode="m" horiz-adv-x="1843" 
d="M162 1065h129l28 -172q25 63 80 108t115.5 64.5t120.5 19.5q118 0 205.5 -60.5t122.5 -156.5q36 89 133.5 153t201.5 64q196 0 295 -105.5t99 -305.5v-674h-170v678q0 115 -63 180.5t-179 65.5q-120 0 -195 -83t-75 -206v-635h-168v686q0 108 -67 173t-175 65
q-119 0 -193.5 -83.5t-74.5 -203.5v-637h-170v1065z" />
    <glyph glyph-name="n" unicode="n" horiz-adv-x="1239" 
d="M162 1065h129l28 -184q7 18 23 40.5t47.5 52.5t71 54t98.5 40.5t125 16.5q185 0 294 -115.5t109 -338.5v-631h-169v627q0 138 -72 217.5t-199 79.5q-62 0 -115 -20t-89 -53t-61.5 -76.5t-37.5 -89.5t-12 -93v-592h-170v1065z" />
    <glyph glyph-name="o" unicode="o" horiz-adv-x="1288" 
d="M96 532q0 154 73 281t198.5 199.5t275.5 72.5q151 0 277 -72t200 -199t74 -282q0 -115 -43.5 -218t-117.5 -176t-175.5 -115.5t-214.5 -42.5q-149 0 -274.5 72t-199 199.5t-73.5 280.5zM643 936q-159 0 -267 -117t-108 -287q0 -168 108 -285.5t267 -117.5t268 117.5
t109 285.5q0 170 -108.5 287t-268.5 117z" />
    <glyph glyph-name="p" unicode="p" horiz-adv-x="1316" 
d="M682 936q-154 0 -260.5 -121t-106.5 -285q0 -106 47 -198t132 -147.5t188 -55.5q154 0 259.5 117t105.5 286q0 171 -106.5 287.5t-258.5 116.5zM719 1085q110 0 205 -46t159 -123t100 -176.5t36 -207.5t-36 -207.5t-100 -176t-159.5 -122.5t-206.5 -46
q-126 0 -232.5 55.5t-154.5 140.5v-524h-170v1413h133l24 -195q63 104 171 159.5t231 55.5z" />
    <glyph glyph-name="q" unicode="q" horiz-adv-x="1298" 
d="M616 936q-152 0 -258 -116.5t-106 -287.5q0 -169 105.5 -286t258.5 -117q156 0 261.5 119t105.5 284q0 105 -47.5 197.5t-132.5 149.5t-187 57zM588 1085q113 0 222.5 -55.5t170.5 -159.5l25 195h133v-1413h-170v524q-50 -88 -158 -142t-223 -54t-212 46t-161 122.5
t-99.5 176t-35.5 207.5q0 145 60 270t178 204t270 79z" />
    <glyph glyph-name="r" unicode="r" horiz-adv-x="729" 
d="M160 1059h129l24 -189q101 195 355 195v-168q-72 0 -132 -17.5t-108 -54t-75 -99t-27 -146.5v-580h-166v1059z" />
    <glyph glyph-name="s" unicode="s" horiz-adv-x="968" 
d="M479 -20q-192 0 -383 90l54 127q158 -74 323 -74q125 0 188.5 43.5t63.5 116.5q0 44 -26.5 77t-70.5 52t-99.5 37t-114 32t-114 39t-99.5 56t-70.5 84t-26.5 122q0 138 102.5 220.5t280.5 82.5q102 0 199 -23.5t154 -51.5l-54 -127q-16 7 -43.5 16.5t-103.5 26t-141 16.5
q-109 0 -172.5 -42t-63.5 -114q0 -50 34.5 -84.5t89.5 -55t121 -38.5t132.5 -41.5t121.5 -55.5t89.5 -89.5t34.5 -136.5q0 -141 -109 -223t-297 -82z" />
    <glyph glyph-name="t" unicode="t" horiz-adv-x="731" 
d="M246 1372h141v-307h266v-129h-266v-594q0 -97 36.5 -148t121.5 -51q43 0 135 15l27 -121q-94 -37 -189 -37q-164 0 -231.5 87t-67.5 269v580h-156v104l156 23z" />
    <glyph glyph-name="u" unicode="u" horiz-adv-x="1236" 
d="M152 1065h170v-627q0 -144 69 -220.5t223 -76.5q120 0 205.5 84.5t85.5 208.5v631h170v-1065h-129l-22 168q-47 -87 -140.5 -137.5t-203.5 -50.5q-214 0 -321 114.5t-107 329.5v641z" />
    <glyph glyph-name="v" unicode="v" horiz-adv-x="1011" 
d="M33 1065h174l295 -875h4l301 875h174l-395 -1065h-166z" />
    <glyph glyph-name="w" unicode="w" horiz-adv-x="1638" 
d="M37 1065h178l260 -860h6l252 860h172l252 -860h6l258 860h178l-348 -1065h-178l-252 858l-254 -858h-180z" />
    <glyph glyph-name="x" unicode="x" horiz-adv-x="1093" 
d="M53 1065h197l297 -420l301 420h190l-385 -530l398 -535h-195l-305 426l-309 -426h-195l397 535z" />
    <glyph glyph-name="y" unicode="y" horiz-adv-x="1077" 
d="M29 1065h176l330 -883h6l329 883h179l-443 -1108q-29 -70 -54 -117.5t-62.5 -94t-87 -70t-111.5 -23.5q-98 0 -193 33l33 153q86 -25 152 -22q27 0 50 12t39 28.5t32 44t25.5 49.5t21.5 54z" />
    <glyph glyph-name="z" unicode="z" horiz-adv-x="1052" 
d="M104 1065h861v-129l-682 -799q2 -4 2 -6l262 6h418v-137h-887v127l698 797v4l-366 -4h-306v141z" />
    <glyph glyph-name="braceleft" unicode="{" horiz-adv-x="659" 
d="M242 557q62 -14 87 -54t25 -108v-458q0 -79 34.5 -118.5t115.5 -39.5h80v-129h-80q-84 0 -141 20t-88.5 60t-45 90t-14.5 119v436q0 70 -38 96.5t-99 28.5v114q61 2 99 27.5t38 95.5v437q1 69 14.5 119t45 89.5t88.5 59.5t141 20h80v-129h-80q-82 0 -116 -39t-34 -118
v-459q0 -68 -25 -107.5t-87 -52.5z" />
    <glyph glyph-name="bar" unicode="|" horiz-adv-x="477" 
d="M168 1626h139v-1935h-139v1935z" />
    <glyph glyph-name="braceright" unicode="}" horiz-adv-x="659" 
d="M416 557q-61 13 -85 52t-24 108v459q0 78 -35 117.5t-116 39.5h-82v129h82q84 0 141 -20t88.5 -59.5t44.5 -89.5t14 -119v-437q0 -70 37.5 -95.5t100.5 -27.5v-114q-40 -1 -67.5 -9.5t-49 -37.5t-21.5 -78v-436q-1 -69 -14 -119t-44.5 -90t-88.5 -60t-141 -20h-82v129h82
q80 0 115.5 40t35.5 118v458q0 69 24 108.5t85 53.5z" />
    <glyph glyph-name="exclamdown" unicode="&#xa1;" horiz-adv-x="530" 
d="M367 -20h-203l35 1032h133zM268 1225q-47 0 -79.5 31.5t-32.5 78.5t32 78t80 31q49 0 80 -31.5t31 -77.5q0 -47 -32 -78.5t-79 -31.5z" />
    <glyph glyph-name="cent" unicode="&#xa2;" horiz-adv-x="1177" 
d="M731 -197h-96v179q-213 19 -357.5 177t-144.5 373q0 210 144 369.5t358 181.5v174h96v-172q157 -12 287 -75l-60 -127l-15 6q-15 6 -38 13.5t-52.5 15.5t-68.5 13t-77 5q-93 0 -171.5 -37t-127.5 -96.5t-76 -130.5t-27 -142q0 -74 28 -145t78 -128.5t127 -92.5t167 -35
q121 0 253 53l54 -127q-45 -28 -123.5 -48t-157.5 -25v-179z" />
    <glyph glyph-name="sterling" unicode="&#xa3;" horiz-adv-x="1157" 
d="M1001 1290l-112 -114q-84 108 -215 108q-115 0 -190.5 -77t-75.5 -189v-283h479v-102h-479v-187q0 -17 -1 -33.5t-4.5 -34t-5.5 -28.5t-7.5 -29.5t-7 -23.5t-8.5 -24.5t-7 -20.5q-4 -35 -19.5 -62.5t-29.5 -37.5l-13 -11h731v-141h-907v141q5 2 12 7t26.5 23t34 39.5
t26.5 57.5t12 76v289h-109v102h109v275q0 86 30.5 166.5t84 142t133 98.5t171.5 37q106 0 193 -45t149 -119z" />
    <glyph glyph-name="yen" unicode="&#xa5;" horiz-adv-x="1363" 
d="M90 1434h193l258 -430l141 -248h4l145 248l256 430h191l-510 -850v-54h256v-98h-256v-88h256v-98h-256v-246h-166v246h-280v98h280v88h-280v98h280v54z" />
    <glyph glyph-name="section" unicode="&#xa7;" horiz-adv-x="1241" 
d="M1010 1329l-80 -131q-61 36 -145 56t-160 20q-52 0 -104 -9.5t-99.5 -29.5t-77 -55t-29.5 -80q0 -39 23.5 -70.5t73 -57.5t110.5 -46.5t150 -42.5q189 -52 271 -93q179 -89 179 -239q0 -62 -30 -114t-80 -86t-103 -56t-110 -33q297 -106 297 -293q0 -57 -21.5 -105
t-59.5 -82t-87 -59.5t-106 -40.5t-114 -22.5t-114 -7.5q-111 0 -220.5 29t-183.5 77l82 133q64 -37 154 -58t180 -21q49 0 99.5 8t102.5 25.5t85 53t33 83.5q0 26 -11 49t-27.5 40.5t-47 34.5t-56 28.5t-69 25t-73 21t-79.5 20.5q-57 15 -96.5 28t-97 34.5t-96.5 47
t-76.5 59t-56.5 77t-19 94.5q0 78 48 138t117 92t152 44q-291 98 -291 293q0 57 22 106t60 83.5t86 61.5t103.5 43t109 24t105.5 8q94 0 195 -28.5t182 -76.5zM627 725q-83 0 -155.5 -17.5t-124 -59.5t-52.5 -101q0 -83 91 -134t214 -53q49 0 104 9t113 28.5t95.5 58
t37.5 89.5q0 84 -95.5 131t-227.5 49z" />
    <glyph glyph-name="dieresis" unicode="&#xa8;" horiz-adv-x="911" 
d="M365 1321q0 -42 -29.5 -70t-79.5 -28q-43 0 -71.5 28.5t-28.5 69.5q0 44 30 74t70 30q50 0 79.5 -29t29.5 -75zM780 1321q0 -42 -29.5 -70t-78.5 -28q-43 0 -73 28.5t-30 69.5q0 43 31 73.5t72 30.5q49 0 78.5 -29t29.5 -75z" />
    <glyph glyph-name="copyright" unicode="&#xa9;" horiz-adv-x="1685" 
d="M1096 985l-66 -90q-79 55 -172 55q-100 0 -171 -71t-71 -170t70.5 -170.5t169.5 -71.5q92 0 174 57l64 -92q-92 -92 -238 -92q-154 0 -262.5 108t-108.5 263q0 153 109 261.5t262 108.5q133 0 240 -96zM842 1434q145 0 278 -57t229 -153t153 -229t57 -278t-57 -277.5
t-153.5 -229t-229 -153.5t-277.5 -57q-144 0 -276.5 57t-229 153.5t-154 229t-57.5 277.5t57 278t153.5 229t229 153t277.5 57zM842 1352q-170 0 -316 -85.5t-231.5 -232t-85.5 -317.5q0 -129 50.5 -246.5t135.5 -202.5t202 -135.5t245 -50.5q129 0 246.5 50.5t202.5 135.5
t135.5 202.5t50.5 246.5q0 128 -50.5 245.5t-136 203t-203 136t-245.5 50.5z" />
    <glyph glyph-name="ordfeminine" unicode="&#xaa;" horiz-adv-x="1009" 
d="M240 1454q133 45 239 45q289 0 289 -262v-363q0 -19 9.5 -25.5t29.5 -6.5q11 0 47 6v-94q-37 -25 -90 -25q-43 0 -70.5 25t-27.5 59v41q-26 -54 -91.5 -90.5t-152.5 -36.5q-109 0 -187.5 65t-78.5 179q1 61 26 104.5t69.5 67.5t96 34.5t113.5 10.5q37 0 83.5 -8t74.5 -16
l28 -7v49q-1 45 -9 75.5t-28.5 55.5t-60 37t-100.5 12q-73 0 -185 -30zM647 1073q-108 31 -174 31q-201 0 -201 -133q0 -63 50 -101.5t116 -38.5q85 0 146.5 52.5t62.5 132.5v57zM154 618h704v-108h-704v108z" />
    <glyph glyph-name="guillemotleft" unicode="&#xab;" horiz-adv-x="1187" 
d="M987 1020l88 -88l-317 -400l315 -401l-86 -86l-422 471v33zM524 1020l86 -88l-317 -400l315 -401l-84 -86l-424 471v33z" />
    <glyph glyph-name="registered" unicode="&#xae;" horiz-adv-x="1228" 
d="M614 1434q190 0 324.5 -135t134.5 -326q0 -92 -36.5 -177t-98 -146.5t-146.5 -98.5t-178 -37q-190 0 -324 135t-134 324q0 191 134 326t324 135zM614 1364q-161 0 -275 -115.5t-114 -275.5q0 -162 113.5 -275.5t275.5 -113.5q157 0 273.5 113.5t116.5 275.5
q0 160 -115 275.5t-275 115.5zM449 1217h206q57 0 98.5 -42.5t41.5 -99.5q0 -44 -28 -80.5t-71 -48.5l119 -207h-72l-114 199h-117v-199h-63v478zM512 1153v-152h143q31 0 53.5 22.5t22.5 51.5q0 38 -27 58t-65 20h-127z" />
    <glyph glyph-name="macron" unicode="&#xaf;" horiz-adv-x="911" 
d="M133 1335h615v-108h-615v108z" />
    <glyph glyph-name="degree" unicode="&#xb0;" horiz-adv-x="624" 
d="M109 1255q0 86 62 142.5t140 56.5q81 0 142 -55.5t61 -141.5q0 -88 -61 -144t-142 -56q-79 0 -140.5 56t-61.5 142zM186 1255q0 -52 38.5 -85t86.5 -33q50 0 88.5 32.5t38.5 85.5q0 52 -38.5 84.5t-88.5 32.5q-48 0 -86.5 -34t-38.5 -83z" />
    <glyph glyph-name="plusminus" unicode="&#xb1;" horiz-adv-x="1032" 
d="M459 1075h116v-278h302v-113h-302v-278h-116v278h-303v113h303v278zM158 258h719v-115h-719v115z" />
    <glyph glyph-name="acute" unicode="&#xb4;" horiz-adv-x="552" 
d="M279 1540l141 -78l-182 -256h-95z" />
    <glyph glyph-name="paragraph" unicode="&#xb6;" horiz-adv-x="1138" 
d="M924 -174h-131v1479h-134v-1479h-131v770h-53q-89 1 -160.5 36.5t-116 95t-68.5 134.5t-24 158q0 100 35.5 181.5t93 131t126 75.5t139.5 26h424v-1608z" />
    <glyph glyph-name="periodcentered" unicode="&#xb7;" horiz-adv-x="540" 
d="M268 752q58 0 99 -40.5t41 -97.5t-41 -97t-99 -40q-54 0 -94.5 40.5t-40.5 96.5q0 57 40.5 97.5t94.5 40.5z" />
    <glyph glyph-name="cedilla" unicode="&#xb8;" horiz-adv-x="667" 
d="M254 -137l51 117h51l-20 -101q21 6 47 6q65 0 104 -37t39 -100q0 -77 -55.5 -122.5t-134.5 -45.5q-73 0 -143 43l22 66q62 -21 104 -21q44 0 74.5 21.5t30.5 60.5q0 35 -26 56.5t-72 21.5q-19 0 -35 -4z" />
    <glyph glyph-name="ordmasculine" unicode="&#xba;" horiz-adv-x="1140" 
d="M555 723q-175 0 -289 112t-114 275v4q0 162 116.5 275.5t292.5 113.5q177 0 291.5 -111.5t114.5 -275.5v-6q0 -160 -117.5 -273.5t-294.5 -113.5zM152 508v110h815v-110h-815zM563 848q114 0 188 77t74 185v4q0 109 -77 186.5t-193 77.5q-114 0 -188 -77t-74 -185v-6
q0 -108 77 -185t193 -77z" />
    <glyph glyph-name="guillemotright" unicode="&#xbb;" horiz-adv-x="1187" 
d="M578 932l88 88l424 -471v-33l-424 -471l-86 86l315 401zM113 932l86 88l424 -471v-33l-424 -471l-84 86l315 401z" />
    <glyph glyph-name="questiondown" unicode="&#xbf;" horiz-adv-x="1015" 
d="M553 -43q-115 0 -211 39.5t-157.5 123t-61.5 197.5q0 62 21 114.5t55 89t75 69t82.5 62.5t75.5 61.5t55 73t21 90.5v139h139v-150q0 -60 -20 -110.5t-51.5 -85.5t-70 -66.5t-77 -60.5t-70 -59.5t-51.5 -72t-20 -89.5q0 -101 79.5 -160.5t190.5 -59.5q66 0 146.5 25
t134.5 59l75 -114q-69 -51 -168 -83t-192 -32zM573 1229q-47 0 -78.5 31.5t-31.5 78.5t30.5 78t79.5 31q47 0 80 -31.5t33 -77.5q0 -47 -32.5 -78.5t-80.5 -31.5z" />
    <glyph glyph-name="Agrave" unicode="&#xc0;" horiz-adv-x="1331" 
d="M426 1782l141 80l138 -336h-95zM575 1454h181l549 -1454h-183l-141 391h-629l-141 -391h-182zM666 1276l-271 -746h541z" />
    <glyph glyph-name="Aacute" unicode="&#xc1;" horiz-adv-x="1331" 
d="M764 1862l141 -80l-182 -256h-94zM575 1454h181l549 -1454h-183l-141 391h-629l-141 -391h-182zM666 1276l-271 -746h541z" />
    <glyph glyph-name="Acircumflex" unicode="&#xc2;" horiz-adv-x="1331" 
d="M506 1526h-129l229 248h117l233 -248h-133l-155 143zM575 1454h181l549 -1454h-183l-141 391h-629l-141 -391h-182zM666 1276l-271 -746h541z" />
    <glyph glyph-name="Atilde" unicode="&#xc3;" horiz-adv-x="1331" 
d="M410 1542l-54 41q35 61 87.5 100t113.5 39q51 0 127 -40t127 -40q66 0 115 66l51 -39q-36 -63 -89 -101t-116 -38q-54 0 -127 39t-123 39q-55 0 -112 -66zM575 1454h181l549 -1454h-183l-141 391h-629l-141 -391h-182zM666 1276l-271 -746h541z" />
    <glyph glyph-name="Adieresis" unicode="&#xc4;" horiz-adv-x="1331" 
d="M565 1624q0 -42 -29.5 -70t-78.5 -28q-43 0 -73 28.5t-30 69.5q0 43 31 74t72 31q49 0 78.5 -29.5t29.5 -75.5zM979 1624q0 -42 -30 -70t-79 -28q-43 0 -72.5 28.5t-29.5 69.5q0 44 31 74.5t71 30.5q49 0 79 -29.5t30 -75.5zM575 1454h181l549 -1454h-183l-141 391h-629
l-141 -391h-182zM666 1276l-271 -746h541z" />
    <glyph glyph-name="Aring" unicode="&#xc5;" horiz-adv-x="1331" 
d="M485 1702q0 75 55 124.5t126 49.5t125.5 -49.5t54.5 -124.5t-54.5 -124.5t-125.5 -49.5t-126 49.5t-55 124.5zM666 1802q-44 0 -77.5 -28t-33.5 -72t33.5 -72t77.5 -28q43 0 76.5 28t33.5 72t-33.5 72t-76.5 28zM575 1454h181l549 -1454h-183l-141 391h-629l-141 -391
h-182zM666 1276l-271 -746h541z" />
    <glyph glyph-name="AE" unicode="&#xc6;" horiz-adv-x="1937" 
d="M1835 0h-934v391h-516l-178 -391h-189l680 1434h1108v-160h-733v-498h619v-155h-619v-461h762v-160zM901 1274h-125l-330 -744h455v744z" />
    <glyph glyph-name="Ccedilla" unicode="&#xc7;" horiz-adv-x="1380" 
d="M856 -20l-20 -101q21 6 45 6q66 0 105.5 -37t39.5 -98q0 -80 -55.5 -125t-136.5 -45q-78 0 -144 41l25 68q61 -21 106 -21q43 0 73 21t30 63q0 32 -26.5 54t-74.5 22q-16 0 -32 -4l-39 37l53 121q-144 10 -273 72t-222 159.5t-147 229t-54 274.5q0 150 58.5 286
t158.5 235t239 157.5t293 58.5q114 -1 231 -32t199 -76l-61 -129q-19 9 -52 22.5t-129 36t-184 22.5q-120 0 -226.5 -44.5t-182.5 -121.5t-120 -185t-44 -230t44 -230t120 -185t182.5 -122t226.5 -45q88 0 179.5 20.5t138.5 40.5l47 21l61 -129q-82 -45 -199.5 -76
t-232.5 -32z" />
    <glyph glyph-name="Egrave" unicode="&#xc8;" horiz-adv-x="1310" 
d="M195 1434h985v-160h-813v-498h698v-155h-698v-461h839v-160h-1011v1434zM479 1782l142 80l135 -336h-94z" />
    <glyph glyph-name="Eacute" unicode="&#xc9;" horiz-adv-x="1310" 
d="M195 1434h985v-160h-813v-498h698v-155h-698v-461h839v-160h-1011v1434zM725 1862l141 -80l-184 -256h-94z" />
    <glyph glyph-name="Ecircumflex" unicode="&#xca;" horiz-adv-x="1310" 
d="M195 1434h985v-160h-813v-498h698v-155h-698v-461h839v-160h-1011v1434zM512 1526h-129l229 248h117l234 -248h-134l-155 143z" />
    <glyph glyph-name="Edieresis" unicode="&#xcb;" horiz-adv-x="1310" 
d="M195 1434h985v-160h-813v-498h698v-155h-698v-461h839v-160h-1011v1434zM571 1624q0 -42 -29 -70t-79 -28q-43 0 -72 28.5t-29 69.5q0 44 30.5 74.5t70.5 30.5q50 0 79 -29t29 -76zM987 1624q0 -42 -29.5 -70t-78.5 -28q-43 0 -73 28.5t-30 69.5q0 43 31 74t72 31
q49 0 78.5 -29.5t29.5 -75.5z" />
    <glyph glyph-name="Igrave" unicode="&#xcc;" horiz-adv-x="561" 
d="M195 1434h172v-1434h-172v1434zM49 1782l141 80l138 -336h-95z" />
    <glyph glyph-name="Iacute" unicode="&#xcd;" horiz-adv-x="561" 
d="M195 1434h172v-1434h-172v1434zM377 1862l141 -80l-182 -256h-94z" />
    <glyph glyph-name="Icircumflex" unicode="&#xce;" horiz-adv-x="561" 
d="M195 1434h172v-1434h-172v1434zM121 1526h-129l229 248h117l233 -248h-133l-155 143z" />
    <glyph glyph-name="Idieresis" unicode="&#xcf;" horiz-adv-x="561" 
d="M195 1434h172v-1434h-172v1434zM178 1624q0 -42 -29 -70t-77 -28q-43 0 -73 28.5t-30 69.5q0 43 31 74t72 31q49 0 77.5 -29t28.5 -76zM594 1624q0 -42 -30 -70t-79 -28q-43 0 -72.5 28.5t-29.5 69.5q0 44 30.5 74.5t71.5 30.5q49 0 79 -29.5t30 -75.5z" />
    <glyph glyph-name="Eth" unicode="&#xd0;" horiz-adv-x="1464" 
d="M702 0h-489v674h-188v94h188v666h489q171 0 328 -91q164 -96 241 -261t77 -365q0 -96 -18 -185t-55.5 -171.5t-99.5 -152.5t-145 -118q-82 -47 -170 -68.5t-158 -21.5zM385 1272v-504h317v-94h-317v-512h289q144 0 280 76q116 67 170 193.5t54 287.5q0 347 -224 477
q-129 76 -280 76h-289z" />
    <glyph glyph-name="Ntilde" unicode="&#xd1;" horiz-adv-x="1499" 
d="M195 1434h178l452 -682l312 -484h4l-8 574v592h170v-1434h-179l-456 705l-306 471h-4l9 -469v-707h-172v1434zM510 1542l-53 41q36 63 90 101.5t117 37.5q43 0 121 -40t126 -40q70 0 113 66l53 -39q-34 -62 -88 -101.5t-115 -39.5q-42 0 -121 40t-130 40q-25 0 -48.5 -12
t-35.5 -23t-29 -31z" />
    <glyph glyph-name="Ograve" unicode="&#xd2;" horiz-adv-x="1685" 
d="M625 1782l141 80l135 -336h-94zM109 719q0 154 60 291.5t160 234t234.5 153t280.5 56.5q201 0 370 -98.5t266 -267.5t97 -369q0 -153 -59.5 -291t-158.5 -235.5t-234 -155t-281 -57.5q-150 0 -286 58t-234.5 156.5t-156.5 235.5t-58 289zM289 717q0 -122 42.5 -230
t116 -185t176.5 -122t220 -45t220 45t176 122t115 185t42 230q0 161 -72 294t-200 210t-285 77q-154 0 -280.5 -76t-198.5 -209t-72 -296z" />
    <glyph glyph-name="Oacute" unicode="&#xd3;" horiz-adv-x="1685" 
d="M948 1862l142 -80l-183 -256h-94zM109 719q0 154 60 291.5t160 234t234.5 153t280.5 56.5q201 0 370 -98.5t266 -267.5t97 -369q0 -153 -59.5 -291t-158.5 -235.5t-234 -155t-281 -57.5q-150 0 -286 58t-234.5 156.5t-156.5 235.5t-58 289zM289 717q0 -122 42.5 -230
t116 -185t176.5 -122t220 -45t220 45t176 122t115 185t42 230q0 161 -72 294t-200 210t-285 77q-154 0 -280.5 -76t-198.5 -209t-72 -296z" />
    <glyph glyph-name="Ocircumflex" unicode="&#xd4;" horiz-adv-x="1685" 
d="M686 1526h-129l229 248h117l236 -248h-133l-158 143zM109 719q0 154 60 291.5t160 234t234.5 153t280.5 56.5q201 0 370 -98.5t266 -267.5t97 -369q0 -153 -59.5 -291t-158.5 -235.5t-234 -155t-281 -57.5q-150 0 -286 58t-234.5 156.5t-156.5 235.5t-58 289zM289 717
q0 -122 42.5 -230t116 -185t176.5 -122t220 -45t220 45t176 122t115 185t42 230q0 161 -72 294t-200 210t-285 77q-154 0 -280.5 -76t-198.5 -209t-72 -296z" />
    <glyph glyph-name="Otilde" unicode="&#xd5;" horiz-adv-x="1695" 
d="M586 1542l-54 41q35 61 90.5 100t116.5 39q43 0 121.5 -40t126.5 -40q66 0 115 66l51 -39q-35 -63 -89.5 -101t-117.5 -38q-43 0 -120.5 39t-125.5 39q-25 0 -49 -11.5t-36 -23.5t-29 -31zM109 719q0 154 60 291.5t160 234t234.5 153t280.5 56.5q201 0 370 -98.5
t266 -267.5t97 -369q0 -153 -59.5 -291t-158.5 -235.5t-234 -155t-281 -57.5q-150 0 -286 58t-234.5 156.5t-156.5 235.5t-58 289zM289 717q0 -122 42.5 -230t116 -185t176.5 -122t220 -45t220 45t176 122t115 185t42 230q0 161 -72 294t-200 210t-285 77q-154 0 -280.5 -76
t-198.5 -209t-72 -296z" />
    <glyph glyph-name="Odieresis" unicode="&#xd6;" horiz-adv-x="1685" 
d="M745 1624q0 -42 -29.5 -70t-78.5 -28q-43 0 -72.5 28.5t-29.5 69.5q0 44 30.5 74.5t71.5 30.5q49 0 78.5 -29.5t29.5 -75.5zM1159 1624q0 -42 -29 -70t-79 -28q-43 0 -72 28.5t-29 69.5q0 44 30.5 74.5t70.5 30.5q50 0 79 -29t29 -76zM109 719q0 154 60 291.5t160 234
t234.5 153t280.5 56.5q201 0 370 -98.5t266 -267.5t97 -369q0 -153 -59.5 -291t-158.5 -235.5t-234 -155t-281 -57.5q-150 0 -286 58t-234.5 156.5t-156.5 235.5t-58 289zM289 717q0 -122 42.5 -230t116 -185t176.5 -122t220 -45t220 45t176 122t115 185t42 230
q0 161 -72 294t-200 210t-285 77q-154 0 -280.5 -76t-198.5 -209t-72 -296z" />
    <glyph glyph-name="multiply" unicode="&#xd7;" horiz-adv-x="911" 
d="M227 956l228 -225l229 230l74 -72l-230 -230l228 -225l-74 -76l-227 228l-226 -228l-73 76l225 225l-225 228z" />
    <glyph glyph-name="Oslash" unicode="&#xd8;" horiz-adv-x="1687" 
d="M1407 1495l-121 -188q135 -104 214 -258t79 -330q0 -153 -59.5 -291t-159.5 -235.5t-235 -155t-281 -57.5q-187 0 -357 90l-88 -136h-112l123 187q-141 103 -221 259t-80 339q0 154 60 291.5t160 234t234.5 153t280.5 56.5q192 0 364 -96l88 137h111zM289 717
q0 -140 55 -259.5t152 -197.5l624 963q-126 75 -280 75t-280.5 -76t-198.5 -209t-72 -296zM1397 717q0 135 -54 252t-149 196l-623 -962q121 -68 273 -68q117 0 220 45t176 122t115 185t42 230z" />
    <glyph glyph-name="Ugrave" unicode="&#xd9;" horiz-adv-x="1466" 
d="M547 1782l141 80l135 -336h-94zM1114 1434h172v-881q0 -253 -146 -403t-405 -150t-405 150t-146 403v881h172v-881q0 -182 102.5 -286.5t276.5 -104.5t276.5 104.5t102.5 286.5v881z" />
    <glyph glyph-name="Uacute" unicode="&#xda;" horiz-adv-x="1466" 
d="M754 1862l141 -80l-184 -256h-93zM1114 1434h172v-881q0 -253 -146 -403t-405 -150t-405 150t-146 403v881h172v-881q0 -182 102.5 -286.5t276.5 -104.5t276.5 104.5t102.5 286.5v881z" />
    <glyph glyph-name="Ucircumflex" unicode="&#xdb;" horiz-adv-x="1466" 
d="M573 1526h-129l228 248h119l233 -248h-133l-158 143zM1114 1434h172v-881q0 -253 -146 -403t-405 -150t-405 150t-146 403v881h172v-881q0 -182 102.5 -286.5t276.5 -104.5t276.5 104.5t102.5 286.5v881z" />
    <glyph glyph-name="Udieresis" unicode="&#xdc;" horiz-adv-x="1466" 
d="M1047 1624q0 -42 -30 -70t-79 -28q-43 0 -72.5 28.5t-29.5 69.5q0 44 31 74.5t71 30.5q49 0 79 -29.5t30 -75.5zM631 1624q0 -42 -29.5 -70t-77.5 -28q-44 0 -73 28t-29 70q0 44 30 74.5t72 30.5q49 0 78 -29.5t29 -75.5zM1114 1434h172v-881q0 -253 -146 -403t-405 -150
t-405 150t-146 403v881h172v-881q0 -182 102.5 -286.5t276.5 -104.5t276.5 104.5t102.5 286.5v881z" />
    <glyph glyph-name="Yacute" unicode="&#xdd;" horiz-adv-x="1210" 
d="M639 1862l141 -80l-184 -256h-94zM10 1434h191l401 -689h2l406 689h186l-504 -850v-584h-172v584z" />
    <glyph glyph-name="Thorn" unicode="&#xde;" horiz-adv-x="1290" 
d="M195 1434h172v-271h436q112 0 208.5 -61.5t152 -161t55.5 -209.5q0 -111 -55 -212t-150 -163.5t-205 -62.5h-442v-293h-172v1434zM367 1001v-546h436q99 0 171.5 84.5t72.5 189.5q0 122 -85 197t-206 75h-389z" />
    <glyph glyph-name="germandbls" unicode="&#xdf;" horiz-adv-x="1249" 
d="M594 1454q175 0 292.5 -106.5t117.5 -278.5q0 -56 -16.5 -101t-39.5 -75t-46 -58t-39.5 -63t-16.5 -76q0 -36 34 -71t82 -68.5t96 -72t82 -97.5t34 -129q0 -167 -111 -267t-283 -100q-140 0 -278 84l55 148q4 -2 30.5 -14t51 -22t64 -19t77.5 -9q98 0 161 53t63 148
q0 49 -24.5 90t-61 67.5t-79.5 56.5t-79.5 56.5t-61 67.5t-24.5 90q0 45 16 84.5t39 69t46.5 59t39.5 69t16 85.5q0 39 -12.5 77t-39 73t-75.5 57t-114 22q-50 0 -94 -16t-82.5 -51.5t-61 -100.5t-22.5 -153v-963h-170v1010q0 117 39.5 206t104.5 139t138.5 74.5t151.5 24.5
z" />
    <glyph glyph-name="agrave" unicode="&#xe0;" horiz-adv-x="1155" 
d="M383 1454l141 80l135 -336h-94zM174 1022q183 63 381 63q410 0 410 -346v-546q0 -46 57 -46q9 0 23 1t32 3t25 3v-131q-9 -5 -62 -14t-88 -9q-59 0 -96 31t-37 102v33q-50 -96 -143.5 -141t-210.5 -45q-172 0 -282.5 89.5t-110.5 256.5q1 82 36.5 145.5t98 102t142 58
t173.5 19.5q120 0 283 -28v94q0 66 -20 112t-59 70.5t-86.5 34.5t-111.5 10q-71 0 -163 -12t-156 -31zM805 487q-31 9 -107.5 20t-158.5 11q-312 0 -312 -192q0 -99 75.5 -154t178.5 -55q129 0 226.5 81.5t97.5 188.5v100z" />
    <glyph glyph-name="aacute" unicode="&#xe1;" horiz-adv-x="1155" 
d="M627 1534l141 -80l-182 -256h-94zM174 1022q183 63 381 63q410 0 410 -346v-546q0 -46 57 -46q9 0 23 1t32 3t25 3v-131q-9 -5 -62 -14t-88 -9q-59 0 -96 31t-37 102v33q-50 -96 -143.5 -141t-210.5 -45q-172 0 -282.5 89.5t-110.5 256.5q1 82 36.5 145.5t98 102t142 58
t173.5 19.5q120 0 283 -28v94q0 66 -20 112t-59 70.5t-86.5 34.5t-111.5 10q-71 0 -163 -12t-156 -31zM805 487q-31 9 -107.5 20t-158.5 11q-312 0 -312 -192q0 -99 75.5 -154t178.5 -55q129 0 226.5 81.5t97.5 188.5v100z" />
    <glyph glyph-name="acircumflex" unicode="&#xe2;" horiz-adv-x="1155" 
d="M412 1198h-129l229 248h117l235 -248h-133l-158 143zM174 1022q183 63 381 63q410 0 410 -346v-546q0 -46 57 -46q9 0 23 1t32 3t25 3v-131q-9 -5 -62 -14t-88 -9q-59 0 -96 31t-37 102v33q-50 -96 -143.5 -141t-210.5 -45q-172 0 -282.5 89.5t-110.5 256.5
q1 82 36.5 145.5t98 102t142 58t173.5 19.5q120 0 283 -28v94q0 66 -20 112t-59 70.5t-86.5 34.5t-111.5 10q-71 0 -163 -12t-156 -31zM805 487q-31 9 -107.5 20t-158.5 11q-312 0 -312 -192q0 -99 75.5 -154t178.5 -55q129 0 226.5 81.5t97.5 188.5v100z" />
    <glyph glyph-name="atilde" unicode="&#xe3;" horiz-adv-x="1155" 
d="M287 1214l-56 41q38 62 92 101t115 39q43 0 121 -40t127 -40q67 0 115 65l53 -39q-34 -62 -88 -101.5t-115 -39.5q-43 0 -121.5 40t-130.5 40q-25 0 -48.5 -12t-35 -23t-28.5 -31zM174 1022q183 63 381 63q410 0 410 -346v-546q0 -46 57 -46q9 0 23 1t32 3t25 3v-131
q-9 -5 -62 -14t-88 -9q-59 0 -96 31t-37 102v33q-50 -96 -143.5 -141t-210.5 -45q-172 0 -282.5 89.5t-110.5 256.5q1 82 36.5 145.5t98 102t142 58t173.5 19.5q120 0 283 -28v94q0 66 -20 112t-59 70.5t-86.5 34.5t-111.5 10q-71 0 -163 -12t-156 -31zM805 487
q-31 9 -107.5 20t-158.5 11q-312 0 -312 -192q0 -99 75.5 -154t178.5 -55q129 0 226.5 81.5t97.5 188.5v100z" />
    <glyph glyph-name="adieresis" unicode="&#xe4;" horiz-adv-x="1155" 
d="M457 1296q0 -42 -30 -70t-79 -28q-43 0 -72.5 28.5t-29.5 69.5q0 44 31 74.5t71 30.5q49 0 79 -29.5t30 -75.5zM870 1296q0 -42 -29 -70t-79 -28q-43 0 -71.5 28.5t-28.5 69.5q0 44 30 74.5t70 30.5q50 0 79 -29t29 -76zM174 1022q183 63 381 63q410 0 410 -346v-546
q0 -46 57 -46q9 0 23 1t32 3t25 3v-131q-9 -5 -62 -14t-88 -9q-59 0 -96 31t-37 102v33q-50 -96 -143.5 -141t-210.5 -45q-172 0 -282.5 89.5t-110.5 256.5q1 82 36.5 145.5t98 102t142 58t173.5 19.5q120 0 283 -28v94q0 66 -20 112t-59 70.5t-86.5 34.5t-111.5 10
q-71 0 -163 -12t-156 -31zM805 487q-31 9 -107.5 20t-158.5 11q-312 0 -312 -192q0 -99 75.5 -154t178.5 -55q129 0 226.5 81.5t97.5 188.5v100z" />
    <glyph glyph-name="aring" unicode="&#xe5;" horiz-adv-x="1155" 
d="M391 1372q0 75 54.5 124.5t125.5 49.5t126 -49.5t55 -124.5t-55 -124.5t-126 -49.5t-125.5 49.5t-54.5 124.5zM571 1473q-43 0 -76.5 -28.5t-33.5 -72.5t33.5 -72t76.5 -28q44 0 77.5 28t33.5 72t-34 72.5t-77 28.5zM174 1022q183 63 381 63q410 0 410 -346v-546
q0 -46 57 -46q9 0 23 1t32 3t25 3v-131q-9 -5 -62 -14t-88 -9q-59 0 -96 31t-37 102v33q-50 -96 -143.5 -141t-210.5 -45q-172 0 -282.5 89.5t-110.5 256.5q1 82 36.5 145.5t98 102t142 58t173.5 19.5q120 0 283 -28v94q0 66 -20 112t-59 70.5t-86.5 34.5t-111.5 10
q-71 0 -163 -12t-156 -31zM805 487q-31 9 -107.5 20t-158.5 11q-312 0 -312 -192q0 -99 75.5 -154t178.5 -55q129 0 226.5 81.5t97.5 188.5v100z" />
    <glyph glyph-name="ae" unicode="&#xe6;" horiz-adv-x="1869" 
d="M174 1022q183 63 381 63q281 0 369 -163q150 163 376 163q114 0 208.5 -45.5t154.5 -121t92.5 -171t32.5 -198.5q0 -23 -1.5 -44.5t-2.5 -31.5l-2 -10h-830q10 -151 117 -242.5t264 -91.5t322 72l57 -129q-75 -39 -176.5 -65.5t-206.5 -26.5q-145 0 -263 61t-192 168
q-86 -129 -184 -179t-225 -50q-172 0 -282.5 89.5t-110.5 256.5q1 82 36.5 145.5t98 102t142 58t173.5 19.5q107 0 260 -24q9 49 23 88v2q0 66 -20 112t-59 70.5t-86.5 34.5t-111.5 10q-71 0 -163 -12t-156 -31zM481 117q118 0 212.5 70t109.5 167q-21 64 -27 140
q-113 24 -237 24q-312 0 -312 -192q0 -99 75.5 -154t178.5 -55zM952 594h676q-2 66 -22 125.5t-57.5 109t-99 78.5t-138.5 29q-145 0 -245 -96.5t-114 -245.5z" />
    <glyph glyph-name="ccedilla" unicode="&#xe7;" horiz-adv-x="1054" 
d="M657 -20l-30 2l-21 -103q21 6 45 6q66 0 106 -37t40 -98q0 -80 -56 -125t-137 -45q-77 0 -143 41l24 68q61 -21 107 -21q43 0 72.5 21t29.5 63q0 32 -26.5 54t-73.5 22q-17 0 -33 -4l-39 37l53 125q-206 28 -343.5 184.5t-137.5 361.5q0 148 74 275t204 202.5t285 75.5
q169 0 322 -75l-59 -127l-16 6q-15 6 -37.5 13.5t-52.5 15.5t-69 13t-77 5q-94 0 -172 -36.5t-127 -96t-76 -130t-27 -141.5t27 -141.5t76 -129.5t127 -95.5t172 -36.5q38 0 77 5t69 13t52.5 15.5t37.5 13.5l16 6l59 -127q-153 -75 -322 -75z" />
    <glyph glyph-name="egrave" unicode="&#xe8;" horiz-adv-x="1189" 
d="M444 1454l142 80l135 -336h-94zM96 528q0 153 67 280.5t188 202t270 74.5q114 0 208 -45.5t154 -121t92.5 -171t32.5 -198.5q0 -23 -1.5 -44.5t-2.5 -31.5l-2 -10h-830q10 -151 117 -242.5t264 -91.5t322 72l57 -129q-75 -39 -176.5 -65.5t-206.5 -26.5q-159 0 -286 73
t-197 198.5t-70 276.5zM272 594h676q-2 66 -22 125.5t-57.5 109t-99 78.5t-138.5 29q-145 0 -245 -96.5t-114 -245.5z" />
    <glyph glyph-name="eacute" unicode="&#xe9;" horiz-adv-x="1189" 
d="M688 1534l141 -80l-182 -256h-94zM96 528q0 153 67 280.5t188 202t270 74.5q114 0 208 -45.5t154 -121t92.5 -171t32.5 -198.5q0 -23 -1.5 -44.5t-2.5 -31.5l-2 -10h-830q10 -151 117 -242.5t264 -91.5t322 72l57 -129q-75 -39 -176.5 -65.5t-206.5 -26.5q-159 0 -286 73
t-197 198.5t-70 276.5zM272 594h676q-2 66 -22 125.5t-57.5 109t-99 78.5t-138.5 29q-145 0 -245 -96.5t-114 -245.5z" />
    <glyph glyph-name="ecircumflex" unicode="&#xea;" horiz-adv-x="1189" 
d="M465 1200h-129l229 248h117l236 -248h-134l-157 141zM96 528q0 153 67 280.5t188 202t270 74.5q114 0 208 -45.5t154 -121t92.5 -171t32.5 -198.5q0 -23 -1.5 -44.5t-2.5 -31.5l-2 -10h-830q10 -151 117 -242.5t264 -91.5t322 72l57 -129q-75 -39 -176.5 -65.5
t-206.5 -26.5q-159 0 -286 73t-197 198.5t-70 276.5zM272 594h676q-2 66 -22 125.5t-57.5 109t-99 78.5t-138.5 29q-145 0 -245 -96.5t-114 -245.5z" />
    <glyph glyph-name="edieresis" unicode="&#xeb;" horiz-adv-x="1189" 
d="M934 1296q0 -42 -30 -70t-79 -28q-43 0 -72.5 28.5t-29.5 69.5q0 44 30.5 74.5t71.5 30.5q49 0 79 -29.5t30 -75.5zM518 1296q0 -42 -29 -70t-79 -28q-43 0 -72 28.5t-29 69.5q0 44 30.5 74.5t70.5 30.5q50 0 79 -29t29 -76zM96 528q0 153 67 280.5t188 202t270 74.5
q114 0 208 -45.5t154 -121t92.5 -171t32.5 -198.5q0 -23 -1.5 -44.5t-2.5 -31.5l-2 -10h-830q10 -151 117 -242.5t264 -91.5t322 72l57 -129q-75 -39 -176.5 -65.5t-206.5 -26.5q-159 0 -286 73t-197 198.5t-70 276.5zM272 594h676q-2 66 -22 125.5t-57.5 109t-99 78.5
t-138.5 29q-145 0 -245 -96.5t-114 -245.5z" />
    <glyph glyph-name="igrave" unicode="&#xec;" horiz-adv-x="516" 
d="M20 1454l142 80l135 -336h-94zM78 1065h280v-1065h-170v913l-110 33v119z" />
    <glyph glyph-name="iacute" unicode="&#xed;" horiz-adv-x="516" 
d="M319 1534l142 -80l-182 -256h-95zM78 1065h280v-1065h-170v913l-110 33v119z" />
    <glyph glyph-name="icircumflex" unicode="&#xee;" horiz-adv-x="516" 
d="M57 1198h-129l228 248h118l234 -248h-133l-158 143zM78 1065h280v-1065h-170v913l-110 33v119z" />
    <glyph glyph-name="idieresis" unicode="&#xef;" horiz-adv-x="516" 
d="M117 1296q0 -42 -30 -70t-79 -28q-43 0 -72.5 28.5t-29.5 69.5q0 44 31 74.5t71 30.5q49 0 79 -29.5t30 -75.5zM530 1296q0 -42 -29 -70t-79 -28q-43 0 -71.5 28.5t-28.5 69.5q0 44 30 74.5t70 30.5q50 0 79 -29t29 -76zM78 1065h280v-1065h-170v913l-110 33v119z" />
    <glyph glyph-name="eth" unicode="&#xf0;" horiz-adv-x="1165" 
d="M444 1479l7 2q159 -58 282 -154l182 123l43 -66l-165 -112q97 -92 159.5 -219t85.5 -241.5t23 -229.5q0 -280 -129 -431t-352 -151q-208 0 -337.5 133.5t-129.5 337.5q0 105 37 193.5t99.5 146t142.5 89.5t167 32q103 0 193 -39.5t135 -114.5q-9 119 -59 229.5
t-138 194.5q-31 -20 -97 -64t-97 -63l-43 66l180 116q-115 91 -232 142zM580 795q-97 0 -171 -46.5t-110.5 -119.5t-36.5 -158q0 -132 86 -226.5t227 -94.5t229.5 96.5t88.5 232.5q0 137 -87 226.5t-226 89.5z" />
    <glyph glyph-name="ntilde" unicode="&#xf1;" horiz-adv-x="1239" 
d="M383 1214l-53 41q36 62 89.5 101t115.5 39q44 0 122 -40t127 -40q71 0 113 65l53 -39q-34 -63 -87.5 -102t-114.5 -39q-42 0 -121 40t-131 40q-25 0 -48.5 -12t-35.5 -23t-29 -31zM162 1065h129l28 -184q7 18 23 40.5t47.5 52.5t71 54t98.5 40.5t125 16.5
q185 0 294 -115.5t109 -338.5v-631h-169v627q0 138 -72 217.5t-199 79.5q-62 0 -115 -20t-89 -53t-61.5 -76.5t-37.5 -89.5t-12 -93v-592h-170v1065z" />
    <glyph glyph-name="ograve" unicode="&#xf2;" horiz-adv-x="1288" 
d="M408 1454l141 80l135 -336h-94zM96 532q0 154 73 281t198.5 199.5t275.5 72.5q151 0 277 -72t200 -199t74 -282q0 -115 -43.5 -218t-117.5 -176t-175.5 -115.5t-214.5 -42.5q-149 0 -274.5 72t-199 199.5t-73.5 280.5zM643 936q-159 0 -267 -117t-108 -287
q0 -168 108 -285.5t267 -117.5t268 117.5t109 285.5q0 170 -108.5 287t-268.5 117z" />
    <glyph glyph-name="oacute" unicode="&#xf3;" horiz-adv-x="1288" 
d="M690 1534l141 -80l-184 -256h-94zM96 532q0 154 73 281t198.5 199.5t275.5 72.5q151 0 277 -72t200 -199t74 -282q0 -115 -43.5 -218t-117.5 -176t-175.5 -115.5t-214.5 -42.5q-149 0 -274.5 72t-199 199.5t-73.5 280.5zM643 936q-159 0 -267 -117t-108 -287
q0 -168 108 -285.5t267 -117.5t268 117.5t109 285.5q0 170 -108.5 287t-268.5 117z" />
    <glyph glyph-name="ocircumflex" unicode="&#xf4;" horiz-adv-x="1288" 
d="M483 1198h-129l230 248h116l236 -248h-133l-158 143zM96 532q0 154 73 281t198.5 199.5t275.5 72.5q151 0 277 -72t200 -199t74 -282q0 -115 -43.5 -218t-117.5 -176t-175.5 -115.5t-214.5 -42.5q-149 0 -274.5 72t-199 199.5t-73.5 280.5zM643 936q-159 0 -267 -117
t-108 -287q0 -168 108 -285.5t267 -117.5t268 117.5t109 285.5q0 170 -108.5 287t-268.5 117z" />
    <glyph glyph-name="otilde" unicode="&#xf5;" horiz-adv-x="1288" 
d="M387 1214l-53 41q36 62 90.5 101t114.5 39q44 0 122 -40t127 -40q67 0 115 65l53 -39q-35 -63 -89 -102t-115 -39q-44 0 -122.5 40t-127.5 40q-58 0 -115 -66zM96 532q0 154 73 281t198.5 199.5t275.5 72.5q151 0 277 -72t200 -199t74 -282q0 -115 -43.5 -218
t-117.5 -176t-175.5 -115.5t-214.5 -42.5q-149 0 -274.5 72t-199 199.5t-73.5 280.5zM643 936q-159 0 -267 -117t-108 -287q0 -168 108 -285.5t267 -117.5t268 117.5t109 285.5q0 170 -108.5 287t-268.5 117z" />
    <glyph glyph-name="odieresis" unicode="&#xf6;" horiz-adv-x="1288" 
d="M543 1296q0 -42 -30 -70t-79 -28q-43 0 -72.5 28.5t-29.5 69.5q0 44 31 74.5t71 30.5q49 0 79 -29.5t30 -75.5zM956 1296q0 -42 -29 -70t-79 -28q-43 0 -71.5 28.5t-28.5 69.5q0 44 30 74.5t70 30.5q50 0 79 -29t29 -76zM96 532q0 154 73 281t198.5 199.5t275.5 72.5
q151 0 277 -72t200 -199t74 -282q0 -115 -43.5 -218t-117.5 -176t-175.5 -115.5t-214.5 -42.5q-149 0 -274.5 72t-199 199.5t-73.5 280.5zM643 936q-159 0 -267 -117t-108 -287q0 -168 108 -285.5t267 -117.5t268 117.5t109 285.5q0 170 -108.5 287t-268.5 117z" />
    <glyph glyph-name="divide" unicode="&#xf7;" horiz-adv-x="1179" 
d="M590 1100q43 0 73.5 -30.5t30.5 -74.5t-30.5 -75t-73.5 -31t-74 30.5t-31 75.5q0 44 31 74.5t74 30.5zM150 717h878v-117h-878v117zM590 426q43 0 73.5 -30.5t30.5 -73.5t-30.5 -74t-73.5 -31t-74 30t-31 75q0 44 31 74t74 30z" />
    <glyph glyph-name="oslash" unicode="&#xf8;" horiz-adv-x="1288" 
d="M96 532q0 154 73 281t198.5 199.5t275.5 72.5q144 0 266 -67l84 129h90l-110 -170q103 -75 162 -191.5t59 -253.5q0 -115 -43.5 -218t-117.5 -176t-175.5 -115.5t-214.5 -42.5q-148 0 -268 69l-78 -121h-90l104 162q-100 77 -157.5 192t-57.5 250zM1020 532q0 92 -35 173
t-98 137l-428 -664q84 -49 184 -49q159 0 268 117.5t109 285.5zM643 936q-159 0 -267 -117t-108 -287q0 -91 34 -171t95 -136l428 662q-84 49 -182 49z" />
    <glyph glyph-name="ugrave" unicode="&#xf9;" horiz-adv-x="1236" 
d="M401 1454l142 80l135 -336h-94zM152 1065h170v-627q0 -144 69 -220.5t223 -76.5q120 0 205.5 84.5t85.5 208.5v631h170v-1065h-129l-22 168q-47 -87 -140.5 -137.5t-203.5 -50.5q-214 0 -321 114.5t-107 329.5v641z" />
    <glyph glyph-name="uacute" unicode="&#xfa;" horiz-adv-x="1236" 
d="M668 1534l141 -80l-182 -256h-95zM152 1065h170v-627q0 -144 69 -220.5t223 -76.5q120 0 205.5 84.5t85.5 208.5v631h170v-1065h-129l-22 168q-47 -87 -140.5 -137.5t-203.5 -50.5q-214 0 -321 114.5t-107 329.5v641z" />
    <glyph glyph-name="ucircumflex" unicode="&#xfb;" horiz-adv-x="1236" 
d="M463 1198h-129l227 248h119l233 -248h-133l-157 143zM152 1065h170v-627q0 -144 69 -220.5t223 -76.5q120 0 205.5 84.5t85.5 208.5v631h170v-1065h-129l-22 168q-47 -87 -140.5 -137.5t-203.5 -50.5q-214 0 -321 114.5t-107 329.5v641z" />
    <glyph glyph-name="udieresis" unicode="&#xfc;" horiz-adv-x="1236" 
d="M504 1296q0 -42 -30 -70t-79 -28q-43 0 -72.5 28.5t-29.5 69.5q0 44 30.5 74.5t71.5 30.5q49 0 79 -29.5t30 -75.5zM918 1296q0 -42 -29.5 -70t-79.5 -28q-43 0 -71.5 28.5t-28.5 69.5q0 44 30 74.5t70 30.5q50 0 79.5 -29t29.5 -76zM152 1065h170v-627q0 -144 69 -220.5
t223 -76.5q120 0 205.5 84.5t85.5 208.5v631h170v-1065h-129l-22 168q-47 -87 -140.5 -137.5t-203.5 -50.5q-214 0 -321 114.5t-107 329.5v641z" />
    <glyph glyph-name="yacute" unicode="&#xfd;" horiz-adv-x="1077" 
d="M29 1065h176l330 -883h6l329 883h179l-443 -1108q-29 -70 -54 -117.5t-62.5 -94t-87 -70t-111.5 -23.5q-98 0 -193 33l33 153q86 -25 152 -22q27 0 50 12t39 28.5t32 44t25.5 49.5t21.5 54zM578 1534l141 -80l-182 -256h-95z" />
    <glyph glyph-name="thorn" unicode="&#xfe;" horiz-adv-x="1298" 
d="M682 936q-102 0 -187 -57t-132.5 -149.5t-47.5 -197.5q0 -165 105.5 -284t261.5 -119q154 0 259.5 117t105.5 286q0 171 -106.5 287.5t-258.5 116.5zM711 1085q152 0 270 -79t178 -204t60 -270q0 -108 -35.5 -207.5t-99.5 -176t-161 -122.5t-212 -46t-223 54t-158 142
v-524h-170v1782h157v-564q61 103 171 159t223 56z" />
    <glyph glyph-name="ydieresis" unicode="&#xff;" horiz-adv-x="1077" 
d="M29 1065h176l330 -883h6l329 883h179l-443 -1108q-29 -70 -54 -117.5t-62.5 -94t-87 -70t-111.5 -23.5q-98 0 -193 33l33 153q86 -25 152 -22q27 0 50 12t39 28.5t32 44t25.5 49.5t21.5 54zM438 1296q0 -42 -29.5 -70t-78.5 -28q-43 0 -73 28.5t-30 69.5q0 43 31 74
t72 31q49 0 78.5 -29.5t29.5 -75.5zM852 1296q0 -42 -29.5 -70t-79.5 -28q-43 0 -71.5 28.5t-28.5 69.5q0 44 30 74.5t70 30.5q50 0 79.5 -29t29.5 -76z" />
    <glyph glyph-name="Amacron" unicode="&#x100;" horiz-adv-x="1331" 
d="M358 1634h617v-108h-617v108zM575 1454h181l549 -1454h-183l-141 391h-629l-141 -391h-182zM666 1276l-271 -746h541z" />
    <glyph glyph-name="amacron" unicode="&#x101;" horiz-adv-x="1155" 
d="M260 1307h614v-109h-614v109zM174 1022q183 63 381 63q410 0 410 -346v-546q0 -46 57 -46q9 0 23 1t32 3t25 3v-131q-9 -5 -62 -14t-88 -9q-59 0 -96 31t-37 102v33q-50 -96 -143.5 -141t-210.5 -45q-172 0 -282.5 89.5t-110.5 256.5q1 82 36.5 145.5t98 102t142 58
t173.5 19.5q120 0 283 -28v94q0 66 -20 112t-59 70.5t-86.5 34.5t-111.5 10q-71 0 -163 -12t-156 -31zM805 487q-31 9 -107.5 20t-158.5 11q-312 0 -312 -192q0 -99 75.5 -154t178.5 -55q129 0 226.5 81.5t97.5 188.5v100z" />
    <glyph glyph-name="Abreve" unicode="&#x102;" horiz-adv-x="1331" 
d="M408 1763h86q25 -68 61 -99.5t113 -31.5q75 0 111.5 31.5t60.5 99.5h86q-14 -119 -75.5 -178t-182.5 -59q-122 0 -183 59t-77 178zM575 1454h181l549 -1454h-183l-141 391h-629l-141 -391h-182zM666 1276l-271 -746h541z" />
    <glyph glyph-name="abreve" unicode="&#x103;" horiz-adv-x="1155" 
d="M303 1436h86q24 -67 61 -99t113 -32q75 0 112.5 31.5t59.5 99.5h88q-14 -119 -76 -178.5t-184 -59.5q-121 0 -183 59.5t-77 178.5zM174 1022q183 63 381 63q410 0 410 -346v-546q0 -46 57 -46q9 0 23 1t32 3t25 3v-131q-9 -5 -62 -14t-88 -9q-59 0 -96 31t-37 102v33
q-50 -96 -143.5 -141t-210.5 -45q-172 0 -282.5 89.5t-110.5 256.5q1 82 36.5 145.5t98 102t142 58t173.5 19.5q120 0 283 -28v94q0 66 -20 112t-59 70.5t-86.5 34.5t-111.5 10q-71 0 -163 -12t-156 -31zM805 487q-31 9 -107.5 20t-158.5 11q-312 0 -312 -192
q0 -99 75.5 -154t178.5 -55q129 0 226.5 81.5t97.5 188.5v100z" />
    <glyph glyph-name="Aogonek" unicode="&#x104;" horiz-adv-x="1331" 
d="M575 1454h181l549 -1454h-43q-22 -8 -42 -18.5t-44 -28.5t-39 -45.5t-15 -59.5q0 -84 88 -84q25 0 88 13l27 -80q-72 -35 -125 -35q-69 0 -118.5 45.5t-49.5 114.5q0 109 115 178h-25l-141 391h-629l-141 -391h-182zM666 1276l-271 -746h541z" />
    <glyph glyph-name="aogonek" unicode="&#x105;" horiz-adv-x="1155" 
d="M174 1022q183 63 381 63q410 0 410 -346v-546q0 -46 57 -46q9 0 23 1t32 3t25 3v-131q-8 -5 -53 -13.5t-80 -9.5q-138 -55 -138 -152q0 -84 89 -84q25 0 88 13l24 -80q-54 -32 -114 -35q-79 -3 -131 41.5t-52 118.5q0 65 39.5 114t108.5 76q-64 30 -64 121v33
q-50 -96 -143.5 -141t-210.5 -45q-172 0 -282.5 89.5t-110.5 256.5q1 82 36.5 145.5t98 102t142 58t173.5 19.5q120 0 283 -28v94q0 66 -20 112t-59 70.5t-86.5 34.5t-111.5 10q-71 0 -163 -12t-156 -31zM805 487q-31 9 -107.5 20t-158.5 11q-312 0 -312 -192
q0 -99 75.5 -154t178.5 -55q129 0 226.5 81.5t97.5 188.5v100z" />
    <glyph glyph-name="Cacute" unicode="&#x106;" horiz-adv-x="1378" 
d="M905 1862l142 -80l-185 -256h-94zM858 -20q-154 0 -293 58.5t-239 157.5t-158.5 235t-58.5 286t58.5 286t158.5 235t239 157.5t293 58.5q114 -1 231 -32t199 -76l-61 -129q-19 9 -52 22.5t-129 36t-184 22.5q-120 0 -226.5 -44.5t-182.5 -121.5t-120 -185t-44 -230
t44 -230t120 -185t182.5 -122t226.5 -45q88 0 179.5 20.5t138.5 40.5l47 21l61 -129q-82 -45 -199 -76t-231 -32z" />
    <glyph glyph-name="cacute" unicode="&#x107;" horiz-adv-x="1054" 
d="M694 1534l142 -80l-185 -256h-92zM657 -20q-155 0 -285 75.5t-204 202t-74 274.5t74 275t204 202.5t285 75.5q169 0 322 -75l-59 -127l-16 6q-15 6 -37.5 13.5t-52.5 15.5t-69 13t-77 5q-94 0 -172 -36.5t-127 -96t-76 -130t-27 -141.5t27 -141.5t76 -129.5t127 -95.5
t172 -36.5q38 0 77 5t69 13t52.5 15.5t37.5 13.5l16 6l59 -127q-153 -75 -322 -75z" />
    <glyph glyph-name="Ccircumflex" unicode="&#x108;" horiz-adv-x="1378" 
d="M686 1526h-127l227 248h119l234 -248h-133l-158 143zM858 -20q-154 0 -293 58.5t-239 157.5t-158.5 235t-58.5 286t58.5 286t158.5 235t239 157.5t293 58.5q114 -1 231 -32t199 -76l-61 -129q-19 9 -52 22.5t-129 36t-184 22.5q-120 0 -226.5 -44.5t-182.5 -121.5
t-120 -185t-44 -230t44 -230t120 -185t182.5 -122t226.5 -45q88 0 179.5 20.5t138.5 40.5l47 21l61 -129q-82 -45 -199 -76t-231 -32z" />
    <glyph glyph-name="ccircumflex" unicode="&#x109;" horiz-adv-x="1054" 
d="M485 1198h-129l230 248h116l234 -248h-133l-156 143zM657 -20q-155 0 -285 75.5t-204 202t-74 274.5t74 275t204 202.5t285 75.5q169 0 322 -75l-59 -127l-16 6q-15 6 -37.5 13.5t-52.5 15.5t-69 13t-77 5q-94 0 -172 -36.5t-127 -96t-76 -130t-27 -141.5t27 -141.5
t76 -129.5t127 -95.5t172 -36.5q38 0 77 5t69 13t52.5 15.5t37.5 13.5l16 6l59 -127q-153 -75 -322 -75z" />
    <glyph glyph-name="Cdotaccent" unicode="&#x10a;" horiz-adv-x="1378" 
d="M952 1622q0 -42 -28.5 -69t-75.5 -27q-43 0 -71.5 27.5t-28.5 68.5q0 42 30 71t70 29q47 0 75.5 -27.5t28.5 -72.5zM858 -20q-154 0 -293 58.5t-239 157.5t-158.5 235t-58.5 286t58.5 286t158.5 235t239 157.5t293 58.5q114 -1 231 -32t199 -76l-61 -129q-19 9 -52 22.5
t-129 36t-184 22.5q-120 0 -226.5 -44.5t-182.5 -121.5t-120 -185t-44 -230t44 -230t120 -185t182.5 -122t226.5 -45q88 0 179.5 20.5t138.5 40.5l47 21l61 -129q-82 -45 -199 -76t-231 -32z" />
    <glyph glyph-name="cdotaccent" unicode="&#x10b;" horiz-adv-x="1054" 
d="M762 1294q0 -42 -29 -69t-76 -27q-43 0 -71.5 27.5t-28.5 68.5q0 42 30 71.5t70 29.5q47 0 76 -28t29 -73zM657 -20q-155 0 -285 75.5t-204 202t-74 274.5t74 275t204 202.5t285 75.5q169 0 322 -75l-59 -127l-16 6q-15 6 -37.5 13.5t-52.5 15.5t-69 13t-77 5
q-94 0 -172 -36.5t-127 -96t-76 -130t-27 -141.5t27 -141.5t76 -129.5t127 -95.5t172 -36.5q38 0 77 5t69 13t52.5 15.5t37.5 13.5l16 6l59 -127q-153 -75 -322 -75z" />
    <glyph glyph-name="Ccaron" unicode="&#x10c;" horiz-adv-x="1378" 
d="M555 1774h129l162 -142l158 142h131l-234 -248h-117zM858 -20q-154 0 -293 58.5t-239 157.5t-158.5 235t-58.5 286t58.5 286t158.5 235t239 157.5t293 58.5q114 -1 231 -32t199 -76l-61 -129q-19 9 -52 22.5t-129 36t-184 22.5q-120 0 -226.5 -44.5t-182.5 -121.5
t-120 -185t-44 -230t44 -230t120 -185t182.5 -122t226.5 -45q88 0 179.5 20.5t138.5 40.5l47 21l61 -129q-82 -45 -199 -76t-231 -32z" />
    <glyph glyph-name="ccaron" unicode="&#x10d;" horiz-adv-x="1054" 
d="M360 1446h129l160 -141l158 141h133l-233 -248h-119zM657 -20q-155 0 -285 75.5t-204 202t-74 274.5t74 275t204 202.5t285 75.5q169 0 322 -75l-59 -127l-16 6q-15 6 -37.5 13.5t-52.5 15.5t-69 13t-77 5q-94 0 -172 -36.5t-127 -96t-76 -130t-27 -141.5t27 -141.5
t76 -129.5t127 -95.5t172 -36.5q38 0 77 5t69 13t52.5 15.5t37.5 13.5l16 6l59 -127q-153 -75 -322 -75z" />
    <glyph glyph-name="Dcaron" unicode="&#x10e;" horiz-adv-x="1447" 
d="M686 0h-491v1434h491q171 0 328 -91q83 -49 145 -119t99 -152.5t54.5 -170.5t18.5 -184q0 -96 -18 -185t-55 -171.5t-99 -152.5t-145 -118q-83 -47 -171.5 -68.5t-156.5 -21.5zM367 1272v-1110h290q145 0 281 76q221 127 221 481q0 347 -221 477q-129 76 -281 76h-290z
M360 1774h129l162 -142l156 142h133l-233 -248h-117z" />
    <glyph glyph-name="dcaron" unicode="&#x10f;" horiz-adv-x="1374" 
d="M985 1499h170v-1499h-131l-23 195q-60 -100 -165.5 -157.5t-229.5 -57.5q-150 0 -267 74t-179 199.5t-62 278.5q0 145 61 270t179 204t268 79q111 0 211 -48.5t168 -145.5v608zM635 936q-158 0 -261.5 -115t-103.5 -289t104.5 -288.5t260.5 -114.5q159 0 262.5 115.5
t103.5 287.5q0 171 -104.5 287.5t-261.5 116.5zM1430 1518q47 0 73.5 -35t26.5 -80q0 -121 -144 -193l-28 45q40 24 66 61t22 75q-14 -17 -37 -17q-27 0 -44 19.5t-17 48.5q0 32 25.5 54t56.5 22z" />
    <glyph glyph-name="Dcroat" unicode="&#x110;" horiz-adv-x="1464" 
d="M702 0h-489v674h-188v94h188v666h489q171 0 328 -91q164 -96 241 -261t77 -365q0 -96 -18 -185t-55.5 -171.5t-99.5 -152.5t-145 -118q-82 -47 -170 -68.5t-158 -21.5zM385 1272v-504h317v-94h-317v-512h289q144 0 280 76q116 67 170 193.5t54 287.5q0 347 -224 477
q-129 76 -280 76h-289z" />
    <glyph glyph-name="dcroat" unicode="&#x111;" horiz-adv-x="1312" 
d="M985 1499h170v-196h160v-68h-160v-1235h-131l-23 195q-60 -100 -165.5 -157.5t-229.5 -57.5q-150 0 -267 74t-179 199.5t-62 278.5q0 145 61 270t179 204t268 79q111 0 211 -48.5t168 -145.5v344h-309v68h309v196zM635 936q-158 0 -261.5 -115t-103.5 -289t104.5 -288.5
t260.5 -114.5q159 0 262.5 115.5t103.5 287.5q0 171 -104.5 287.5t-261.5 116.5z" />
    <glyph glyph-name="Emacron" unicode="&#x112;" horiz-adv-x="1310" 
d="M195 1434h985v-160h-813v-498h698v-155h-698v-461h839v-160h-1011v1434zM385 1634h616v-108h-616v108z" />
    <glyph glyph-name="emacron" unicode="&#x113;" horiz-adv-x="1189" 
d="M315 1307h615v-109h-615v109zM96 528q0 153 67 280.5t188 202t270 74.5q114 0 208 -45.5t154 -121t92.5 -171t32.5 -198.5q0 -23 -1.5 -44.5t-2.5 -31.5l-2 -10h-830q10 -151 117 -242.5t264 -91.5t322 72l57 -129q-75 -39 -176.5 -65.5t-206.5 -26.5q-159 0 -286 73
t-197 198.5t-70 276.5zM272 594h676q-2 66 -22 125.5t-57.5 109t-99 78.5t-138.5 29q-145 0 -245 -96.5t-114 -245.5z" />
    <glyph glyph-name="Ebreve" unicode="&#x114;" horiz-adv-x="1310" 
d="M195 1434h985v-160h-813v-498h698v-155h-698v-461h839v-160h-1011v1434zM426 1763h86q24 -67 61 -99t113 -32q75 0 112.5 31.5t59.5 99.5h88q-14 -118 -76 -177.5t-184 -59.5t-183 59t-77 178z" />
    <glyph glyph-name="ebreve" unicode="&#x115;" horiz-adv-x="1189" 
d="M356 1436h86q24 -67 61 -99t113 -32q75 0 112.5 31.5t59.5 99.5h89q-14 -118 -76.5 -178t-184.5 -60q-121 0 -183 59.5t-77 178.5zM96 528q0 153 67 280.5t188 202t270 74.5q114 0 208 -45.5t154 -121t92.5 -171t32.5 -198.5q0 -23 -1.5 -44.5t-2.5 -31.5l-2 -10h-830
q10 -151 117 -242.5t264 -91.5t322 72l57 -129q-75 -39 -176.5 -65.5t-206.5 -26.5q-159 0 -286 73t-197 198.5t-70 276.5zM272 594h676q-2 66 -22 125.5t-57.5 109t-99 78.5t-138.5 29q-145 0 -245 -96.5t-114 -245.5z" />
    <glyph glyph-name="Edotaccent" unicode="&#x116;" horiz-adv-x="1310" 
d="M195 1434h985v-160h-813v-498h698v-155h-698v-461h839v-160h-1011v1434zM799 1622q0 -42 -28.5 -69t-76.5 -27q-41 0 -69.5 27.5t-28.5 68.5q0 42 29 71t69 29q49 0 77 -27.5t28 -72.5z" />
    <glyph glyph-name="edotaccent" unicode="&#x117;" horiz-adv-x="1189" 
d="M725 1294q0 -42 -28.5 -69t-75.5 -27q-42 0 -70.5 27.5t-28.5 68.5q0 42 29.5 71.5t69.5 29.5q47 0 75.5 -28t28.5 -73zM96 528q0 153 67 280.5t188 202t270 74.5q114 0 208 -45.5t154 -121t92.5 -171t32.5 -198.5q0 -23 -1.5 -44.5t-2.5 -31.5l-2 -10h-830
q10 -151 117 -242.5t264 -91.5t322 72l57 -129q-75 -39 -176.5 -65.5t-206.5 -26.5q-159 0 -286 73t-197 198.5t-70 276.5zM272 594h676q-2 66 -22 125.5t-57.5 109t-99 78.5t-138.5 29q-145 0 -245 -96.5t-114 -245.5z" />
    <glyph glyph-name="Eogonek" unicode="&#x118;" horiz-adv-x="1316" 
d="M195 1434h985v-160h-813v-498h698v-155h-698v-461h839v-160h-57q-133 -49 -133 -145q0 -42 24 -63t60 -21q33 0 88 14l24 -82q-59 -33 -122 -33q-78 0 -127.5 41t-49.5 115q0 115 121 174h-839v1434z" />
    <glyph glyph-name="eogonek" unicode="&#x119;" horiz-adv-x="1191" 
d="M96 528q0 153 67 280.5t188 202t270 74.5q114 0 208 -45.5t154 -121t92.5 -171t32.5 -198.5q0 -23 -1.5 -44.5t-2.5 -31.5l-2 -10h-830q10 -151 117 -242.5t264 -91.5t322 72l57 -129q-87 -48 -192 -70q-99 -47 -99 -133q0 -84 86 -84q29 0 91 12l24 -80
q-52 -31 -115 -34q-79 -5 -130.5 39t-51.5 118q0 85 66 142q-20 -2 -62 -2q-159 0 -286 73t-197 198.5t-70 276.5zM272 594h676q-2 66 -22 125.5t-57.5 109t-99 78.5t-138.5 29q-145 0 -245 -96.5t-114 -245.5z" />
    <glyph glyph-name="Ecaron" unicode="&#x11a;" horiz-adv-x="1310" 
d="M195 1434h985v-160h-813v-498h698v-155h-698v-461h839v-160h-1011v1434zM383 1774h129l162 -142l155 142h134l-234 -248h-117z" />
    <glyph glyph-name="ecaron" unicode="&#x11b;" horiz-adv-x="1189" 
d="M346 1446h129l162 -141l158 141h133l-236 -248h-117zM96 528q0 153 67 280.5t188 202t270 74.5q114 0 208 -45.5t154 -121t92.5 -171t32.5 -198.5q0 -23 -1.5 -44.5t-2.5 -31.5l-2 -10h-830q10 -151 117 -242.5t264 -91.5t322 72l57 -129q-75 -39 -176.5 -65.5
t-206.5 -26.5q-159 0 -286 73t-197 198.5t-70 276.5zM272 594h676q-2 66 -22 125.5t-57.5 109t-99 78.5t-138.5 29q-145 0 -245 -96.5t-114 -245.5z" />
    <glyph glyph-name="Gcircumflex" unicode="&#x11c;" horiz-adv-x="1523" 
d="M690 1526h-129l227 248h119l234 -248h-133l-156 143zM860 1454q109 0 239.5 -32t223.5 -83l-68 -129q-30 13 -68.5 28t-137.5 37.5t-185 22.5q-120 0 -226.5 -44.5t-182.5 -121.5t-120 -185t-44 -230q0 -121 44 -229t120 -185.5t182.5 -122.5t226.5 -45q222 0 379 137
v318h-389v143h549v-526q-131 -123 -262.5 -175t-280.5 -52q-154 0 -293 58.5t-239 157.5t-158.5 235t-58.5 286t58.5 286t158.5 235t239 157.5t293 58.5z" />
    <glyph glyph-name="gcircumflex" unicode="&#x11d;" horiz-adv-x="1107" 
d="M377 1198h-129l229 248h117l233 -248h-133l-155 143zM1036 1065v-119l-159 -26q88 -75 88 -203q0 -149 -106.5 -244.5t-299.5 -95.5q-152 0 -235 45q-21 -11 -41.5 -35.5t-20.5 -58.5q0 -28 15 -48.5t45.5 -32.5t58.5 -19.5t74 -10.5t71.5 -3.5t69.5 -0.5
q216 0 319 -57.5t103 -200.5q0 -74 -30 -130t-75.5 -88t-109.5 -52t-120.5 -26.5t-119.5 -6.5q-83 0 -159 14t-146.5 45t-113 90.5t-42.5 141.5q0 69 31 119t96 92q-98 64 -98 163q0 98 98 172q-48 41 -70 106.5t-22 135.5q0 162 113 258t299 96q66 0 131 -20h356zM553 954
q-117 0 -185.5 -62t-68.5 -165q0 -101 67 -162t187 -61q119 0 184.5 59.5t65.5 161.5q0 105 -67 167t-183 62zM641 84q-111 0 -163 3t-120 15q-40 -23 -68 -62t-28 -89q0 -47 27 -81.5t72.5 -53t94.5 -27t103 -8.5t103 8.5t95 26.5t73.5 53.5t27.5 83.5q0 66 -53 97.5
t-164 33.5z" />
    <glyph glyph-name="Gbreve" unicode="&#x11e;" horiz-adv-x="1523" 
d="M608 1763h86q24 -67 61 -99t113 -32q75 0 112.5 31.5t59.5 99.5h88q-14 -118 -76 -177.5t-184 -59.5t-183 59t-77 178zM860 1454q109 0 239.5 -32t223.5 -83l-68 -129q-30 13 -68.5 28t-137.5 37.5t-185 22.5q-120 0 -226.5 -44.5t-182.5 -121.5t-120 -185t-44 -230
q0 -121 44 -229t120 -185.5t182.5 -122.5t226.5 -45q222 0 379 137v318h-389v143h549v-526q-131 -123 -262.5 -175t-280.5 -52q-154 0 -293 58.5t-239 157.5t-158.5 235t-58.5 286t58.5 286t158.5 235t239 157.5t293 58.5z" />
    <glyph glyph-name="gbreve" unicode="&#x11f;" horiz-adv-x="1107" 
d="M309 1436h86q25 -68 61 -99.5t113 -31.5q75 0 111.5 31.5t60.5 99.5h86q-14 -119 -75.5 -178.5t-182.5 -59.5q-122 0 -183 59t-77 179zM1036 1065v-119l-159 -26q88 -75 88 -203q0 -149 -106.5 -244.5t-299.5 -95.5q-152 0 -235 45q-21 -11 -41.5 -35.5t-20.5 -58.5
q0 -28 15 -48.5t45.5 -32.5t58.5 -19.5t74 -10.5t71.5 -3.5t69.5 -0.5q216 0 319 -57.5t103 -200.5q0 -74 -30 -130t-75.5 -88t-109.5 -52t-120.5 -26.5t-119.5 -6.5q-83 0 -159 14t-146.5 45t-113 90.5t-42.5 141.5q0 69 31 119t96 92q-98 64 -98 163q0 98 98 172
q-48 41 -70 106.5t-22 135.5q0 162 113 258t299 96q66 0 131 -20h356zM553 954q-117 0 -185.5 -62t-68.5 -165q0 -101 67 -162t187 -61q119 0 184.5 59.5t65.5 161.5q0 105 -67 167t-183 62zM641 84q-111 0 -163 3t-120 15q-40 -23 -68 -62t-28 -89q0 -47 27 -81.5t72.5 -53
t94.5 -27t103 -8.5t103 8.5t95 26.5t73.5 53.5t27.5 83.5q0 66 -53 97.5t-164 33.5z" />
    <glyph glyph-name="Gdotaccent" unicode="&#x120;" horiz-adv-x="1523" 
d="M971 1622q0 -42 -29 -69t-76 -27q-43 0 -71.5 27.5t-28.5 68.5q0 42 30 71t70 29q47 0 76 -28t29 -72zM860 1454q109 0 239.5 -32t223.5 -83l-68 -129q-30 13 -68.5 28t-137.5 37.5t-185 22.5q-120 0 -226.5 -44.5t-182.5 -121.5t-120 -185t-44 -230q0 -121 44 -229
t120 -185.5t182.5 -122.5t226.5 -45q222 0 379 137v318h-389v143h549v-526q-131 -123 -262.5 -175t-280.5 -52q-154 0 -293 58.5t-239 157.5t-158.5 235t-58.5 286t58.5 286t158.5 235t239 157.5t293 58.5z" />
    <glyph glyph-name="gdotaccent" unicode="&#x121;" horiz-adv-x="1107" 
d="M655 1296q0 -43 -28.5 -70.5t-73.5 -27.5t-73.5 27t-28.5 69q0 43 30 72t74 29q43 0 71.5 -28t28.5 -71zM1036 1065v-119l-159 -26q88 -75 88 -203q0 -149 -106.5 -244.5t-299.5 -95.5q-152 0 -235 45q-21 -11 -41.5 -35.5t-20.5 -58.5q0 -28 15 -48.5t45.5 -32.5
t58.5 -19.5t74 -10.5t71.5 -3.5t69.5 -0.5q216 0 319 -57.5t103 -200.5q0 -74 -30 -130t-75.5 -88t-109.5 -52t-120.5 -26.5t-119.5 -6.5q-83 0 -159 14t-146.5 45t-113 90.5t-42.5 141.5q0 69 31 119t96 92q-98 64 -98 163q0 98 98 172q-48 41 -70 106.5t-22 135.5
q0 162 113 258t299 96q66 0 131 -20h356zM553 954q-117 0 -185.5 -62t-68.5 -165q0 -101 67 -162t187 -61q119 0 184.5 59.5t65.5 161.5q0 105 -67 167t-183 62zM641 84q-111 0 -163 3t-120 15q-40 -23 -68 -62t-28 -89q0 -47 27 -81.5t72.5 -53t94.5 -27t103 -8.5t103 8.5
t95 26.5t73.5 53.5t27.5 83.5q0 66 -53 97.5t-164 33.5z" />
    <glyph glyph-name="Gcommaaccent" unicode="&#x122;" horiz-adv-x="1523" 
d="M844 -111q47 0 73.5 -35t26.5 -81q0 -121 -143 -193l-29 45q40 27 66 63t22 74q-13 -16 -37 -16q-27 0 -44 19.5t-17 48.5q0 32 25.5 53.5t56.5 21.5zM860 1454q109 0 239.5 -32t223.5 -83l-68 -129q-30 13 -68.5 28t-137.5 37.5t-185 22.5q-120 0 -226.5 -44.5
t-182.5 -121.5t-120 -185t-44 -230q0 -121 44 -229t120 -185.5t182.5 -122.5t226.5 -45q222 0 379 137v318h-389v143h549v-526q-131 -123 -262.5 -175t-280.5 -52q-154 0 -293 58.5t-239 157.5t-158.5 235t-58.5 286t58.5 286t158.5 235t239 157.5t293 58.5z" />
    <glyph glyph-name="gcommaaccent" unicode="&#x123;" horiz-adv-x="1107" 
d="M555 1198q-47 0 -73.5 35t-26.5 82q0 121 143 196l29 -47q-39 -24 -65 -61t-23 -76q14 14 36 14q27 0 44.5 -19.5t17.5 -47.5q0 -32 -26 -54t-56 -22zM1036 1065v-119l-159 -26q88 -75 88 -203q0 -149 -106.5 -244.5t-299.5 -95.5q-152 0 -235 45q-21 -11 -41.5 -35.5
t-20.5 -58.5q0 -28 15 -48.5t45.5 -32.5t58.5 -19.5t74 -10.5t71.5 -3.5t69.5 -0.5q216 0 319 -57.5t103 -200.5q0 -74 -30 -130t-75.5 -88t-109.5 -52t-120.5 -26.5t-119.5 -6.5q-83 0 -159 14t-146.5 45t-113 90.5t-42.5 141.5q0 69 31 119t96 92q-98 64 -98 163
q0 98 98 172q-48 41 -70 106.5t-22 135.5q0 162 113 258t299 96q66 0 131 -20h356zM553 954q-117 0 -185.5 -62t-68.5 -165q0 -101 67 -162t187 -61q119 0 184.5 59.5t65.5 161.5q0 105 -67 167t-183 62zM641 84q-111 0 -163 3t-120 15q-40 -23 -68 -62t-28 -89
q0 -47 27 -81.5t72.5 -53t94.5 -27t103 -8.5t103 8.5t95 26.5t73.5 53.5t27.5 83.5q0 66 -53 97.5t-164 33.5z" />
    <glyph glyph-name="Hcircumflex" unicode="&#x124;" horiz-adv-x="1509" 
d="M195 1434h172v-639h776v639h170v-1434h-170v637h-776v-637h-172v1434zM594 1526h-129l227 248h119l233 -248h-133l-155 143z" />
    <glyph glyph-name="hcircumflex" unicode="&#x125;" horiz-adv-x="1236" 
d="M78 1530h-129l229 248h119l233 -248h-133l-157 143zM162 1499h170v-596q16 28 43 56t69 58t105 49t135 19q185 0 294 -115.5t109 -338.5v-631h-169v627q0 138 -72 217.5t-199 79.5q-62 0 -115 -20t-89 -53t-61.5 -76.5t-37.5 -89.5t-12 -93v-592h-170v1499z" />
    <glyph glyph-name="Hbar" unicode="&#x126;" horiz-adv-x="1511" 
d="M197 1434h172v-269h774v269h172v-269h127v-84h-127v-1081h-172v637h-774v-637h-172v1081h-125v84h125v269zM369 795h774v286h-774v-286z" />
    <glyph glyph-name="hbar" unicode="&#x127;" horiz-adv-x="1236" 
d="M162 1499h170v-196h305v-68h-305v-332q16 28 43 56t69 58t105 49t135 19q185 0 294 -115.5t109 -338.5v-631h-169v627q0 138 -72 217.5t-199 79.5q-62 0 -115 -20t-89 -53t-61.5 -76.5t-37.5 -89.5t-12 -93v-592h-170v1235h-164v68h164v196z" />
    <glyph glyph-name="Itilde" unicode="&#x128;" horiz-adv-x="561" 
d="M195 1434h172v-1434h-172v1434zM20 1542l-53 41q36 62 90.5 101t116.5 38q43 0 120.5 -40t125.5 -40q66 0 115 66l53 -39q-34 -62 -86 -101t-113 -40q-44 0 -124.5 40t-131.5 40q-25 0 -48.5 -12t-35.5 -23t-29 -31z" />
    <glyph glyph-name="itilde" unicode="&#x129;" horiz-adv-x="516" 
d="M-23 1214l-53 41q36 62 89.5 101t115.5 39q44 0 122.5 -40t127.5 -40q67 0 115 65l51 -39q-34 -63 -87 -102t-114 -39q-42 0 -122 40t-132 40q-25 0 -48.5 -12t-35.5 -23t-29 -31zM78 1065h280v-1065h-170v913l-110 33v119z" />
    <glyph glyph-name="Imacron" unicode="&#x12a;" horiz-adv-x="561" 
d="M195 1434h172v-1434h-172v1434zM-27 1634h617v-108h-617v108z" />
    <glyph glyph-name="imacron" unicode="&#x12b;" horiz-adv-x="516" 
d="M-86 1307h614v-109h-614v109zM78 1065h280v-1065h-170v913l-110 33v119z" />
    <glyph glyph-name="Ibreve" unicode="&#x12c;" horiz-adv-x="561" 
d="M195 1434h172v-1434h-172v1434zM6 1763h86q24 -67 61 -99t113 -32q75 0 112.5 31.5t59.5 99.5h88q-14 -118 -76 -177.5t-184 -59.5t-183 59t-77 178z" />
    <glyph glyph-name="ibreve" unicode="&#x12d;" horiz-adv-x="516" 
d="M-23 1436h86q24 -67 61.5 -99t113.5 -32q75 0 112.5 31.5t59.5 99.5h88q-14 -119 -76 -178.5t-184 -59.5q-121 0 -183.5 59.5t-77.5 178.5zM78 1065h280v-1065h-170v913l-110 33v119z" />
    <glyph glyph-name="Iogonek" unicode="&#x12e;" horiz-adv-x="561" 
d="M195 1434h172v-1434h-39q-21 -8 -40.5 -18.5t-44 -28.5t-39 -45.5t-14.5 -59.5q0 -45 25.5 -64.5t63.5 -19.5q25 0 88 13l26 -80q-68 -35 -125 -35q-76 0 -125 44.5t-49 115.5q0 118 133 178h-32v1434z" />
    <glyph glyph-name="iogonek" unicode="&#x12f;" horiz-adv-x="516" 
d="M78 1065h280v-1065h-2q-65 -11 -117.5 -50t-52.5 -102q0 -84 86 -84q25 0 88 13l27 -80q-68 -35 -123 -35q-76 0 -126 44t-50 116q0 120 137 178h-37v913l-110 33v119zM252 1462q47 0 82 -33t35 -77q0 -47 -35 -81t-82 -34q-45 0 -77 33.5t-32 79.5t32 79t77 33z" />
    <glyph glyph-name="Idotaccent" unicode="&#x130;" horiz-adv-x="563" 
d="M195 1434h172v-1434h-172v1434zM383 1622q0 -42 -28.5 -69t-75.5 -27q-42 0 -70.5 27.5t-28.5 68.5q0 42 29.5 71t69.5 29q47 0 75.5 -27.5t28.5 -72.5z" />
    <glyph glyph-name="dotlessi" unicode="&#x131;" horiz-adv-x="516" 
d="M78 1065h280v-1065h-170v913l-110 33v119z" />
    <glyph glyph-name="Jcircumflex" unicode="&#x134;" horiz-adv-x="606" 
d="M51 -287l-55 115q13 7 33 19.5t60 45t71 66.5t55.5 82.5t24.5 95.5v1133l-140 35v129h312v-1229q0 -79 -25 -166q-15 -58 -53 -111t-77 -87.5t-87.5 -65t-73 -42t-45.5 -20.5zM119 1526h-129l229 248h119l233 -248h-133l-157 143z" />
    <glyph glyph-name="jcircumflex" unicode="&#x135;" horiz-adv-x="524" 
d="M96 -348l-57 112q12 5 33.5 20t51 41.5t50.5 67.5t21 84v936l-119 33v119h289v-1004q0 -83 -23.5 -153.5t-55 -113t-73 -75.5t-68 -46t-49.5 -21zM68 1198h-129l229 248h117l233 -248h-131l-158 143z" />
    <glyph glyph-name="Kcommaaccent" unicode="&#x136;" horiz-adv-x="1286" 
d="M676 -111q47 0 73.5 -35t26.5 -81q0 -121 -143 -193l-29 45q40 27 66 63t22 74q-13 -16 -37 -16q-27 0 -44 19.5t-17 48.5q0 32 25.5 53.5t56.5 21.5zM195 0v1434h172v-572l-5 -200l138 174l506 598h208l-526 -617l590 -817h-201l-493 700l-217 -247v-453h-172z" />
    <glyph glyph-name="kcommaaccent" unicode="&#x137;" horiz-adv-x="1036" 
d="M543 -111q47 0 73.5 -35t26.5 -81q0 -64 -40.5 -112.5t-102.5 -80.5l-29 45q40 26 65 62.5t21 74.5q-13 -16 -37 -16q-27 0 -43 19.5t-16 48.5q0 32 25.5 53.5t56.5 21.5zM160 1499h170v-682l-6 -315l235 301l221 262h215l-432 -496l426 -569h-194l-330 446l-135 -149
v-297h-170v1499z" />
    <glyph glyph-name="kgreenlandic" unicode="&#x138;" horiz-adv-x="1036" 
d="M160 1065h170v-248l-6 -315l235 301l221 262h215l-432 -496l426 -569h-194l-330 446l-135 -149v-297h-170v1065z" />
    <glyph glyph-name="Lacute" unicode="&#x139;" horiz-adv-x="1191" 
d="M195 1434h172v-1274h778v-160h-950v1434zM371 1862l143 -80l-184 -256h-94z" />
    <glyph glyph-name="lacute" unicode="&#x13a;" horiz-adv-x="538" 
d="M164 1499h170v-1298q0 -49 51 -49q11 0 80 6v-135q-11 -6 -59.5 -14.5t-86.5 -8.5q-44 0 -76 15.5t-48 42t-23.5 53.5t-7.5 57v1331zM340 1872l141 -78l-182 -256h-94z" />
    <glyph glyph-name="Lcommaaccent" unicode="&#x13b;" horiz-adv-x="1193" 
d="M195 1434h172v-1274h778v-160h-950v1434zM649 -109q47 0 74 -35t27 -81q0 -64 -41.5 -112.5t-104.5 -80.5l-29 45q40 27 66.5 62.5t22.5 72.5q-14 -14 -37 -14q-27 0 -44.5 20t-17.5 48q0 32 26.5 53.5t57.5 21.5z" />
    <glyph glyph-name="lcommaaccent" unicode="&#x13c;" horiz-adv-x="540" 
d="M164 1499h170v-1298q0 -49 51 -49q7 0 82 6v-135q-14 -6 -62 -14.5t-86 -8.5q-44 0 -76 15.5t-48 42t-23.5 53.5t-7.5 57v1331zM293 -109q47 0 73.5 -35t26.5 -81q0 -121 -143 -193l-29 45q40 26 66 62t22 73q-14 -14 -37 -14q-27 0 -44 19.5t-17 48.5q0 32 25.5 53.5
t56.5 21.5z" />
    <glyph glyph-name="Lcaron" unicode="&#x13d;" horiz-adv-x="1193" 
d="M195 1434h172v-1274h778v-160h-950v1434zM756 1423q45 0 71.5 -34.5t26.5 -79.5q0 -121 -143 -193l-29 45q96 63 88 135q-13 -16 -37 -16q-27 0 -44 20t-17 50q0 32 26 52.5t58 20.5z" />
    <glyph glyph-name="lcaron" unicode="&#x13e;" horiz-adv-x="618" 
d="M164 1499h170v-1298q0 -49 51 -49q7 0 82 6v-135q-14 -6 -62 -14.5t-86 -8.5q-44 0 -76 15.5t-48 42t-23.5 53.5t-7.5 57v1331zM621 1518q47 0 73.5 -35t26.5 -80q0 -120 -143 -193l-29 45q39 24 64.5 60.5t21.5 75.5q-10 -17 -37 -17q-26 0 -42.5 20t-16.5 48
q0 32 25.5 54t56.5 22z" />
    <glyph glyph-name="Lslash" unicode="&#x141;" horiz-adv-x="1204" 
d="M2 512l221 133v789h172v-678l277 164l47 -82l-324 -195v-493h738v-150h-910v541l-178 -109z" />
    <glyph glyph-name="lslash" unicode="&#x142;" horiz-adv-x="690" 
d="M236 1499h167v-754l211 129l48 -81l-259 -156v-436q0 -49 52 -49q11 0 80 6v-135q-11 -6 -59.5 -14.5t-86.5 -8.5q-73 0 -113 49t-40 119v369l-173 -105l-47 84l220 129v854z" />
    <glyph glyph-name="Nacute" unicode="&#x143;" horiz-adv-x="1499" 
d="M195 1434h178l452 -682l312 -484h4l-8 574v592h170v-1434h-179l-456 705l-306 471h-4l9 -469v-707h-172v1434zM829 1862l142 -80l-183 -256h-94z" />
    <glyph glyph-name="nacute" unicode="&#x144;" horiz-adv-x="1239" 
d="M709 1534l141 -80l-184 -256h-95zM162 1065h129l28 -184q7 18 23 40.5t47.5 52.5t71 54t98.5 40.5t125 16.5q185 0 294 -115.5t109 -338.5v-631h-169v627q0 138 -72 217.5t-199 79.5q-62 0 -115 -20t-89 -53t-61.5 -76.5t-37.5 -89.5t-12 -93v-592h-170v1065z" />
    <glyph glyph-name="Ncommaaccent" unicode="&#x145;" horiz-adv-x="1499" 
d="M195 1434h178l452 -682l312 -484h4l-8 574v592h170v-1434h-179l-456 705l-306 471h-4l9 -469v-707h-172v1434zM729 -111q47 0 73.5 -35t26.5 -81q0 -64 -41 -113t-104 -80l-29 45q40 27 66 63t22 74q-13 -16 -36 -16q-27 0 -44.5 20t-17.5 48q0 32 26.5 53.5t57.5 21.5z
" />
    <glyph glyph-name="ncommaaccent" unicode="&#x146;" horiz-adv-x="1239" 
d="M608 -109q47 0 74 -35t27 -81q0 -64 -40.5 -113t-103.5 -80l-28 45q40 26 66 62t22 73q-14 -14 -37 -14q-27 0 -44.5 20t-17.5 48q0 32 25.5 53.5t56.5 21.5zM162 1065h129l28 -184q7 18 23 40.5t47.5 52.5t71 54t98.5 40.5t125 16.5q185 0 294 -115.5t109 -338.5v-631
h-169v627q0 138 -72 217.5t-199 79.5q-62 0 -115 -20t-89 -53t-61.5 -76.5t-37.5 -89.5t-12 -93v-592h-170v1065z" />
    <glyph glyph-name="Ncaron" unicode="&#x147;" horiz-adv-x="1499" 
d="M195 1434h178l452 -682l312 -484h4l-8 574v592h170v-1434h-179l-456 705l-306 471h-4l9 -469v-707h-172v1434zM471 1774h129l160 -142l158 142h133l-234 -248h-119z" />
    <glyph glyph-name="ncaron" unicode="&#x148;" horiz-adv-x="1239" 
d="M305 1446h129l162 -141l158 141h133l-236 -248h-116zM162 1065h129l28 -184q7 18 23 40.5t47.5 52.5t71 54t98.5 40.5t125 16.5q185 0 294 -115.5t109 -338.5v-631h-169v627q0 138 -72 217.5t-199 79.5q-62 0 -115 -20t-89 -53t-61.5 -76.5t-37.5 -89.5t-12 -93v-592
h-170v1065z" />
    <glyph glyph-name="Eng" unicode="&#x14a;" horiz-adv-x="1505" 
d="M1001 -334l-36 119l28.5 9.5t29.5 10t26.5 10t26.5 12.5t21.5 14t20.5 18t13.5 21t10.5 26t3 31v63l-778 1163v-1163h-172v1434h178l766 -1137v1137h170v-1495q0 -117 -77.5 -182t-230.5 -91z" />
    <glyph glyph-name="eng" unicode="&#x14b;" horiz-adv-x="1239" 
d="M162 1065h129l28 -184q7 18 23 40.5t47.5 52.5t71 54t98.5 40.5t125 16.5q185 0 294 -115.5t109 -338.5v-692q0 -116 -79 -181.5t-232 -91.5l-33 107q8 3 31 11t32.5 11.5t28.5 12.5t27.5 15.5t21.5 17.5t19 22.5t10.5 27.5t4.5 35v701q0 138 -72 217.5t-199 79.5
q-62 0 -115 -20t-89 -53t-61.5 -76.5t-37.5 -89.5t-12 -93v-592h-170v1065z" />
    <glyph glyph-name="Omacron" unicode="&#x14c;" horiz-adv-x="1685" 
d="M535 1634h616v-108h-616v108zM109 719q0 154 60 291.5t160 234t234.5 153t280.5 56.5q201 0 370 -98.5t266 -267.5t97 -369q0 -153 -59.5 -291t-158.5 -235.5t-234 -155t-281 -57.5q-150 0 -286 58t-234.5 156.5t-156.5 235.5t-58 289zM289 717q0 -122 42.5 -230
t116 -185t176.5 -122t220 -45t220 45t176 122t115 185t42 230q0 161 -72 294t-200 210t-285 77q-154 0 -280.5 -76t-198.5 -209t-72 -296z" />
    <glyph glyph-name="omacron" unicode="&#x14d;" horiz-adv-x="1288" 
d="M338 1307h614v-109h-614v109zM96 532q0 154 73 281t198.5 199.5t275.5 72.5q151 0 277 -72t200 -199t74 -282q0 -115 -43.5 -218t-117.5 -176t-175.5 -115.5t-214.5 -42.5q-149 0 -274.5 72t-199 199.5t-73.5 280.5zM643 936q-159 0 -267 -117t-108 -287
q0 -168 108 -285.5t267 -117.5t268 117.5t109 285.5q0 170 -108.5 287t-268.5 117z" />
    <glyph glyph-name="Obreve" unicode="&#x14e;" horiz-adv-x="1685" 
d="M588 1763h86q24 -67 61 -99t113 -32q75 0 112.5 31.5t59.5 99.5h88q-14 -118 -76 -177.5t-184 -59.5t-183 59t-77 178zM109 719q0 154 60 291.5t160 234t234.5 153t280.5 56.5q201 0 370 -98.5t266 -267.5t97 -369q0 -153 -59.5 -291t-158.5 -235.5t-234 -155t-281 -57.5
q-150 0 -286 58t-234.5 156.5t-156.5 235.5t-58 289zM289 717q0 -122 42.5 -230t116 -185t176.5 -122t220 -45t220 45t176 122t115 185t42 230q0 161 -72 294t-200 210t-285 77q-154 0 -280.5 -76t-198.5 -209t-72 -296z" />
    <glyph glyph-name="obreve" unicode="&#x14f;" horiz-adv-x="1288" 
d="M385 1436h86q24 -67 61 -99t113 -32q75 0 112.5 31.5t59.5 99.5h88q-14 -119 -76 -178.5t-184 -59.5t-183 59t-77 179zM96 532q0 154 73 281t198.5 199.5t275.5 72.5q151 0 277 -72t200 -199t74 -282q0 -115 -43.5 -218t-117.5 -176t-175.5 -115.5t-214.5 -42.5
q-149 0 -274.5 72t-199 199.5t-73.5 280.5zM643 936q-159 0 -267 -117t-108 -287q0 -168 108 -285.5t267 -117.5t268 117.5t109 285.5q0 170 -108.5 287t-268.5 117z" />
    <glyph glyph-name="Ohungarumlaut" unicode="&#x150;" horiz-adv-x="1685" 
d="M770 1841l135 -78l-160 -237h-94zM1032 1841l133 -78l-157 -237h-97zM109 719q0 154 60 291.5t160 234t234.5 153t280.5 56.5q201 0 370 -98.5t266 -267.5t97 -369q0 -153 -59.5 -291t-158.5 -235.5t-234 -155t-281 -57.5q-150 0 -286 58t-234.5 156.5t-156.5 235.5
t-58 289zM289 717q0 -122 42.5 -230t116 -185t176.5 -122t220 -45t220 45t176 122t115 185t42 230q0 161 -72 294t-200 210t-285 77q-154 0 -280.5 -76t-198.5 -209t-72 -296z" />
    <glyph glyph-name="ohungarumlaut" unicode="&#x151;" horiz-adv-x="1288" 
d="M549 1513l135 -77l-160 -238h-94zM809 1513l135 -77l-160 -238h-94zM96 532q0 154 73 281t198.5 199.5t275.5 72.5q151 0 277 -72t200 -199t74 -282q0 -115 -43.5 -218t-117.5 -176t-175.5 -115.5t-214.5 -42.5q-149 0 -274.5 72t-199 199.5t-73.5 280.5zM643 936
q-159 0 -267 -117t-108 -287q0 -168 108 -285.5t267 -117.5t268 117.5t109 285.5q0 170 -108.5 287t-268.5 117z" />
    <glyph glyph-name="OE" unicode="&#x152;" horiz-adv-x="1953" 
d="M852 0q-152 0 -289 57t-236 153.5t-157.5 230.5t-58.5 282q0 149 60 281.5t160.5 226t236 148t282.5 55.5h973v-172h-779v-480h662v-168h-662v-442h805v-172h-997zM291 721q0 -153 74 -279.5t203 -199t284 -72.5h43v1094h-49q-153 0 -280 -70.5t-201 -195.5t-74 -277z
" />
    <glyph glyph-name="oe" unicode="&#x153;" horiz-adv-x="2121" 
d="M94 532q0 154 74 281t200.5 199.5t278.5 72.5t277 -80t188 -210q56 130 172 210t266 80q114 0 208.5 -45t155 -120.5t93.5 -172t33 -202.5q0 -63 -6 -82h-834q10 -130 95 -216.5t202 -111.5q77 -9 150 -6q132 11 262 68l45 -121q-176 -96 -377 -96q-162 0 -285 79.5
t-182 210.5q-63 -129 -187 -209.5t-276 -80.5q-151 0 -277.5 72t-201 199t-74.5 281zM647 936q-160 0 -272.5 -118t-112.5 -286q0 -167 112.5 -285t272.5 -118q156 0 267.5 118t111.5 285q1 168 -111 286t-268 118zM1198 594h680q-5 137 -93 234.5t-233 97.5
q-138 0 -240 -97.5t-114 -234.5z" />
    <glyph glyph-name="Racute" unicode="&#x154;" horiz-adv-x="1370" 
d="M195 1434h626q170 0 292 -122t122 -292q0 -138 -83.5 -249t-215.5 -146l354 -625h-198l-332 604h-393v-604h-172v1434zM367 1274v-512h454q99 0 171.5 78.5t72.5 179.5q0 120 -85.5 187t-207.5 67h-405zM659 1862l142 -80l-183 -256h-94z" />
    <glyph glyph-name="racute" unicode="&#x155;" horiz-adv-x="729" 
d="M469 1534l141 -80l-184 -256h-94zM160 1059h129l24 -189q101 195 355 195v-168q-72 0 -132 -17.5t-108 -54t-75 -99t-27 -146.5v-580h-166v1059z" />
    <glyph glyph-name="Rcommaaccent" unicode="&#x156;" horiz-adv-x="1368" 
d="M195 1434h626q170 0 292 -122t122 -292q0 -138 -83.5 -249t-215.5 -146l354 -625h-198l-332 604h-393v-604h-172v1434zM367 1274v-512h454q99 0 171.5 78.5t72.5 179.5q0 120 -85.5 187t-207.5 67h-405zM676 -111q47 0 72.5 -34.5t25.5 -81.5q0 -121 -143 -193l-29 45
q40 27 66 63t22 74q-13 -16 -37 -16q-27 0 -44 19.5t-17 48.5q0 32 26.5 53.5t57.5 21.5z" />
    <glyph glyph-name="rcommaaccent" unicode="&#x157;" horiz-adv-x="731" 
d="M242 -111q47 0 73.5 -35t26.5 -81q0 -64 -40.5 -112.5t-102.5 -80.5l-29 45q40 26 65 62.5t21 74.5q-10 -16 -37 -16q-26 0 -42.5 20t-16.5 48q0 32 25.5 53.5t56.5 21.5zM160 1059h129l24 -189q101 195 355 195v-168q-72 0 -132 -17.5t-108 -54t-75 -99t-27 -146.5v-580
h-166v1059z" />
    <glyph glyph-name="Rcaron" unicode="&#x158;" horiz-adv-x="1370" 
d="M195 1434h626q170 0 292 -122t122 -292q0 -138 -83.5 -249t-215.5 -146l354 -625h-198l-332 604h-393v-604h-172v1434zM367 1274v-512h454q99 0 171.5 78.5t72.5 179.5q0 120 -85.5 187t-207.5 67h-405zM342 1774h127l162 -142l157 142h134l-234 -248h-119z" />
    <glyph glyph-name="rcaron" unicode="&#x159;" horiz-adv-x="729" 
d="M125 1446h129l162 -141l155 141h134l-234 -248h-117zM160 1059h129l24 -189q101 195 355 195v-168q-72 0 -132 -17.5t-108 -54t-75 -99t-27 -146.5v-580h-166v1059z" />
    <glyph glyph-name="Sacute" unicode="&#x15a;" horiz-adv-x="1224" 
d="M662 1862l141 -80l-182 -256h-95zM612 -20q-112 0 -227 25t-173 47.5t-103 45.5l63 138q39 -20 92 -40.5t154 -42.5t196 -22q164 0 255.5 61.5t91.5 174.5q0 58 -28.5 102.5t-77 73t-111.5 51t-132.5 42.5t-139 41.5t-132.5 53.5t-111.5 74t-77 107.5t-28.5 148.5
q0 183 131 288t362 105q129 0 250 -30t201 -66l-61 -135q-21 9 -57 22.5t-136.5 35.5t-187.5 22q-151 0 -242.5 -58t-91.5 -170q0 -59 28.5 -104.5t77 -75t111.5 -53t132.5 -44t138.5 -43t132 -54t111.5 -73t77 -105t28.5 -144.5q0 -189 -138 -294t-378 -105z" />
    <glyph glyph-name="sacute" unicode="&#x15b;" horiz-adv-x="968" 
d="M532 1534l142 -80l-182 -256h-95zM479 -20q-192 0 -383 90l54 127q158 -74 323 -74q125 0 188.5 43.5t63.5 116.5q0 44 -26.5 77t-70.5 52t-99.5 37t-114 32t-114 39t-99.5 56t-70.5 84t-26.5 122q0 138 102.5 220.5t280.5 82.5q102 0 199 -23.5t154 -51.5l-54 -127
q-16 7 -43.5 16.5t-103.5 26t-141 16.5q-109 0 -172.5 -42t-63.5 -114q0 -50 34.5 -84.5t89.5 -55t121 -38.5t132.5 -41.5t121.5 -55.5t89.5 -89.5t34.5 -136.5q0 -141 -109 -223t-297 -82z" />
    <glyph glyph-name="Scircumflex" unicode="&#x15c;" horiz-adv-x="1224" 
d="M465 1526h-129l227 248h119l233 -248h-133l-157 143zM612 -20q-112 0 -227 25t-173 47.5t-103 45.5l63 138q39 -20 92 -40.5t154 -42.5t196 -22q164 0 255.5 61.5t91.5 174.5q0 58 -28.5 102.5t-77 73t-111.5 51t-132.5 42.5t-139 41.5t-132.5 53.5t-111.5 74t-77 107.5
t-28.5 148.5q0 183 131 288t362 105q129 0 250 -30t201 -66l-61 -135q-21 9 -57 22.5t-136.5 35.5t-187.5 22q-151 0 -242.5 -58t-91.5 -170q0 -59 28.5 -104.5t77 -75t111.5 -53t132.5 -44t138.5 -43t132 -54t111.5 -73t77 -105t28.5 -144.5q0 -189 -138 -294t-378 -105z
" />
    <glyph glyph-name="scircumflex" unicode="&#x15d;" horiz-adv-x="968" 
d="M324 1198h-127l227 248h119l233 -248h-133l-158 143zM479 -20q-192 0 -383 90l54 127q158 -74 323 -74q125 0 188.5 43.5t63.5 116.5q0 44 -26.5 77t-70.5 52t-99.5 37t-114 32t-114 39t-99.5 56t-70.5 84t-26.5 122q0 138 102.5 220.5t280.5 82.5q102 0 199 -23.5
t154 -51.5l-54 -127q-16 7 -43.5 16.5t-103.5 26t-141 16.5q-109 0 -172.5 -42t-63.5 -114q0 -50 34.5 -84.5t89.5 -55t121 -38.5t132.5 -41.5t121.5 -55.5t89.5 -89.5t34.5 -136.5q0 -141 -109 -223t-297 -82z" />
    <glyph glyph-name="Scedilla" unicode="&#x15e;" horiz-adv-x="1224" 
d="M604 -20l-20 -101q21 6 45 6q66 0 105.5 -37t39.5 -98q0 -80 -55.5 -125t-136.5 -45q-78 0 -144 41l25 68q61 -21 106 -21q43 0 73 21t30 63q0 32 -26.5 54t-74.5 22q-16 0 -32 -4l-39 37l51 121q-141 8 -258 44.5t-184 71.5l63 138q39 -20 92 -40.5t154 -42.5t196 -22
q164 0 255.5 61.5t91.5 174.5q0 58 -28.5 102.5t-77 73t-111.5 51t-132.5 42.5t-139 41.5t-132.5 53.5t-111.5 74t-77 107.5t-28.5 148.5q0 183 131 288t362 105q129 0 250 -30t201 -66l-61 -135q-21 9 -57 22.5t-136.5 35.5t-187.5 22q-151 0 -242.5 -58t-91.5 -170
q0 -59 28.5 -104.5t77 -75t111.5 -53t132.5 -44t138.5 -43t132 -54t111.5 -73t77 -105t28.5 -144.5q0 -189 -139 -294t-385 -105z" />
    <glyph glyph-name="scedilla" unicode="&#x15f;" horiz-adv-x="968" 
d="M397 -139l52 119q-178 8 -353 90l54 127q158 -74 323 -74q125 0 188.5 43.5t63.5 116.5q0 44 -26.5 77t-70.5 52t-99.5 37t-114 32t-114 39t-99.5 56t-70.5 84t-26.5 122q0 138 102.5 220.5t280.5 82.5q102 0 199 -23.5t154 -51.5l-54 -127q-16 7 -43.5 16.5t-103.5 26
t-141 16.5q-109 0 -172.5 -42t-63.5 -114q0 -50 34.5 -84.5t89.5 -55t121 -38.5t132.5 -41.5t121.5 -55.5t89.5 -89.5t34.5 -136.5q0 -135 -100 -215.5t-283 -89.5l-21 -101q21 6 45 6q66 0 106 -37t40 -98q0 -80 -56 -125t-137 -45q-77 0 -143 41l24 68q62 -21 107 -21
q43 0 72.5 21t29.5 63q0 32 -26.5 54t-73.5 22q-17 0 -33 -4z" />
    <glyph glyph-name="Scaron" unicode="&#x160;" horiz-adv-x="1224" 
d="M332 1774h127l162 -142l157 142h133l-233 -248h-119zM612 -20q-112 0 -227 25t-173 47.5t-103 45.5l63 138q39 -20 92 -40.5t154 -42.5t196 -22q164 0 255.5 61.5t91.5 174.5q0 58 -28.5 102.5t-77 73t-111.5 51t-132.5 42.5t-139 41.5t-132.5 53.5t-111.5 74t-77 107.5
t-28.5 148.5q0 183 131 288t362 105q129 0 250 -30t201 -66l-61 -135q-21 9 -57 22.5t-136.5 35.5t-187.5 22q-151 0 -242.5 -58t-91.5 -170q0 -59 28.5 -104.5t77 -75t111.5 -53t132.5 -44t138.5 -43t132 -54t111.5 -73t77 -105t28.5 -144.5q0 -189 -138 -294t-378 -105z
" />
    <glyph glyph-name="scaron" unicode="&#x161;" horiz-adv-x="968" 
d="M195 1446h127l161 -141l158 141h133l-233 -248h-119zM479 -20q-192 0 -383 90l54 127q158 -74 323 -74q125 0 188.5 43.5t63.5 116.5q0 44 -26.5 77t-70.5 52t-99.5 37t-114 32t-114 39t-99.5 56t-70.5 84t-26.5 122q0 138 102.5 220.5t280.5 82.5q102 0 199 -23.5
t154 -51.5l-54 -127q-16 7 -43.5 16.5t-103.5 26t-141 16.5q-109 0 -172.5 -42t-63.5 -114q0 -50 34.5 -84.5t89.5 -55t121 -38.5t132.5 -41.5t121.5 -55.5t89.5 -89.5t34.5 -136.5q0 -141 -109 -223t-297 -82z" />
    <glyph glyph-name="Tcommaaccent" unicode="&#x162;" horiz-adv-x="1239" 
d="M43 1434h1153v-160h-491v-1274h-173v1274h-489v160zM610 -111q47 0 74 -35t27 -81q0 -64 -40.5 -113t-103.5 -80l-28 45q40 27 66 63t22 74q-13 -16 -37 -16q-27 0 -44.5 20t-17.5 48q0 32 25.5 53.5t56.5 21.5z" />
    <glyph glyph-name="tcommaaccent" unicode="&#x163;" horiz-adv-x="731" 
d="M246 1372h141v-307h266v-129h-266v-594q0 -97 36.5 -148t121.5 -51q43 0 135 15l27 -121q-94 -37 -189 -37q-164 0 -231.5 87t-67.5 269v580h-156v104l156 23zM408 -111q47 0 73.5 -35t26.5 -81q0 -64 -41.5 -112.5t-104.5 -80.5l-28 45q40 27 66 63t22 74
q-13 -16 -37 -16q-27 0 -44 19.5t-17 48.5q0 32 26.5 53.5t57.5 21.5z" />
    <glyph glyph-name="Tcaron" unicode="&#x164;" horiz-adv-x="1236" 
d="M43 1434h1153v-160h-491v-1274h-173v1274h-489v160zM330 1774h129l159 -142l158 142h133l-233 -248h-119z" />
    <glyph glyph-name="tcaron" unicode="&#x165;" horiz-adv-x="731" 
d="M246 1372h141v-307h266v-129h-266v-594q0 -97 36.5 -148t121.5 -51q43 0 135 15l27 -121q-94 -37 -189 -37q-164 0 -231.5 87t-67.5 269v580h-156v104l156 23zM647 1518q47 0 74 -35t27 -80q0 -121 -144 -193l-29 45q40 25 66.5 61.5t22.5 74.5q-14 -17 -37 -17
q-27 0 -44.5 20t-17.5 48q0 32 25.5 54t56.5 22z" />
    <glyph glyph-name="Tbar" unicode="&#x166;" horiz-adv-x="1257" 
d="M1063 684h-350v-684h-172v684h-348v92h348v498h-490v160h1153v-160h-491v-498h350v-92z" />
    <glyph glyph-name="tbar" unicode="&#x167;" horiz-adv-x="735" 
d="M66 750h155v186h-155v104l155 23l27 309h141v-307h266v-129h-266v-186h266v-70h-266v-338q0 -97 36.5 -148t121.5 -51q43 0 135 15l27 -121q-94 -37 -189 -37q-164 0 -231.5 87t-67.5 269v324h-155v70z" />
    <glyph glyph-name="Utilde" unicode="&#x168;" horiz-adv-x="1466" 
d="M473 1542l-55 41q37 62 92.5 100.5t118.5 38.5q42 0 118.5 -40t124.5 -40q66 0 115 66l53 -39q-34 -63 -86.5 -102t-111.5 -39q-44 0 -124.5 40t-131.5 40q-25 0 -48.5 -12t-35.5 -23t-29 -31zM1114 1434h172v-881q0 -253 -146 -403t-405 -150t-405 150t-146 403v881h172
v-881q0 -182 102.5 -286.5t276.5 -104.5t276.5 104.5t102.5 286.5v881z" />
    <glyph glyph-name="utilde" unicode="&#x169;" horiz-adv-x="1236" 
d="M369 1214l-54 41q38 63 90.5 101.5t112.5 38.5q44 0 123.5 -40t128.5 -40q67 0 115 65l53 -39q-34 -62 -88 -101.5t-115 -39.5q-44 0 -123.5 40t-128.5 40q-25 0 -49 -11.5t-36 -23.5t-29 -31zM152 1065h170v-627q0 -144 69 -220.5t223 -76.5q120 0 205.5 84.5
t85.5 208.5v631h170v-1065h-129l-22 158q-46 -85 -139 -131.5t-205 -46.5q-214 0 -321 114.5t-107 329.5v641z" />
    <glyph glyph-name="Umacron" unicode="&#x16a;" horiz-adv-x="1466" 
d="M426 1634h614v-108h-614v108zM1114 1434h172v-881q0 -253 -146 -403t-405 -150t-405 150t-146 403v881h172v-881q0 -182 102.5 -286.5t276.5 -104.5t276.5 104.5t102.5 286.5v881z" />
    <glyph glyph-name="umacron" unicode="&#x16b;" horiz-adv-x="1236" 
d="M311 1307h615v-109h-615v109zM152 1065h170v-627q0 -144 69 -220.5t223 -76.5q120 0 205.5 84.5t85.5 208.5v631h170v-1065h-129l-22 168q-47 -87 -140.5 -137.5t-203.5 -50.5q-214 0 -321 114.5t-107 329.5v641z" />
    <glyph glyph-name="Ubreve" unicode="&#x16c;" horiz-adv-x="1466" 
d="M475 1763h86q24 -67 61 -99t113 -32q75 0 112.5 31.5t59.5 99.5h88q-14 -118 -76 -177.5t-184 -59.5t-183 59t-77 178zM1114 1434h172v-881q0 -253 -146 -403t-405 -150t-405 150t-146 403v881h172v-881q0 -182 102.5 -286.5t276.5 -104.5t276.5 104.5t102.5 286.5v881z
" />
    <glyph glyph-name="ubreve" unicode="&#x16d;" horiz-adv-x="1236" 
d="M358 1436h86q24 -67 61 -99t113 -32q75 0 113 31.5t60 99.5h88q-14 -118 -76.5 -178t-184.5 -60t-183 59t-77 179zM152 1065h170v-627q0 -144 69 -220.5t223 -76.5q120 0 205.5 84.5t85.5 208.5v631h170v-1065h-129l-22 168q-47 -87 -140.5 -137.5t-203.5 -50.5
q-214 0 -321 114.5t-107 329.5v641z" />
    <glyph glyph-name="Uring" unicode="&#x16e;" horiz-adv-x="1466" 
d="M1114 1434h172v-881q0 -253 -146 -403t-405 -150t-405 150t-146 403v881h172v-881q0 -182 102.5 -286.5t276.5 -104.5t276.5 104.5t102.5 286.5v881zM555 1702q0 75 54.5 124.5t125.5 49.5t125.5 -49.5t54.5 -124.5t-54.5 -124.5t-125.5 -49.5t-125.5 49.5t-54.5 124.5z
M735 1802q-43 0 -76.5 -28t-33.5 -72t33.5 -72t76.5 -28q44 0 77.5 28t33.5 72t-33.5 72t-77.5 28z" />
    <glyph glyph-name="uring" unicode="&#x16f;" horiz-adv-x="1236" 
d="M426 1372q0 75 54.5 124.5t125.5 49.5t125.5 -49.5t54.5 -124.5t-54.5 -124.5t-125.5 -49.5t-125.5 49.5t-54.5 124.5zM606 1473q-43 0 -76.5 -28.5t-33.5 -72.5t33.5 -72t76.5 -28q44 0 77.5 28t33.5 72t-34 72.5t-77 28.5zM152 1065h170v-627q0 -144 69 -220.5
t223 -76.5q120 0 205.5 84.5t85.5 208.5v631h170v-1065h-129l-22 168q-47 -87 -140.5 -137.5t-203.5 -50.5q-214 0 -321 114.5t-107 329.5v641z" />
    <glyph glyph-name="Uhungarumlaut" unicode="&#x170;" horiz-adv-x="1466" 
d="M651 1841l135 -78l-159 -237h-95zM913 1841l134 -78l-160 -237h-94zM1114 1434h172v-881q0 -253 -146 -403t-405 -150t-405 150t-146 403v881h172v-881q0 -182 102.5 -286.5t276.5 -104.5t276.5 104.5t102.5 286.5v881z" />
    <glyph glyph-name="uhungarumlaut" unicode="&#x171;" horiz-adv-x="1236" 
d="M799 1513l135 -77l-160 -238h-94zM539 1513l135 -77l-162 -238h-92zM152 1065h170v-627q0 -144 69 -220.5t223 -76.5q120 0 205.5 84.5t85.5 208.5v631h170v-1065h-129l-22 168q-47 -87 -140.5 -137.5t-203.5 -50.5q-214 0 -321 114.5t-107 329.5v641z" />
    <glyph glyph-name="Uogonek" unicode="&#x172;" horiz-adv-x="1468" 
d="M1114 1434h172v-881q0 -251 -143 -400.5t-398 -152.5q-21 -8 -41 -18.5t-43.5 -28.5t-38 -45.5t-14.5 -59.5q0 -84 88 -84q25 0 88 13l25 -80q-54 -32 -115 -35q-80 -2 -131 41.5t-51 118.5q0 59 33.5 106.5t93.5 77.5q-216 27 -335.5 173t-119.5 374v881h172v-881
q0 -182 102.5 -286.5t276.5 -104.5t276.5 104.5t102.5 286.5v881z" />
    <glyph glyph-name="uogonek" unicode="&#x173;" horiz-adv-x="1236" 
d="M152 1065h170v-627q0 -144 69 -220.5t223 -76.5q120 0 205.5 84.5t85.5 208.5v631h170v-1065h-16q-21 -8 -40.5 -18.5t-43.5 -28.5t-38.5 -45.5t-14.5 -59.5q0 -84 88 -84q25 0 88 13l26 -80q-53 -32 -114 -35q-79 -3 -132 41.5t-53 118.5q0 118 140 178h-19l-22 168
q-47 -87 -140.5 -137.5t-203.5 -50.5q-214 0 -321 114.5t-107 329.5v641z" />
    <glyph glyph-name="Wcircumflex" unicode="&#x174;" horiz-adv-x="1976" 
d="M825 1526h-127l228 248h118l234 -248h-133l-158 143zM1749 1434h186l-440 -1434h-172l-334 1149l-334 -1149h-172l-440 1434h186l334 -1172h4l336 1172h172l336 -1172h4z" />
    <glyph glyph-name="wcircumflex" unicode="&#x175;" horiz-adv-x="1638" 
d="M37 1065h178l260 -860h6l252 860h172l252 -860h6l258 860h178l-348 -1065h-178l-252 838l-254 -838h-180zM657 1198h-129l230 248h119l233 -248h-133l-158 143z" />
    <glyph glyph-name="Ycircumflex" unicode="&#x176;" horiz-adv-x="1210" 
d="M442 1526h-129l230 248h119l233 -248h-133l-158 143zM10 1434h191l401 -689h2l406 689h186l-504 -850v-584h-172v584z" />
    <glyph glyph-name="ycircumflex" unicode="&#x177;" horiz-adv-x="1077" 
d="M29 1065h176l330 -883h6l329 883h179l-443 -1108q-29 -70 -54 -117.5t-62.5 -94t-87 -70t-111.5 -23.5q-98 0 -193 33l33 153q86 -25 152 -22q27 0 50 12t39 28.5t32 44t25.5 49.5t21.5 54zM381 1198h-127l227 248h119l234 -248h-134l-157 143z" />
    <glyph glyph-name="Ydieresis" unicode="&#x178;" horiz-adv-x="1210" 
d="M10 1434h191l401 -689h2l406 689h186l-504 -850v-584h-172v584zM502 1624q0 -42 -29.5 -70t-79.5 -28q-43 0 -71.5 28.5t-28.5 69.5q0 44 30 74.5t70 30.5q50 0 79.5 -29t29.5 -76zM918 1624q0 -42 -30 -70t-79 -28q-43 0 -72.5 28.5t-29.5 69.5q0 44 30.5 74.5
t71.5 30.5q49 0 79 -29.5t30 -75.5z" />
    <glyph glyph-name="Zacute" unicode="&#x179;" horiz-adv-x="1263" 
d="M684 1862l141 -80l-182 -256h-94zM106 1434h1063v-129l-872 -1153l2 -2l250 6h620v-156h-1091v119l878 1161q0 1 -1 2t-1 2l-301 -2h-547v152z" />
    <glyph glyph-name="zacute" unicode="&#x17a;" horiz-adv-x="1052" 
d="M559 1534l141 -80l-182 -256h-94zM104 1065h861v-129l-682 -799q2 -4 2 -6l262 6h418v-137h-887v127l698 797v4l-366 -4h-306v141z" />
    <glyph glyph-name="Zdotaccent" unicode="&#x17b;" horiz-adv-x="1263" 
d="M727 1622q0 -42 -28.5 -69t-75.5 -27q-42 0 -70.5 27.5t-28.5 68.5q0 42 29.5 71t69.5 29q47 0 75.5 -27.5t28.5 -72.5zM106 1434h1063v-129l-872 -1153l2 -2l250 6h620v-156h-1091v119l878 1161q0 1 -1 2t-1 2l-301 -2h-547v152z" />
    <glyph glyph-name="zdotaccent" unicode="&#x17c;" horiz-adv-x="1052" 
d="M633 1294q0 -42 -29 -69t-76 -27q-43 0 -71.5 27.5t-28.5 68.5q0 42 30 71.5t70 29.5q47 0 76 -28t29 -73zM104 1065h861v-129l-682 -799q2 -4 2 -6l262 6h418v-137h-887v127l698 797v4l-366 -4h-306v141z" />
    <glyph glyph-name="Zcaron" unicode="&#x17d;" horiz-adv-x="1263" 
d="M346 1774h129l162 -142l158 142h133l-236 -248h-117zM106 1434h1063v-129l-872 -1153l2 -2l250 6h620v-156h-1091v119l878 1161q0 1 -1 2t-1 2l-301 -2h-547v152z" />
    <glyph glyph-name="zcaron" unicode="&#x17e;" horiz-adv-x="1052" 
d="M242 1446h129l161 -141l158 141h133l-233 -248h-119zM104 1065h861v-129l-682 -799q2 -4 2 -6l262 6h418v-137h-887v127l698 797v4l-366 -4h-306v141z" />
    <glyph glyph-name="AEacute" unicode="&#x1fc;" horiz-adv-x="1937" 
d="M1266 1862l141 -80l-182 -256h-95zM1835 0h-934v391h-516l-178 -391h-189l680 1434h1108v-160h-733v-498h619v-155h-619v-461h762v-160zM901 1274h-125l-330 -744h455v744z" />
    <glyph glyph-name="aeacute" unicode="&#x1fd;" horiz-adv-x="1869" 
d="M1018 1534l141 -80l-182 -256h-94zM174 1022q183 63 381 63q281 0 369 -163q150 163 376 163q114 0 208.5 -45.5t154.5 -121t92.5 -171t32.5 -198.5q0 -23 -1.5 -44.5t-2.5 -31.5l-2 -10h-830q10 -151 117 -242.5t264 -91.5t322 72l57 -129q-75 -39 -176.5 -65.5
t-206.5 -26.5q-145 0 -263 61t-192 168q-86 -129 -184 -179t-225 -50q-172 0 -282.5 89.5t-110.5 256.5q1 82 36.5 145.5t98 102t142 58t173.5 19.5q107 0 260 -24q9 49 23 88v2q0 66 -20 112t-59 70.5t-86.5 34.5t-111.5 10q-71 0 -163 -12t-156 -31zM481 117
q118 0 212.5 70t109.5 167q-21 64 -27 140q-113 24 -237 24q-312 0 -312 -192q0 -99 75.5 -154t178.5 -55zM952 594h676q-2 66 -22 125.5t-57.5 109t-99 78.5t-138.5 29q-145 0 -245 -96.5t-114 -245.5z" />
    <glyph glyph-name="Oslashacute" unicode="&#x1fe;" horiz-adv-x="1685" 
d="M1407 1495l-121 -188q135 -104 214 -258t79 -330q0 -153 -59.5 -291t-159.5 -235.5t-235 -155t-281 -57.5q-187 0 -357 90l-88 -136h-112l123 187q-141 103 -221 259t-80 339q0 154 60 291.5t160 234t234.5 153t280.5 56.5q192 0 364 -96l88 137h111zM289 717
q0 -140 55 -259.5t152 -197.5l624 963q-126 75 -280 75t-280.5 -76t-198.5 -209t-72 -296zM1397 717q0 135 -54 252t-149 196l-623 -962q121 -68 273 -68q117 0 220 45t176 122t115 185t42 230zM948 1862l142 -80l-183 -256h-94z" />
    <glyph glyph-name="oslashacute" unicode="&#x1ff;" horiz-adv-x="1288" 
d="M96 532q0 154 73 281t198.5 199.5t275.5 72.5q144 0 266 -67l84 129h90l-110 -170q103 -75 162 -191.5t59 -253.5q0 -115 -43.5 -218t-117.5 -176t-175.5 -115.5t-214.5 -42.5q-148 0 -268 69l-78 -121h-90l104 162q-100 77 -157.5 192t-57.5 250zM1020 532q0 92 -35 173
t-98 137l-428 -664q84 -49 184 -49q159 0 268 117.5t109 285.5zM643 936q-159 0 -267 -117t-108 -287q0 -91 34 -171t95 -136l428 662q-84 49 -182 49zM690 1534l141 -80l-184 -256h-94z" />
    <glyph glyph-name="Scommaaccent" unicode="&#x218;" horiz-adv-x="1224" 
d="M582 -111q47 0 73.5 -35t26.5 -81q0 -64 -40.5 -114t-102.5 -81l-31 51q85 62 82 125q-11 -8 -25 -8q-27 0 -44 21t-17 49q0 30 24.5 51.5t53.5 21.5zM612 -20q-112 0 -227 25t-173 47.5t-103 45.5l63 138q39 -20 92 -40.5t154 -42.5t196 -22q164 0 255.5 61.5
t91.5 174.5q0 58 -28.5 102.5t-77 73t-111.5 51t-132.5 42.5t-139 41.5t-132.5 53.5t-111.5 74t-77 107.5t-28.5 148.5q0 183 131 288t362 105q129 0 250 -30t201 -66l-61 -135q-21 9 -57 22.5t-136.5 35.5t-187.5 22q-151 0 -242.5 -58t-91.5 -170q0 -59 28.5 -104.5
t77 -75t111.5 -53t132.5 -44t138.5 -43t132 -54t111.5 -73t77 -105t28.5 -144.5q0 -189 -138 -294t-378 -105z" />
    <glyph glyph-name="scommaaccent" unicode="&#x219;" horiz-adv-x="970" 
d="M475 -111q47 0 73.5 -35t26.5 -81q0 -121 -143 -193l-29 45q40 27 66.5 63t22.5 74q-13 -16 -37 -16q-27 0 -44.5 20t-17.5 48q0 32 25.5 53.5t56.5 21.5zM479 -20q-192 0 -383 90l54 127q158 -74 323 -74q125 0 188.5 43.5t63.5 116.5q0 44 -26.5 77t-70.5 52t-99.5 37
t-114 32t-114 39t-99.5 56t-70.5 84t-26.5 122q0 138 102.5 220.5t280.5 82.5q102 0 199 -23.5t154 -51.5l-54 -127q-16 7 -43.5 16.5t-103.5 26t-141 16.5q-109 0 -172.5 -42t-63.5 -114q0 -50 34.5 -84.5t89.5 -55t121 -38.5t132.5 -41.5t121.5 -55.5t89.5 -89.5
t34.5 -136.5q0 -141 -109 -223t-297 -82z" />
    <glyph glyph-name="circumflex" unicode="&#x2c6;" horiz-adv-x="823" 
d="M188 1268h-129l228 248h119l233 -248h-133l-158 143z" />
    <glyph glyph-name="caron" unicode="&#x2c7;" horiz-adv-x="823" 
d="M113 1516h127l161 -142l158 142h133l-233 -248h-119z" />
    <glyph glyph-name="breve" unicode="&#x2d8;" horiz-adv-x="806" 
d="M143 1475h86q24 -67 61 -99.5t113 -32.5q75 0 112.5 32t59.5 100h89q-14 -118 -76.5 -178t-184.5 -60t-183 59t-77 179z" />
    <glyph glyph-name="dotaccent" unicode="&#x2d9;" horiz-adv-x="561" 
d="M317 1479q0 -43 -28.5 -70t-75.5 -27q-43 0 -71.5 27.5t-28.5 69.5q0 41 30 69.5t70 28.5q47 0 75.5 -27t28.5 -71z" />
    <glyph glyph-name="ring" unicode="&#x2da;" horiz-adv-x="647" 
d="M145 1333q0 75 55 124.5t126 49.5t125.5 -49.5t54.5 -124.5t-54.5 -124.5t-125.5 -49.5t-126 49.5t-55 124.5zM326 1434q-43 0 -77 -28.5t-34 -72.5t33.5 -72t77.5 -28q43 0 76.5 28t33.5 72t-33.5 72.5t-76.5 28.5z" />
    <glyph glyph-name="ogonek" unicode="&#x2db;" horiz-adv-x="450" 
d="M301 37l8 -37q-21 -8 -40.5 -18.5t-43.5 -28.5t-38.5 -45.5t-14.5 -59.5q0 -84 88 -84q25 0 88 13l27 -80q-53 -31 -115 -35q-80 -2 -132 41.5t-52 118.5q0 80 62.5 137t162.5 78z" />
    <glyph glyph-name="tilde" unicode="&#x2dc;" horiz-adv-x="870" 
d="M131 1255l-55 41q37 64 90.5 102t116.5 38q43 0 121 -40t126 -40q67 0 115 65l53 -39q-34 -63 -86.5 -102t-113.5 -39q-42 0 -122 40t-132 40q-61 0 -113 -66z" />
    <glyph glyph-name="hungarumlaut" unicode="&#x2dd;" horiz-adv-x="827" 
d="M262 1522l135 -80l-159 -236h-95zM524 1522l133 -80l-157 -236h-97z" />
    <glyph glyph-name="mu" unicode="&#x3bc;" horiz-adv-x="1259" 
d="M160 1065h155v-616q0 -132 85 -211.5t221 -79.5q142 0 231.5 77.5t89.5 217.5v612h158v-1065h-119l-29 168q-40 -73 -126.5 -120.5t-207.5 -47.5q-103 0 -186 48t-117 126v-522h-155v1413z" />
    <glyph glyph-name="Wgrave" unicode="&#x1e80;" horiz-adv-x="1976" 
d="M754 1782l141 80l135 -336h-94zM1749 1434h186l-440 -1434h-172l-334 1149l-334 -1149h-172l-440 1434h186l334 -1172h4l336 1172h172l336 -1172h4z" />
    <glyph glyph-name="wgrave" unicode="&#x1e81;" horiz-adv-x="1638" 
d="M37 1065h178l260 -860h6l252 860h172l252 -860h6l258 860h178l-348 -1065h-178l-252 838l-254 -838h-180zM590 1454l141 80l137 -336h-94z" />
    <glyph glyph-name="Wacute" unicode="&#x1e82;" horiz-adv-x="1976" 
d="M1083 1862l142 -80l-183 -256h-94zM1749 1434h186l-440 -1434h-172l-334 1149l-334 -1149h-172l-440 1434h186l334 -1172h4l336 1172h172l336 -1172h4z" />
    <glyph glyph-name="wacute" unicode="&#x1e83;" horiz-adv-x="1638" 
d="M37 1065h178l260 -860h6l252 860h172l252 -860h6l258 860h178l-348 -1065h-178l-252 838l-254 -838h-180zM918 1534l143 -80l-184 -256h-95z" />
    <glyph glyph-name="Wdieresis" unicode="&#x1e84;" horiz-adv-x="1976" 
d="M1749 1434h186l-440 -1434h-172l-334 1149l-334 -1149h-172l-440 1434h186l334 -1172h4l336 1172h172l336 -1172h4zM889 1624q0 -42 -29.5 -70t-79.5 -28q-43 0 -71.5 28.5t-28.5 69.5q0 44 30 74.5t70 30.5q50 0 79.5 -29t29.5 -76zM1305 1624q0 -42 -30 -70t-79 -28
q-43 0 -72.5 28.5t-29.5 69.5q0 44 31 74.5t71 30.5q49 0 79 -29.5t30 -75.5z" />
    <glyph glyph-name="wdieresis" unicode="&#x1e85;" horiz-adv-x="1638" 
d="M37 1065h178l260 -860h6l252 860h172l252 -860h6l258 860h178l-348 -1065h-178l-252 838l-254 -838h-180zM717 1296q0 -42 -30 -70t-79 -28q-43 0 -72.5 28.5t-29.5 69.5q0 44 31 74.5t71 30.5q49 0 79 -29.5t30 -75.5zM1130 1296q0 -42 -29 -70t-77 -28q-44 0 -73 28
t-29 70q0 44 30 74.5t72 30.5q49 0 77.5 -29t28.5 -76z" />
    <glyph glyph-name="germandbls.case" unicode="&#x1e9e;" horiz-adv-x="1472" 
d="M195 922q0 238 129.5 385t371.5 147q295 0 475 -223l-249 -416q91 -13 165 -41.5t136 -76t96.5 -123t34.5 -173.5q0 -191 -140 -316.5t-348 -125.5q-153 0 -288 66l53 143q31 -15 99 -31t130 -16q131 0 230.5 80.5t99.5 208.5q0 62 -21.5 110.5t-57 80t-87.5 53
t-106.5 32t-120.5 14.5l-49 97l239 401q-43 39 -116 70.5t-166 31.5q-177 0 -258.5 -102.5t-81.5 -273.5v-924h-170v922z" />
    <glyph glyph-name="Ygrave" unicode="&#x1ef2;" horiz-adv-x="1210" 
d="M389 1782l141 80l138 -336h-95zM10 1434h191l401 -689h2l406 689h186l-504 -850v-584h-172v584z" />
    <glyph glyph-name="ygrave" unicode="&#x1ef3;" horiz-adv-x="1077" 
d="M29 1065h176l330 -883h6l329 883h179l-443 -1108q-29 -70 -54 -117.5t-62.5 -94t-87 -70t-111.5 -23.5q-98 0 -193 33l33 153q86 -25 152 -22q27 0 50 12t39 28.5t32 44t25.5 49.5t21.5 54zM315 1454l142 80l135 -336h-94z" />
    <glyph glyph-name="endash" unicode="&#x2013;" horiz-adv-x="1443" 
d="M145 731h1153v-119h-1153v119z" />
    <glyph glyph-name="emdash" unicode="&#x2014;" horiz-adv-x="1662" 
d="M145 731h1373v-119h-1373v119z" />
    <glyph glyph-name="quoteleft" unicode="&#x2018;" horiz-adv-x="495" 
d="M258 981q-67 0 -107 55.5t-40 126.5q0 96 63.5 169.5t157.5 121.5l41 -68q-15 -8 -39 -27.5t-51.5 -48.5t-43 -66t-6.5 -70q15 20 50 20q45 0 68.5 -29.5t23.5 -72.5q0 -48 -36 -79.5t-81 -31.5z" />
    <glyph glyph-name="quoteright" unicode="&#x2019;" horiz-adv-x="495" 
d="M246 1454q67 0 107 -55.5t40 -126.5q0 -96 -63.5 -169.5t-157.5 -121.5l-43 68q22 11 56.5 40.5t64 79.5t18.5 93q-12 -21 -49 -21q-43 0 -66.5 29.5t-23.5 72.5q0 49 35 80t82 31z" />
    <glyph glyph-name="quotesinglbase" unicode="&#x201a;" horiz-adv-x="505" 
d="M242 211q67 0 107 -55t40 -127q0 -95 -64 -169.5t-157 -119.5l-41 65q15 9 38.5 29t50.5 49t42 66t6 69q-12 -18 -49 -18q-43 0 -66.5 29.5t-23.5 70.5q0 49 36 80t81 31z" />
    <glyph glyph-name="quotedblleft" unicode="&#x201c;" horiz-adv-x="921" 
d="M672 981q-67 0 -107.5 55.5t-40.5 126.5q0 96 63.5 169.5t157.5 121.5l43 -68q-15 -7 -39.5 -27t-51.5 -49t-42 -66t-6 -70q12 20 49 20q43 0 66.5 -29.5t23.5 -72.5q0 -48 -35 -79.5t-81 -31.5zM276 981q-67 0 -107 55.5t-40 126.5q0 96 63.5 169.5t157.5 121.5l41 -68
q-15 -8 -39 -27.5t-51 -48.5t-42.5 -66t-6.5 -70q14 20 49 20q45 0 68.5 -29.5t23.5 -72.5q0 -48 -36 -79.5t-81 -31.5z" />
    <glyph glyph-name="quotedblright" unicode="&#x201d;" horiz-adv-x="927" 
d="M264 1454q67 0 107.5 -55.5t40.5 -126.5q0 -96 -63.5 -169.5t-158.5 -121.5l-43 68q15 7 39.5 27.5t52 49.5t42.5 66t6 70q-12 -21 -49 -21q-43 0 -67 29.5t-24 72.5q0 48 35.5 79.5t81.5 31.5zM659 1454q67 0 107.5 -55.5t40.5 -126.5q0 -96 -63.5 -169.5t-157.5 -121.5
l-41 68q15 8 39 27.5t51 49t42.5 66.5t6.5 70q-14 -21 -51 -21q-43 0 -66.5 29.5t-23.5 72.5q0 48 35.5 79.5t80.5 31.5z" />
    <glyph glyph-name="quotedblbase" unicode="&#x201e;" horiz-adv-x="931" 
d="M256 211q67 0 107 -55t40 -127q0 -95 -64 -169.5t-157 -119.5l-43 65q16 9 40 29t51.5 49t42.5 66t6 69q-13 -18 -50 -18q-43 0 -66.5 29.5t-23.5 70.5q0 49 35 80t82 31zM651 211q67 0 107.5 -55t40.5 -127q0 -95 -64 -169.5t-157 -119.5l-41 65q15 9 38.5 29t51.5 49
t43 66t6 69q-14 -18 -51 -18q-43 0 -66.5 29.5t-23.5 70.5q0 49 35.5 80t80.5 31z" />
    <glyph glyph-name="dagger" unicode="&#x2020;" horiz-adv-x="1118" 
d="M483 1434h152l-21 -1227h-110zM113 1116l305 -29v-83l-305 -25v137zM1006 1116v-137l-306 25v83z" />
    <glyph glyph-name="daggerdbl" unicode="&#x2021;" horiz-adv-x="1157" 
d="M502 1434h153l-20 -1434h-111zM1026 1116v-137l-305 25v83zM131 1116l305 -29v-83l-305 -25v137zM1026 563v-141l-305 24v86zM131 563l305 -31v-86l-305 -24v141z" />
    <glyph glyph-name="bullet" unicode="&#x2022;" horiz-adv-x="634" 
d="M317 907q80 0 136.5 -56.5t56.5 -137.5q0 -77 -57 -133t-136 -56q-78 0 -136 57t-58 136q0 78 58 134t136 56z" />
    <glyph glyph-name="ellipsis" unicode="&#x2026;" horiz-adv-x="1316" 
d="M244 213q47 0 80.5 -33t33.5 -80q0 -46 -33.5 -78t-80.5 -32q-46 0 -79.5 32.5t-33.5 77.5q0 47 33.5 80t79.5 33zM647 213q47 0 80 -33t33 -80q0 -46 -33 -78t-80 -32t-79.5 32t-32.5 78q0 47 32.5 80t79.5 33zM1071 213q49 0 82 -32.5t33 -80.5q0 -46 -33 -78t-82 -32
q-46 0 -78 32t-32 78q0 47 32 80t78 33z" />
    <glyph glyph-name="perthousand" unicode="&#x2030;" horiz-adv-x="2516" 
d="M430 760q-143 0 -232 97t-89 247q0 152 90 251t235 99t234.5 -98t89.5 -250q0 -150 -91 -248t-237 -98zM352 0l826 1434h145l-823 -1434h-148zM1251 -20q-146 0 -235.5 97t-89.5 247q0 152 91 251t236 99q143 0 233.5 -98.5t90.5 -249.5q0 -150 -90.5 -248t-235.5 -98z
M434 879q87 0 138 62t51 163q0 103 -53.5 167t-139.5 64q-85 0 -135.5 -63t-50.5 -164t52.5 -165t137.5 -64zM1253 98q87 0 138 62t51 162q0 103 -53.5 168t-139.5 65t-136 -63t-50 -166q0 -101 52.5 -164.5t137.5 -63.5zM2087 -20q-145 0 -234.5 97t-89.5 247
q0 152 91.5 251t236.5 99q143 0 232.5 -98.5t89.5 -249.5q0 -150 -90 -248t-236 -98zM2091 98q86 0 136 62t50 162q0 103 -52 168t-138 65t-136 -63t-50 -166q0 -101 52.5 -164.5t137.5 -63.5z" />
    <glyph glyph-name="guilsinglleft" unicode="&#x2039;" horiz-adv-x="720" 
d="M522 1018l86 -88l-317 -400l315 -401l-84 -86l-424 473v31z" />
    <glyph glyph-name="guilsinglright" unicode="&#x203a;" horiz-adv-x="720" 
d="M199 1018l424 -471v-31l-424 -473l-84 86l315 401l-317 400z" />
    <glyph glyph-name="fraction" unicode="&#x2044;" horiz-adv-x="796" 
d="M649 1434h139l-636 -1434h-142q117 260 639 1434z" />
    <glyph glyph-name="Euro" unicode="&#x20ac;" horiz-adv-x="1619" 
d="M119 635h215q-4 54 -4 84q0 47 6 94h-217v98h237q43 155 147 278t254.5 194t321.5 71q113 0 229.5 -31t200.5 -77l-61 -129q-19 9 -52.5 22.5t-129 36t-183.5 22.5q-191 0 -336.5 -107t-201.5 -280h508v-98h-535q-8 -41 -8 -94q0 -43 6 -84h537v-96h-514
q53 -181 201.5 -292.5t344.5 -111.5q88 1 179 22.5t138 42.5l46 21l61 -131q-85 -47 -200.5 -78.5t-229.5 -31.5q-256 0 -462 155.5t-267 403.5h-231v96z" />
    <glyph glyph-name="trademark" unicode="&#x2122;" horiz-adv-x="1611" 
d="M154 1434h532v-103h-213v-530h-106v530h-213v103zM805 1434h88l223 -379l221 379h84v-633h-98v424l-174 -322h-68l-178 328v-430h-98v633z" />
    <glyph glyph-name="commaaccent" unicode="&#xf6c3;" horiz-adv-x="505" 
d="M295 -111q46 0 72 -34.5t26 -79.5q0 -121 -143 -193l-29 45q96 63 88 135q-13 -16 -37 -16q-27 0 -44 20t-17 50q0 32 26 52.5t58 20.5z" />
    <glyph glyph-name="CR" horiz-adv-x="600" 
 />
    <glyph glyph-name="a.alt" horiz-adv-x="1290" 
d="M623 936q-156 0 -264.5 -115t-108.5 -286q0 -169 107.5 -287.5t263.5 -118.5q154 0 254 116.5t100 291.5q0 176 -100 287.5t-252 111.5zM600 1085q48 0 98 -11.5t101.5 -35.5t97.5 -66.5t76 -99.5l24 193h133v-1065h-167v184q-46 -89 -146.5 -146.5t-224.5 -57.5
q-152 0 -270.5 76.5t-180 201t-61.5 272.5q0 114 38 215.5t105.5 176.5t165.5 119t211 44z" />
    <glyph glyph-name="g.alt" horiz-adv-x="1271" 
d="M152 -246l49 129q76 -38 174.5 -61t185.5 -23q176 0 283.5 90t107.5 252v123q-125 -190 -391 -190q-93 0 -179.5 35.5t-154 99t-107.5 160t-40 211.5t40 211.5t107.5 160t154 98.5t179.5 35q136 0 237.5 -52.5t159.5 -147.5l29 180h125v-901q0 -248 -142 -380t-386 -132
q-245 0 -432 102zM602 223q169 0 264 101t95 254t-95.5 255.5t-263.5 102.5q-154 0 -253 -104t-99 -252t99 -252.5t253 -104.5z" />
    <glyph glyph-name="f_b" horiz-adv-x="1968" 
d="M979 1151v-260q68 97 169.5 145.5t213.5 48.5q150 0 268 -79t179 -204t61 -270q0 -153 -62 -278.5t-179 -199.5t-267 -74q-124 0 -229.5 57.5t-165.5 157.5l-23 -195h-131v1171q0 106 -60 167t-155 61q-92 0 -150.5 -60.5t-58.5 -173.5v-100h221v-129h-221v-936h-168v936
h-151v104l151 25v74q0 170 104.5 283.5t266.5 113.5q163 0 275 -104t112 -281zM1333 936q-157 0 -261.5 -116.5t-104.5 -287.5q0 -172 103.5 -287.5t262.5 -115.5q156 0 260.5 114.5t104.5 288.5t-103.5 289t-261.5 115z" />
    <glyph glyph-name="f_f_b" horiz-adv-x="2531" 
d="M1542 1151v-260q68 97 169.5 145.5t213.5 48.5q150 0 268 -79t179 -204t61 -270q0 -153 -62 -278.5t-179 -199.5t-267 -74q-124 0 -229.5 57.5t-165.5 157.5l-23 -195h-131v1171q0 106 -60 167t-155 61q-92 0 -150.5 -60.5t-58.5 -173.5v-100h222v-129h-222v-936h-168
v936h-395v-936h-168v936h-151v104l151 25v121q0 165 69 247.5t234 82.5q63 0 133 -17l-16 -121q-64 11 -106 11q-36 0 -63 -11t-42.5 -28t-25 -43t-12.5 -51t-3 -56v-135h395v74q0 170 104.5 283.5t266.5 113.5q163 0 275 -104t112 -281zM1896 936q-157 0 -261.5 -116.5
t-104.5 -287.5q0 -172 103.5 -287.5t262.5 -115.5q156 0 260.5 114.5t104.5 288.5t-103.5 289t-261.5 115z" />
    <glyph glyph-name="f_h" horiz-adv-x="1888" 
d="M981 0h-170v1171q0 106 -60 167t-155 61q-92 0 -150.5 -60.5t-58.5 -173.5v-100h221v-129h-221v-936h-168v936h-151v104l151 25v74q0 171 105 284t270 113q103 0 188 -44.5t138 -133.5t53 -207v-248q16 27 44 55.5t71.5 58.5t108 49t138.5 19q182 0 292 -115.5
t110 -338.5v-631h-170v627q0 138 -72 217.5t-199 79.5q-62 0 -115 -20t-89 -53t-61.5 -76.5t-37.5 -89.5t-12 -93v-592z" />
    <glyph glyph-name="f_f_h" horiz-adv-x="2467" 
d="M1548 0h-170v1171q0 106 -60 167t-155 61q-92 0 -150.5 -60.5t-58.5 -173.5v-100h222v-129h-222v-936h-168v936h-395v-936h-168v936h-151v104l151 25v141q0 165 69 247.5t234 82.5q67 0 133 -16l-16 -121q-58 10 -106 10q-45 0 -75.5 -15.5t-45 -44t-20 -58.5t-5.5 -70
v-156h395v74q0 170 104.5 283.5t266.5 113.5q163 0 273 -104t110 -281v-248q16 27 44.5 55.5t72 58.5t108 49t136.5 19q185 0 294 -115.5t109 -338.5v-631h-170v627q0 139 -71.5 218t-198.5 79q-62 0 -115 -20t-89.5 -53t-62 -76.5t-37.5 -89.5t-12 -93v-592z" />
    <glyph glyph-name="f_k" horiz-adv-x="1687" 
d="M975 0h-162v1171q0 106 -60 167t-155 61q-92 0 -150.5 -60.5t-58.5 -173.5v-100h221v-129h-221v-936h-168v936h-151v104l151 25v74q0 170 104.5 283.5t266.5 113.5q163 0 273 -104t110 -281v-639l461 553h215l-432 -496l426 -569h-195l-330 446l-145 -159v-287z" />
    <glyph glyph-name="f_f_k" horiz-adv-x="2267" 
d="M1538 1151v-639l205 248l254 305h215l-434 -496l426 -569h-195l-330 446l-141 -149v-297h-162v1171q0 106 -60 167t-155 61q-92 0 -150.5 -60.5t-58.5 -173.5v-100h222v-129h-222v-936h-168v936h-395v-936h-168v936h-151v104l151 25v121q0 165 69 247.5t234 82.5
q63 0 133 -17l-16 -121q-64 11 -106 11q-36 0 -63 -11t-42.5 -28t-25 -43t-12.5 -51t-3 -56v-135h395v74q0 170 104.5 283.5t266.5 113.5q163 0 273 -104t110 -281z" />
    <glyph glyph-name="dollar.tnum" 
d="M758 -188h-109v168q-150 7 -275.5 44.5t-187.5 73.5l68 144q222 -105 440 -105q162 0 253 60.5t91 169.5q0 56 -28.5 99.5t-77 71t-111.5 50t-132.5 42.5t-138.5 42.5t-132 55t-111.5 75t-77 108t-28.5 148.5q0 174 118 278.5t330 116.5v176h109v-176q213 -15 395 -96
l-63 -144q-21 9 -57 22.5t-136.5 36.5t-187.5 23q-148 0 -240 -57.5t-92 -165.5q0 -57 28.5 -100.5t77.5 -72.5t112 -52t132.5 -43.5t139 -43.5t132.5 -55.5t112 -74t77.5 -105.5t28.5 -145q0 -178 -122 -282t-337 -119v-168z" />
    <glyph glyph-name="percent.tnum" 
d="M303 760q-135 0 -220 97.5t-85 246.5v4q0 149 86 247.5t223 98.5q138 0 222.5 -97t84.5 -247v-4q0 -150 -86 -248t-225 -98zM229 0l781 1434h145l-780 -1434h-146zM1085 -20q-138 0 -222.5 97t-84.5 247v4q0 149 87 247.5t225 98.5q135 0 220 -98t85 -246v-4
q0 -150 -86 -248t-224 -98zM307 879q81 0 127.5 62t46.5 163v4q0 100 -49.5 163.5t-128.5 63.5q-77 0 -124.5 -62.5t-47.5 -160.5v-4q0 -101 49.5 -165t126.5 -64zM1090 98q79 0 125.5 62t46.5 162v4q0 100 -49.5 164.5t-127.5 64.5q-80 0 -126 -62.5t-46 -162.5v-4
q0 -101 49.5 -164.5t127.5 -63.5z" />
    <glyph glyph-name="plus.tnum" 
d="M635 1065h121v-338h377v-119h-377v-338h-121v338h-377v119h377v338z" />
    <glyph glyph-name="hyphen.tnum" 
d="M289 731h813v-119h-813v119z" />
    <glyph glyph-name="zero.tnum" 
d="M694 -20q-174 0 -308.5 101t-204.5 267t-70 367q0 150 41.5 284t116 235t186 160.5t243.5 59.5q173 0 307.5 -101t204.5 -267t70 -365q0 -150 -41.5 -285t-116 -236t-185.5 -160.5t-243 -59.5zM698 133q124 0 218.5 80.5t142 211.5t47.5 288t-48.5 289.5t-144 215
t-219.5 82.5q-123 0 -217 -80.5t-142 -212t-48 -290.5q0 -157 48 -289t143 -213.5t220 -81.5z" />
    <glyph glyph-name="one.tnum" 
d="M338 0v143h346v1084l-4 4l-270 -94l-64 123l375 174h125v-1291h354v-143h-862z" />
    <glyph glyph-name="two.tnum" horiz-adv-x="1413" 
d="M231 1341q213 113 422 113q213 0 352.5 -119.5t139.5 -310.5q0 -260 -336 -543l-395 -338h768v-143h-985v137l512 463q52 48 90.5 88t83.5 98t69.5 119.5t24.5 120.5q0 123 -95.5 197.5t-236.5 76.5q-161 2 -356 -77z" />
    <glyph glyph-name="three.tnum" 
d="M291 1245l-53 127q229 82 397 78q204 -5 336.5 -105.5t132.5 -259.5q0 -119 -72.5 -200t-181.5 -109q143 -39 230 -134.5t87 -240.5q0 -133 -78 -230.5t-200.5 -144t-270.5 -46.5q-232 0 -425 106l65 117q66 -29 165 -49.5t179 -22.5q107 -2 197 31.5t145 100t55 151.5
q0 75 -40 134.5t-104 94.5t-136 53t-144 19l-118 2l2 121h129q45 0 90.5 6t94 22.5t85 41.5t60.5 66.5t24 94.5q0 106 -93.5 165.5t-254.5 59.5q-139 0 -303 -49z" />
    <glyph glyph-name="four.tnum" 
d="M909 1434h129v-930h187v-146h-187v-358h-153v358h-754v123zM885 1163l-566 -659h566v659z" />
    <glyph glyph-name="five.tnum" 
d="M1120 1434v-142h-637l-55 -428q142 66 262 66q137 0 253 -59t185.5 -166.5t69.5 -239.5q0 -140 -75.5 -252t-203.5 -172.5t-282 -60.5q-238 0 -449 110l58 123q72 -34 175.5 -57t207.5 -23q164 0 283.5 99t119.5 239q0 133 -107 222t-263 89q-151 0 -275 -92l-135 68
l96 676h772z" />
    <glyph glyph-name="six.tnum" 
d="M1149 1372l-49 -127q-166 60 -318 60q-442 0 -442 -594h6q50 96 154.5 156.5t244.5 60.5q132 0 240.5 -55t174 -162.5t65.5 -247.5q0 -215 -146 -349t-368 -134q-110 0 -199 37t-149.5 100.5t-101 153t-59 191t-18.5 216.5q0 74 7.5 146t26 150t47.5 146.5t76 130.5
t106 106.5t142 70.5t181 26q184 0 379 -82zM723 776q-155 0 -256.5 -92.5t-101.5 -230.5q0 -136 98 -229t252 -93q158 0 257 96.5t99 233.5q0 134 -97.5 224.5t-250.5 90.5z" />
    <glyph glyph-name="seven.tnum" 
d="M197 1434h1020v-146l-650 -1288h-180l651 1282h-841v152z" />
    <glyph glyph-name="eight.tnum" 
d="M696 1454q110 0 206.5 -45.5t157 -132.5t60.5 -197q0 -107 -56 -190.5t-144 -118.5q127 -38 204.5 -131t77.5 -225q0 -131 -74 -232t-188.5 -151.5t-245.5 -50.5q-132 0 -246.5 51t-188 151.5t-73.5 229.5q0 125 80 221.5t203 136.5q-89 34 -146 118.5t-57 190.5
q0 110 61 197t158.5 132.5t210.5 45.5zM698 686q-154 0 -252 -77.5t-98 -200.5q0 -127 99.5 -202t248.5 -75q143 0 243.5 74.5t100.5 204.5q0 125 -98 200.5t-244 75.5zM696 1303q-111 0 -191.5 -61.5t-80.5 -168.5q0 -103 73 -169t199 -66q123 0 198 66.5t75 166.5
q0 107 -82 169.5t-191 62.5z" />
    <glyph glyph-name="nine.tnum" 
d="M188 61l50 127q172 -59 325 -59q87 0 156.5 31t115 84.5t76 130.5t43.5 163.5t13 188.5h-4q-40 -99 -144 -163t-241 -64q-193 0 -329 130t-136 335q0 211 139.5 350t357.5 139q129 0 228 -53t160.5 -148t92.5 -220t31 -275q0 -76 -7.5 -150t-26 -152t-46.5 -146.5
t-72 -129.5t-99.5 -105t-132.5 -69.5t-167 -25.5q-184 0 -383 81zM600 653q148 0 245 93t97 229q0 134 -92 231t-244 97q-153 0 -245.5 -97t-92.5 -233t93.5 -228t238.5 -92z" />
    <glyph glyph-name="equal.tnum" 
d="M307 895h778v-119h-778v119zM307 573h778v-120h-778v120z" />
    <glyph glyph-name="cent.tnum" 
d="M844 -197h-105v179q-225 19 -374.5 176.5t-149.5 373.5q0 211 149 370t375 181v174h105v-172q179 -13 315 -75l-63 -127l-13 5q-13 4 -30.5 9.5t-44.5 12.5t-55.5 12.5t-65 9.5t-70.5 4q-100 0 -184 -37t-136.5 -96.5t-81 -130.5t-28.5 -142q0 -74 30 -145t83.5 -128.5
t136 -92.5t178.5 -35q65 0 136 13.5t99 23t46 16.5l57 -127q-48 -28 -136 -48t-173 -25v-179z" />
    <glyph glyph-name="sterling.tnum" 
d="M1141 1290l-109 -114q-100 108 -239 108q-124 0 -205.5 -77t-81.5 -189v-283h514v-102h-514v-258q0 -45 -11.5 -86t-28 -67t-32.5 -45t-28 -27l-11 -9h785v-141h-961v141q5 2 13 7t28 23t35.5 39.5t28 57.5t12.5 76v289h-115v102h115v264q0 194 120.5 324.5t319.5 130.5
q214 0 365 -164z" />
    <glyph glyph-name="yen.tnum" 
d="M100 1434h193l403 -678h4l404 678h190l-514 -850v-54h260v-98h-260v-88h260v-98h-260v-246h-166v246h-282v98h282v88h-282v98h282v54z" />
    <glyph glyph-name="multiply.tnum" 
d="M428 958l268 -233l269 236l67 -74l-260 -228l260 -223l-67 -78l-269 234l-268 -234l-68 76l258 225l-258 226z" />
    <glyph glyph-name="divide.tnum" 
d="M698 1100q42 0 74.5 -31t32.5 -74t-32.5 -74.5t-74.5 -31.5q-45 0 -77.5 30.5t-32.5 75.5q0 44 32.5 74.5t77.5 30.5zM236 717h921v-117h-921v117zM698 426q42 0 74.5 -31t32.5 -73t-32.5 -73.5t-74.5 -31.5q-45 0 -77.5 30t-32.5 75q0 44 32.5 74t77.5 30z" />
    <glyph glyph-name="Euro.tnum" 
d="M1348 1329l-80 -131q-148 92 -338 92q-180 0 -309 -106.5t-168 -274.5h475v-96h-504q-15 -86 -2 -178h506v-96h-482q38 -176 178.5 -286t325.5 -110q161 0 316 95l82 -134q-194 -124 -404 -124q-251 0 -438.5 154.5t-249.5 404.5h-223v96h207q-5 28 -4.5 85t6.5 93h-209
v96h227q68 247 243.5 396t420.5 149q232 0 424 -125z" />
    <glyph glyph-name="agrave.alt" horiz-adv-x="1290" 
d="M387 1454l143 80l136 -336h-95zM623 936q-156 0 -264.5 -115t-108.5 -286q0 -169 107.5 -287.5t263.5 -118.5q154 0 254 116.5t100 291.5q0 176 -100 287.5t-252 111.5zM600 1085q48 0 98 -11.5t101.5 -35.5t97.5 -66.5t76 -99.5l24 193h133v-1065h-167v184
q-46 -89 -146.5 -146.5t-224.5 -57.5q-152 0 -270.5 76.5t-180 201t-61.5 272.5q0 114 38 215.5t105.5 176.5t165.5 119t211 44z" />
    <glyph glyph-name="acircumflex.alt" horiz-adv-x="1290" 
d="M446 1198h-129l228 248h119l233 -248h-133l-156 143zM623 936q-156 0 -264.5 -115t-108.5 -286q0 -169 107.5 -287.5t263.5 -118.5q154 0 254 116.5t100 291.5q0 176 -100 287.5t-252 111.5zM600 1085q48 0 98 -11.5t101.5 -35.5t97.5 -66.5t76 -99.5l24 193h133v-1065
h-167v184q-46 -89 -146.5 -146.5t-224.5 -57.5q-152 0 -270.5 76.5t-180 201t-61.5 272.5q0 114 38 215.5t105.5 176.5t165.5 119t211 44z" />
    <glyph glyph-name="aacute.alt" horiz-adv-x="1290" 
d="M676 1534l143 -80l-184 -256h-94zM623 936q-156 0 -264.5 -115t-108.5 -286q0 -169 107.5 -287.5t263.5 -118.5q154 0 254 116.5t100 291.5q0 176 -100 287.5t-252 111.5zM600 1085q48 0 98 -11.5t101.5 -35.5t97.5 -66.5t76 -99.5l24 193h133v-1065h-167v184
q-46 -89 -146.5 -146.5t-224.5 -57.5q-152 0 -270.5 76.5t-180 201t-61.5 272.5q0 114 38 215.5t105.5 176.5t165.5 119t211 44z" />
    <glyph glyph-name="adieresis.alt" horiz-adv-x="1290" 
d="M909 1296q0 -42 -29.5 -70t-78.5 -28q-43 0 -73 28.5t-30 69.5q0 43 31 74t72 31q49 0 78.5 -29.5t29.5 -75.5zM494 1296q0 -42 -29.5 -70t-79.5 -28q-43 0 -71.5 28.5t-28.5 69.5q0 44 30 74.5t70 30.5q50 0 79.5 -29t29.5 -76zM623 936q-156 0 -264.5 -115t-108.5 -286
q0 -169 107.5 -287.5t263.5 -118.5q154 0 254 116.5t100 291.5q0 176 -100 287.5t-252 111.5zM600 1085q48 0 98 -11.5t101.5 -35.5t97.5 -66.5t76 -99.5l24 193h133v-1065h-167v184q-46 -89 -146.5 -146.5t-224.5 -57.5q-152 0 -270.5 76.5t-180 201t-61.5 272.5
q0 114 38 215.5t105.5 176.5t165.5 119t211 44z" />
    <glyph glyph-name="aring.alt" horiz-adv-x="1290" 
d="M420 1374q0 75 54.5 124.5t123.5 49.5q72 0 126 -49t54 -123q0 -79 -53.5 -128.5t-126.5 -49.5q-71 0 -124.5 49.5t-53.5 126.5zM489 1372q0 -44 33.5 -72t75.5 -28q45 0 78 27.5t33 72.5t-33.5 73t-77.5 28q-42 0 -75.5 -28.5t-33.5 -72.5zM623 936q-156 0 -264.5 -115
t-108.5 -286q0 -169 107.5 -287.5t263.5 -118.5q154 0 254 116.5t100 291.5q0 176 -100 287.5t-252 111.5zM600 1085q48 0 98 -11.5t101.5 -35.5t97.5 -66.5t76 -99.5l24 193h133v-1065h-167v184q-46 -89 -146.5 -146.5t-224.5 -57.5q-152 0 -270.5 76.5t-180 201
t-61.5 272.5q0 114 38 215.5t105.5 176.5t165.5 119t211 44z" />
    <glyph glyph-name="aogonek.alt" horiz-adv-x="1323" 
d="M600 1085q48 0 98 -11.5t101.5 -35.5t97.5 -66.5t76 -99.5l24 193h133v-1065h-24q-145 -37 -145 -152q0 -84 88 -84q25 0 88 13l26 -80q-60 -35 -119 -35q-72 0 -126 41t-54 119q0 117 135 178h-36v184q-46 -89 -146.5 -146.5t-224.5 -57.5q-152 0 -270.5 76.5t-180 201
t-61.5 272.5q0 114 38 215.5t105.5 176.5t165.5 119t211 44zM623 936q-156 0 -264.5 -115t-108.5 -286q0 -169 107.5 -287.5t263.5 -118.5q154 0 254 116.5t100 291.5q0 176 -100 287.5t-252 111.5z" />
    <glyph glyph-name="amacron.alt" horiz-adv-x="1290" 
d="M291 1307h616v-109h-616v109zM623 936q-156 0 -264.5 -115t-108.5 -286q0 -169 107.5 -287.5t263.5 -118.5q154 0 254 116.5t100 291.5q0 176 -100 287.5t-252 111.5zM600 1085q48 0 98 -11.5t101.5 -35.5t97.5 -66.5t76 -99.5l24 193h133v-1065h-167v184
q-46 -89 -146.5 -146.5t-224.5 -57.5q-152 0 -270.5 76.5t-180 201t-61.5 272.5q0 114 38 215.5t105.5 176.5t165.5 119t211 44z" />
    <glyph glyph-name="atilde.alt" horiz-adv-x="1290" 
d="M336 1214l-55 41q38 63 91.5 101.5t114.5 38.5q43 0 121.5 -40t126.5 -40q67 0 115 65l53 -39q-33 -62 -85.5 -101t-112.5 -40q-44 0 -124.5 40t-131.5 40q-25 0 -48.5 -12t-35.5 -23t-29 -31zM623 936q-156 0 -264.5 -115t-108.5 -286q0 -169 107.5 -287.5t263.5 -118.5
q154 0 254 116.5t100 291.5q0 176 -100 287.5t-252 111.5zM600 1085q48 0 98 -11.5t101.5 -35.5t97.5 -66.5t76 -99.5l24 193h133v-1065h-167v184q-46 -89 -146.5 -146.5t-224.5 -57.5q-152 0 -270.5 76.5t-180 201t-61.5 272.5q0 114 38 215.5t105.5 176.5t165.5 119
t211 44z" />
    <glyph glyph-name="abreve.alt" horiz-adv-x="1290" 
d="M334 1436h86q24 -67 61 -99t113 -32q75 0 113 31.5t61 99.5h86q-14 -119 -75.5 -178.5t-184.5 -59.5q-121 0 -183 59.5t-77 178.5zM623 936q-156 0 -264.5 -115t-108.5 -286q0 -169 107.5 -287.5t263.5 -118.5q154 0 254 116.5t100 291.5q0 176 -100 287.5t-252 111.5z
M600 1085q48 0 98 -11.5t101.5 -35.5t97.5 -66.5t76 -99.5l24 193h133v-1065h-167v184q-46 -89 -146.5 -146.5t-224.5 -57.5q-152 0 -270.5 76.5t-180 201t-61.5 272.5q0 114 38 215.5t105.5 176.5t165.5 119t211 44z" />
    <glyph glyph-name="gbreve.alt" horiz-adv-x="1271" 
d="M309 1436h86q24 -67 61 -99t113 -32q75 0 112.5 31.5t59.5 99.5h86q-12 -118 -74 -178t-184 -60t-183 59t-77 179zM152 -246l49 129q76 -38 174.5 -61t185.5 -23q176 0 283.5 90t107.5 252v123q-125 -190 -391 -190q-93 0 -179.5 35.5t-154 99t-107.5 160t-40 211.5
t40 211.5t107.5 160t154 98.5t179.5 35q136 0 237.5 -52.5t159.5 -147.5l29 180h125v-901q0 -248 -142 -380t-386 -132q-245 0 -432 102zM602 223q169 0 264 101t95 254t-95.5 255.5t-263.5 102.5q-154 0 -253 -104t-99 -252t99 -252.5t253 -104.5z" />
    <glyph glyph-name="gcircumflex.alt" horiz-adv-x="1271" 
d="M432 1198h-129l227 248h119l234 -248h-133l-156 143zM152 -246l49 129q76 -38 174.5 -61t185.5 -23q176 0 283.5 90t107.5 252v123q-125 -190 -391 -190q-93 0 -179.5 35.5t-154 99t-107.5 160t-40 211.5t40 211.5t107.5 160t154 98.5t179.5 35q136 0 237.5 -52.5
t159.5 -147.5l29 180h125v-901q0 -248 -142 -380t-386 -132q-245 0 -432 102zM602 223q169 0 264 101t95 254t-95.5 255.5t-263.5 102.5q-154 0 -253 -104t-99 -252t99 -252.5t253 -104.5z" />
    <glyph glyph-name="gcommaaccent.alt" horiz-adv-x="1271" 
d="M578 1198q-47 0 -73 35t-26 82q0 120 144 196l28 -47q-39 -24 -65 -61t-23 -76q14 14 37 14q27 0 44.5 -19.5t17.5 -47.5q0 -32 -26.5 -54t-57.5 -22zM152 -246l49 129q76 -38 174.5 -61t185.5 -23q176 0 283.5 90t107.5 252v123q-125 -190 -391 -190q-93 0 -179.5 35.5
t-154 99t-107.5 160t-40 211.5t40 211.5t107.5 160t154 98.5t179.5 35q136 0 237.5 -52.5t159.5 -147.5l29 180h125v-901q0 -248 -142 -380t-386 -132q-245 0 -432 102zM602 223q169 0 264 101t95 254t-95.5 255.5t-263.5 102.5q-154 0 -253 -104t-99 -252t99 -252.5
t253 -104.5z" />
    <glyph glyph-name="gdotaccent.alt" horiz-adv-x="1271" 
d="M684 1294q0 -42 -28.5 -69t-73.5 -27q-44 0 -72.5 27.5t-28.5 68.5q0 42 29.5 71.5t71.5 29.5q44 0 73 -28.5t29 -72.5zM152 -246l49 129q76 -38 174.5 -61t185.5 -23q176 0 283.5 90t107.5 252v123q-125 -190 -391 -190q-93 0 -179.5 35.5t-154 99t-107.5 160t-40 211.5
t40 211.5t107.5 160t154 98.5t179.5 35q136 0 237.5 -52.5t159.5 -147.5l29 180h125v-901q0 -248 -142 -380t-386 -132q-245 0 -432 102zM602 223q169 0 264 101t95 254t-95.5 255.5t-263.5 102.5q-154 0 -253 -104t-99 -252t99 -252.5t253 -104.5z" />
    <glyph glyph-name="apple" horiz-adv-x="2304" 
d="M1006 1008v-394h-9v394h9zM90 981h37v-63h51v-35h-51v-115q0 -33 29 -33q4 0 12.5 1t13.5 1l8 -32q-27 -9 -40 -9q-37 0 -52.5 18.5t-15.5 57.5v111h-31v28l31 7zM201 918h47l63 -173l62 173h49l-92 -232q-13 -32 -28 -46.5t-40 -14.5q-22 0 -43 6l8 41q12 -4 25 -4
q21 0 35 28zM678 807q0 -48 -29 -81.5t-78 -33.5q-48 0 -69 31v-98h-47v293h37l6 -33q22 37 73 37q47 0 77 -32.5t30 -82.5zM498 807q0 -33 18.5 -53.5t48.5 -20.5q28 0 47 21t19 53t-19 53t-47 21q-30 0 -48.5 -20.5t-18.5 -53.5zM819 922q48 0 75.5 -33.5t27.5 -79.5
l-2 -21h-162q3 -28 22 -42.5t47 -14.5q24 0 66 14l14 -32q-35 -21 -82 -21q-50 0 -82 32t-32 81q0 51 30.5 84t77.5 33zM758 823h121q-2 25 -15.5 41.5t-40.5 16.5q-26 0 -43 -15.5t-22 -42.5zM1260 1008h20v-312h-16l-2 52q-12 -26 -36.5 -41t-51.5 -15q-46 0 -77.5 34
t-31.5 81q0 46 30.5 79.5t78.5 33.5q61 0 86 -52v140zM1087 807q0 -40 25.5 -68t63.5 -28q36 0 61 28t25 68q0 39 -25 66.5t-61 27.5q-38 0 -63.5 -27t-25.5 -67zM1448 920q45 0 73.5 -33t28.5 -78l-2 -10h-186q2 -37 28 -61.5t64 -24.5q33 0 70 16l8 -16q-42 -21 -78 -21
q-50 0 -82.5 34t-32.5 81q0 46 32 79.5t77 33.5zM1362 815h166q0 32 -21 59t-57 27q-35 0 -60.5 -25.5t-27.5 -60.5zM1821 807q0 -47 -30.5 -81t-76.5 -34q-28 0 -52.5 14t-33.5 39v-120h-22v293h16l4 -52q11 26 36 40t52 14q45 0 76 -33.5t31 -79.5zM1626 807
q0 -41 24.5 -67.5t61.5 -26.5t62.5 27t25.5 67t-25.5 67t-62.5 27t-61.5 -27t-24.5 -67zM1978 920q48 0 81.5 -32t33.5 -81q0 -47 -34 -81t-81 -34q-46 0 -78 34t-32 81t32 80t78 33zM1888 807q0 -39 26 -66.5t64 -27.5q40 0 67.5 27.5t27.5 66.5q0 40 -27.5 67t-67.5 27
q-38 0 -64 -27t-26 -67zM2165 981h16v-63h62v-19h-62v-133q0 -51 39 -51q21 0 31 4l2 -17q-12 -6 -35 -6q-32 0 -44.5 18t-12.5 54v131h-33v16l33 3z" />
    </font>
</defs>
</svg>
